<?xml version="1.0" encoding="utf-8" standalone="no"?>
<!DOCTYPE svg PUBLIC "-//W3C//DTD SVG 1.1//EN"
  "http://www.w3.org/Graphics/SVG/1.1/DTD/svg11.dtd">
<svg xmlns:xlink="http://www.w3.org/1999/xlink" width="603.704375pt" height="295.385156pt" viewBox="0 0 603.704375 295.385156" xmlns="http://www.w3.org/2000/svg" version="1.1">
 <metadata>
  <rdf:RDF xmlns:dc="http://purl.org/dc/elements/1.1/" xmlns:cc="http://creativecommons.org/ns#" xmlns:rdf="http://www.w3.org/1999/02/22-rdf-syntax-ns#">
   <cc:Work>
    <dc:type rdf:resource="http://purl.org/dc/dcmitype/StillImage"/>
    <dc:date>2026-05-25T16:52:06.339554</dc:date>
    <dc:format>image/svg+xml</dc:format>
    <dc:creator>
     <cc:Agent>
      <dc:title>Matplotlib v3.9.2, https://matplotlib.org/</dc:title>
     </cc:Agent>
    </dc:creator>
   </cc:Work>
  </rdf:RDF>
 </metadata>
 <defs>
  <style type="text/css">*{stroke-linejoin: round; stroke-linecap: butt}</style>
 </defs>
 <g id="figure_1">
  <g id="patch_1">
   <path d="M 0 295.385156 
L 603.704375 295.385156 
L 603.704375 0 
L 0 0 
z
" style="fill: #ffffff"/>
  </g>
  <g id="axes_1">
   <g id="patch_2">
    <path d="M 37.726562 260.248437 
L 588.392188 260.248437 
L 588.392188 21.198437 
L 37.726562 21.198437 
z
" style="fill: #ffffff"/>
   </g>
   <g id="matplotlib.axis_1">
    <g id="xtick_1">
     <g id="line2d_1">
      <path d="M 37.726562 260.248437 
L 37.726562 21.198437 
" clip-path="url(#pbab169f440)" style="fill: none; stroke: #b0b0b0; stroke-opacity: 0.2; stroke-width: 0.8; stroke-linecap: square"/>
     </g>
     <g id="line2d_2">
      <defs>
       <path id="md9cdd4cc56" d="M 0 0 
L 0 3.5 
" style="stroke: #000000; stroke-width: 0.8"/>
      </defs>
      <g>
       <use xlink:href="#md9cdd4cc56" x="37.726562" y="260.248437" style="stroke: #000000; stroke-width: 0.8"/>
      </g>
     </g>
     <g id="text_1">
      <!-- 0 -->
      <g transform="translate(35.0225 273.707109) scale(0.085 -0.085)">
       <defs>
        <path id="DejaVuSans-30" d="M 2034 4250 
Q 1547 4250 1301 3770 
Q 1056 3291 1056 2328 
Q 1056 1369 1301 889 
Q 1547 409 2034 409 
Q 2525 409 2770 889 
Q 3016 1369 3016 2328 
Q 3016 3291 2770 3770 
Q 2525 4250 2034 4250 
z
M 2034 4750 
Q 2819 4750 3233 4129 
Q 3647 3509 3647 2328 
Q 3647 1150 3233 529 
Q 2819 -91 2034 -91 
Q 1250 -91 836 529 
Q 422 1150 422 2328 
Q 422 3509 836 4129 
Q 1250 4750 2034 4750 
z
" transform="scale(0.015625)"/>
       </defs>
       <use xlink:href="#DejaVuSans-30"/>
      </g>
     </g>
    </g>
    <g id="xtick_2">
     <g id="line2d_3">
      <path d="M 129.504167 260.248437 
L 129.504167 21.198437 
" clip-path="url(#pbab169f440)" style="fill: none; stroke: #b0b0b0; stroke-opacity: 0.2; stroke-width: 0.8; stroke-linecap: square"/>
     </g>
     <g id="line2d_4">
      <g>
       <use xlink:href="#md9cdd4cc56" x="129.504167" y="260.248437" style="stroke: #000000; stroke-width: 0.8"/>
      </g>
     </g>
     <g id="text_2">
      <!-- 20 -->
      <g transform="translate(124.096042 273.707109) scale(0.085 -0.085)">
       <defs>
        <path id="DejaVuSans-32" d="M 1228 531 
L 3431 531 
L 3431 0 
L 469 0 
L 469 531 
Q 828 903 1448 1529 
Q 2069 2156 2228 2338 
Q 2531 2678 2651 2914 
Q 2772 3150 2772 3378 
Q 2772 3750 2511 3984 
Q 2250 4219 1831 4219 
Q 1534 4219 1204 4116 
Q 875 4013 500 3803 
L 500 4441 
Q 881 4594 1212 4672 
Q 1544 4750 1819 4750 
Q 2544 4750 2975 4387 
Q 3406 4025 3406 3419 
Q 3406 3131 3298 2873 
Q 3191 2616 2906 2266 
Q 2828 2175 2409 1742 
Q 1991 1309 1228 531 
z
" transform="scale(0.015625)"/>
       </defs>
       <use xlink:href="#DejaVuSans-32"/>
       <use xlink:href="#DejaVuSans-30" x="63.623047"/>
      </g>
     </g>
    </g>
    <g id="xtick_3">
     <g id="line2d_5">
      <path d="M 221.281771 260.248437 
L 221.281771 21.198437 
" clip-path="url(#pbab169f440)" style="fill: none; stroke: #b0b0b0; stroke-opacity: 0.2; stroke-width: 0.8; stroke-linecap: square"/>
     </g>
     <g id="line2d_6">
      <g>
       <use xlink:href="#md9cdd4cc56" x="221.281771" y="260.248437" style="stroke: #000000; stroke-width: 0.8"/>
      </g>
     </g>
     <g id="text_3">
      <!-- 40 -->
      <g transform="translate(215.873646 273.707109) scale(0.085 -0.085)">
       <defs>
        <path id="DejaVuSans-34" d="M 2419 4116 
L 825 1625 
L 2419 1625 
L 2419 4116 
z
M 2253 4666 
L 3047 4666 
L 3047 1625 
L 3713 1625 
L 3713 1100 
L 3047 1100 
L 3047 0 
L 2419 0 
L 2419 1100 
L 313 1100 
L 313 1709 
L 2253 4666 
z
" transform="scale(0.015625)"/>
       </defs>
       <use xlink:href="#DejaVuSans-34"/>
       <use xlink:href="#DejaVuSans-30" x="63.623047"/>
      </g>
     </g>
    </g>
    <g id="xtick_4">
     <g id="line2d_7">
      <path d="M 313.059375 260.248437 
L 313.059375 21.198437 
" clip-path="url(#pbab169f440)" style="fill: none; stroke: #b0b0b0; stroke-opacity: 0.2; stroke-width: 0.8; stroke-linecap: square"/>
     </g>
     <g id="line2d_8">
      <g>
       <use xlink:href="#md9cdd4cc56" x="313.059375" y="260.248437" style="stroke: #000000; stroke-width: 0.8"/>
      </g>
     </g>
     <g id="text_4">
      <!-- 60 -->
      <g transform="translate(307.65125 273.707109) scale(0.085 -0.085)">
       <defs>
        <path id="DejaVuSans-36" d="M 2113 2584 
Q 1688 2584 1439 2293 
Q 1191 2003 1191 1497 
Q 1191 994 1439 701 
Q 1688 409 2113 409 
Q 2538 409 2786 701 
Q 3034 994 3034 1497 
Q 3034 2003 2786 2293 
Q 2538 2584 2113 2584 
z
M 3366 4563 
L 3366 3988 
Q 3128 4100 2886 4159 
Q 2644 4219 2406 4219 
Q 1781 4219 1451 3797 
Q 1122 3375 1075 2522 
Q 1259 2794 1537 2939 
Q 1816 3084 2150 3084 
Q 2853 3084 3261 2657 
Q 3669 2231 3669 1497 
Q 3669 778 3244 343 
Q 2819 -91 2113 -91 
Q 1303 -91 875 529 
Q 447 1150 447 2328 
Q 447 3434 972 4092 
Q 1497 4750 2381 4750 
Q 2619 4750 2861 4703 
Q 3103 4656 3366 4563 
z
" transform="scale(0.015625)"/>
       </defs>
       <use xlink:href="#DejaVuSans-36"/>
       <use xlink:href="#DejaVuSans-30" x="63.623047"/>
      </g>
     </g>
    </g>
    <g id="xtick_5">
     <g id="line2d_9">
      <path d="M 404.836979 260.248437 
L 404.836979 21.198437 
" clip-path="url(#pbab169f440)" style="fill: none; stroke: #b0b0b0; stroke-opacity: 0.2; stroke-width: 0.8; stroke-linecap: square"/>
     </g>
     <g id="line2d_10">
      <g>
       <use xlink:href="#md9cdd4cc56" x="404.836979" y="260.248437" style="stroke: #000000; stroke-width: 0.8"/>
      </g>
     </g>
     <g id="text_5">
      <!-- 80 -->
      <g transform="translate(399.428854 273.707109) scale(0.085 -0.085)">
       <defs>
        <path id="DejaVuSans-38" d="M 2034 2216 
Q 1584 2216 1326 1975 
Q 1069 1734 1069 1313 
Q 1069 891 1326 650 
Q 1584 409 2034 409 
Q 2484 409 2743 651 
Q 3003 894 3003 1313 
Q 3003 1734 2745 1975 
Q 2488 2216 2034 2216 
z
M 1403 2484 
Q 997 2584 770 2862 
Q 544 3141 544 3541 
Q 544 4100 942 4425 
Q 1341 4750 2034 4750 
Q 2731 4750 3128 4425 
Q 3525 4100 3525 3541 
Q 3525 3141 3298 2862 
Q 3072 2584 2669 2484 
Q 3125 2378 3379 2068 
Q 3634 1759 3634 1313 
Q 3634 634 3220 271 
Q 2806 -91 2034 -91 
Q 1263 -91 848 271 
Q 434 634 434 1313 
Q 434 1759 690 2068 
Q 947 2378 1403 2484 
z
M 1172 3481 
Q 1172 3119 1398 2916 
Q 1625 2713 2034 2713 
Q 2441 2713 2670 2916 
Q 2900 3119 2900 3481 
Q 2900 3844 2670 4047 
Q 2441 4250 2034 4250 
Q 1625 4250 1398 4047 
Q 1172 3844 1172 3481 
z
" transform="scale(0.015625)"/>
       </defs>
       <use xlink:href="#DejaVuSans-38"/>
       <use xlink:href="#DejaVuSans-30" x="63.623047"/>
      </g>
     </g>
    </g>
    <g id="xtick_6">
     <g id="line2d_11">
      <path d="M 496.614583 260.248437 
L 496.614583 21.198437 
" clip-path="url(#pbab169f440)" style="fill: none; stroke: #b0b0b0; stroke-opacity: 0.2; stroke-width: 0.8; stroke-linecap: square"/>
     </g>
     <g id="line2d_12">
      <g>
       <use xlink:href="#md9cdd4cc56" x="496.614583" y="260.248437" style="stroke: #000000; stroke-width: 0.8"/>
      </g>
     </g>
     <g id="text_6">
      <!-- 100 -->
      <g transform="translate(488.502396 273.707109) scale(0.085 -0.085)">
       <defs>
        <path id="DejaVuSans-31" d="M 794 531 
L 1825 531 
L 1825 4091 
L 703 3866 
L 703 4441 
L 1819 4666 
L 2450 4666 
L 2450 531 
L 3481 531 
L 3481 0 
L 794 0 
L 794 531 
z
" transform="scale(0.015625)"/>
       </defs>
       <use xlink:href="#DejaVuSans-31"/>
       <use xlink:href="#DejaVuSans-30" x="63.623047"/>
       <use xlink:href="#DejaVuSans-30" x="127.246094"/>
      </g>
     </g>
    </g>
    <g id="xtick_7">
     <g id="line2d_13">
      <path d="M 588.392188 260.248437 
L 588.392188 21.198437 
" clip-path="url(#pbab169f440)" style="fill: none; stroke: #b0b0b0; stroke-opacity: 0.2; stroke-width: 0.8; stroke-linecap: square"/>
     </g>
     <g id="line2d_14">
      <g>
       <use xlink:href="#md9cdd4cc56" x="588.392188" y="260.248437" style="stroke: #000000; stroke-width: 0.8"/>
      </g>
     </g>
     <g id="text_7">
      <!-- 120 -->
      <g transform="translate(580.28 273.707109) scale(0.085 -0.085)">
       <use xlink:href="#DejaVuSans-31"/>
       <use xlink:href="#DejaVuSans-32" x="63.623047"/>
       <use xlink:href="#DejaVuSans-30" x="127.246094"/>
      </g>
     </g>
    </g>
    <g id="text_8">
     <!-- Temps (min) -->
     <g transform="translate(285.295781 286.313437) scale(0.09 -0.09)">
      <defs>
       <path id="DejaVuSans-54" d="M -19 4666 
L 3928 4666 
L 3928 4134 
L 2272 4134 
L 2272 0 
L 1638 0 
L 1638 4134 
L -19 4134 
L -19 4666 
z
" transform="scale(0.015625)"/>
       <path id="DejaVuSans-65" d="M 3597 1894 
L 3597 1613 
L 953 1613 
Q 991 1019 1311 708 
Q 1631 397 2203 397 
Q 2534 397 2845 478 
Q 3156 559 3463 722 
L 3463 178 
Q 3153 47 2828 -22 
Q 2503 -91 2169 -91 
Q 1331 -91 842 396 
Q 353 884 353 1716 
Q 353 2575 817 3079 
Q 1281 3584 2069 3584 
Q 2775 3584 3186 3129 
Q 3597 2675 3597 1894 
z
M 3022 2063 
Q 3016 2534 2758 2815 
Q 2500 3097 2075 3097 
Q 1594 3097 1305 2825 
Q 1016 2553 972 2059 
L 3022 2063 
z
" transform="scale(0.015625)"/>
       <path id="DejaVuSans-6d" d="M 3328 2828 
Q 3544 3216 3844 3400 
Q 4144 3584 4550 3584 
Q 5097 3584 5394 3201 
Q 5691 2819 5691 2113 
L 5691 0 
L 5113 0 
L 5113 2094 
Q 5113 2597 4934 2840 
Q 4756 3084 4391 3084 
Q 3944 3084 3684 2787 
Q 3425 2491 3425 1978 
L 3425 0 
L 2847 0 
L 2847 2094 
Q 2847 2600 2669 2842 
Q 2491 3084 2119 3084 
Q 1678 3084 1418 2786 
Q 1159 2488 1159 1978 
L 1159 0 
L 581 0 
L 581 3500 
L 1159 3500 
L 1159 2956 
Q 1356 3278 1631 3431 
Q 1906 3584 2284 3584 
Q 2666 3584 2933 3390 
Q 3200 3197 3328 2828 
z
" transform="scale(0.015625)"/>
       <path id="DejaVuSans-70" d="M 1159 525 
L 1159 -1331 
L 581 -1331 
L 581 3500 
L 1159 3500 
L 1159 2969 
Q 1341 3281 1617 3432 
Q 1894 3584 2278 3584 
Q 2916 3584 3314 3078 
Q 3713 2572 3713 1747 
Q 3713 922 3314 415 
Q 2916 -91 2278 -91 
Q 1894 -91 1617 61 
Q 1341 213 1159 525 
z
M 3116 1747 
Q 3116 2381 2855 2742 
Q 2594 3103 2138 3103 
Q 1681 3103 1420 2742 
Q 1159 2381 1159 1747 
Q 1159 1113 1420 752 
Q 1681 391 2138 391 
Q 2594 391 2855 752 
Q 3116 1113 3116 1747 
z
" transform="scale(0.015625)"/>
       <path id="DejaVuSans-73" d="M 2834 3397 
L 2834 2853 
Q 2591 2978 2328 3040 
Q 2066 3103 1784 3103 
Q 1356 3103 1142 2972 
Q 928 2841 928 2578 
Q 928 2378 1081 2264 
Q 1234 2150 1697 2047 
L 1894 2003 
Q 2506 1872 2764 1633 
Q 3022 1394 3022 966 
Q 3022 478 2636 193 
Q 2250 -91 1575 -91 
Q 1294 -91 989 -36 
Q 684 19 347 128 
L 347 722 
Q 666 556 975 473 
Q 1284 391 1588 391 
Q 1994 391 2212 530 
Q 2431 669 2431 922 
Q 2431 1156 2273 1281 
Q 2116 1406 1581 1522 
L 1381 1569 
Q 847 1681 609 1914 
Q 372 2147 372 2553 
Q 372 3047 722 3315 
Q 1072 3584 1716 3584 
Q 2034 3584 2315 3537 
Q 2597 3491 2834 3397 
z
" transform="scale(0.015625)"/>
       <path id="DejaVuSans-20" transform="scale(0.015625)"/>
       <path id="DejaVuSans-28" d="M 1984 4856 
Q 1566 4138 1362 3434 
Q 1159 2731 1159 2009 
Q 1159 1288 1364 580 
Q 1569 -128 1984 -844 
L 1484 -844 
Q 1016 -109 783 600 
Q 550 1309 550 2009 
Q 550 2706 781 3412 
Q 1013 4119 1484 4856 
L 1984 4856 
z
" transform="scale(0.015625)"/>
       <path id="DejaVuSans-69" d="M 603 3500 
L 1178 3500 
L 1178 0 
L 603 0 
L 603 3500 
z
M 603 4863 
L 1178 4863 
L 1178 4134 
L 603 4134 
L 603 4863 
z
" transform="scale(0.015625)"/>
       <path id="DejaVuSans-6e" d="M 3513 2113 
L 3513 0 
L 2938 0 
L 2938 2094 
Q 2938 2591 2744 2837 
Q 2550 3084 2163 3084 
Q 1697 3084 1428 2787 
Q 1159 2491 1159 1978 
L 1159 0 
L 581 0 
L 581 3500 
L 1159 3500 
L 1159 2956 
Q 1366 3272 1645 3428 
Q 1925 3584 2291 3584 
Q 2894 3584 3203 3211 
Q 3513 2838 3513 2113 
z
" transform="scale(0.015625)"/>
       <path id="DejaVuSans-29" d="M 513 4856 
L 1013 4856 
Q 1481 4119 1714 3412 
Q 1947 2706 1947 2009 
Q 1947 1309 1714 600 
Q 1481 -109 1013 -844 
L 513 -844 
Q 928 -128 1133 580 
Q 1338 1288 1338 2009 
Q 1338 2731 1133 3434 
Q 928 4138 513 4856 
z
" transform="scale(0.015625)"/>
      </defs>
      <use xlink:href="#DejaVuSans-54"/>
      <use xlink:href="#DejaVuSans-65" x="44.083984"/>
      <use xlink:href="#DejaVuSans-6d" x="105.607422"/>
      <use xlink:href="#DejaVuSans-70" x="203.019531"/>
      <use xlink:href="#DejaVuSans-73" x="266.496094"/>
      <use xlink:href="#DejaVuSans-20" x="318.595703"/>
      <use xlink:href="#DejaVuSans-28" x="350.382812"/>
      <use xlink:href="#DejaVuSans-6d" x="389.396484"/>
      <use xlink:href="#DejaVuSans-69" x="486.808594"/>
      <use xlink:href="#DejaVuSans-6e" x="514.591797"/>
      <use xlink:href="#DejaVuSans-29" x="577.970703"/>
     </g>
    </g>
   </g>
   <g id="matplotlib.axis_2">
    <g id="ytick_1">
     <g id="line2d_15">
      <path d="M 37.726562 260.248437 
L 588.392188 260.248437 
" clip-path="url(#pbab169f440)" style="fill: none; stroke: #b0b0b0; stroke-opacity: 0.2; stroke-width: 0.8; stroke-linecap: square"/>
     </g>
     <g id="line2d_16">
      <defs>
       <path id="md508a312dd" d="M 0 0 
L -3.5 0 
" style="stroke: #000000; stroke-width: 0.8"/>
      </defs>
      <g>
       <use xlink:href="#md508a312dd" x="37.726562" y="260.248437" style="stroke: #000000; stroke-width: 0.8"/>
      </g>
     </g>
     <g id="text_9">
      <!-- 0 -->
      <g transform="translate(25.318438 263.477773) scale(0.085 -0.085)">
       <use xlink:href="#DejaVuSans-30"/>
      </g>
     </g>
    </g>
    <g id="ytick_2">
     <g id="line2d_17">
      <path d="M 37.726562 224.081767 
L 588.392188 224.081767 
" clip-path="url(#pbab169f440)" style="fill: none; stroke: #b0b0b0; stroke-opacity: 0.2; stroke-width: 0.8; stroke-linecap: square"/>
     </g>
     <g id="line2d_18">
      <g>
       <use xlink:href="#md508a312dd" x="37.726562" y="224.081767" style="stroke: #000000; stroke-width: 0.8"/>
      </g>
     </g>
     <g id="text_10">
      <!-- 5 -->
      <g transform="translate(25.318438 227.311103) scale(0.085 -0.085)">
       <defs>
        <path id="DejaVuSans-35" d="M 691 4666 
L 3169 4666 
L 3169 4134 
L 1269 4134 
L 1269 2991 
Q 1406 3038 1543 3061 
Q 1681 3084 1819 3084 
Q 2600 3084 3056 2656 
Q 3513 2228 3513 1497 
Q 3513 744 3044 326 
Q 2575 -91 1722 -91 
Q 1428 -91 1123 -41 
Q 819 9 494 109 
L 494 744 
Q 775 591 1075 516 
Q 1375 441 1709 441 
Q 2250 441 2565 725 
Q 2881 1009 2881 1497 
Q 2881 1984 2565 2268 
Q 2250 2553 1709 2553 
Q 1456 2553 1204 2497 
Q 953 2441 691 2322 
L 691 4666 
z
" transform="scale(0.015625)"/>
       </defs>
       <use xlink:href="#DejaVuSans-35"/>
      </g>
     </g>
    </g>
    <g id="ytick_3">
     <g id="line2d_19">
      <path d="M 37.726562 187.915096 
L 588.392188 187.915096 
" clip-path="url(#pbab169f440)" style="fill: none; stroke: #b0b0b0; stroke-opacity: 0.2; stroke-width: 0.8; stroke-linecap: square"/>
     </g>
     <g id="line2d_20">
      <g>
       <use xlink:href="#md508a312dd" x="37.726562" y="187.915096" style="stroke: #000000; stroke-width: 0.8"/>
      </g>
     </g>
     <g id="text_11">
      <!-- 10 -->
      <g transform="translate(19.910312 191.144432) scale(0.085 -0.085)">
       <use xlink:href="#DejaVuSans-31"/>
       <use xlink:href="#DejaVuSans-30" x="63.623047"/>
      </g>
     </g>
    </g>
    <g id="ytick_4">
     <g id="line2d_21">
      <path d="M 37.726562 151.748426 
L 588.392188 151.748426 
" clip-path="url(#pbab169f440)" style="fill: none; stroke: #b0b0b0; stroke-opacity: 0.2; stroke-width: 0.8; stroke-linecap: square"/>
     </g>
     <g id="line2d_22">
      <g>
       <use xlink:href="#md508a312dd" x="37.726562" y="151.748426" style="stroke: #000000; stroke-width: 0.8"/>
      </g>
     </g>
     <g id="text_12">
      <!-- 15 -->
      <g transform="translate(19.910312 154.977762) scale(0.085 -0.085)">
       <use xlink:href="#DejaVuSans-31"/>
       <use xlink:href="#DejaVuSans-35" x="63.623047"/>
      </g>
     </g>
    </g>
    <g id="ytick_5">
     <g id="line2d_23">
      <path d="M 37.726562 115.581755 
L 588.392188 115.581755 
" clip-path="url(#pbab169f440)" style="fill: none; stroke: #b0b0b0; stroke-opacity: 0.2; stroke-width: 0.8; stroke-linecap: square"/>
     </g>
     <g id="line2d_24">
      <g>
       <use xlink:href="#md508a312dd" x="37.726562" y="115.581755" style="stroke: #000000; stroke-width: 0.8"/>
      </g>
     </g>
     <g id="text_13">
      <!-- 20 -->
      <g transform="translate(19.910312 118.811091) scale(0.085 -0.085)">
       <use xlink:href="#DejaVuSans-32"/>
       <use xlink:href="#DejaVuSans-30" x="63.623047"/>
      </g>
     </g>
    </g>
    <g id="ytick_6">
     <g id="line2d_25">
      <path d="M 37.726562 79.415085 
L 588.392188 79.415085 
" clip-path="url(#pbab169f440)" style="fill: none; stroke: #b0b0b0; stroke-opacity: 0.2; stroke-width: 0.8; stroke-linecap: square"/>
     </g>
     <g id="line2d_26">
      <g>
       <use xlink:href="#md508a312dd" x="37.726562" y="79.415085" style="stroke: #000000; stroke-width: 0.8"/>
      </g>
     </g>
     <g id="text_14">
      <!-- 25 -->
      <g transform="translate(19.910312 82.644421) scale(0.085 -0.085)">
       <use xlink:href="#DejaVuSans-32"/>
       <use xlink:href="#DejaVuSans-35" x="63.623047"/>
      </g>
     </g>
    </g>
    <g id="ytick_7">
     <g id="line2d_27">
      <path d="M 37.726562 43.248414 
L 588.392188 43.248414 
" clip-path="url(#pbab169f440)" style="fill: none; stroke: #b0b0b0; stroke-opacity: 0.2; stroke-width: 0.8; stroke-linecap: square"/>
     </g>
     <g id="line2d_28">
      <g>
       <use xlink:href="#md508a312dd" x="37.726562" y="43.248414" style="stroke: #000000; stroke-width: 0.8"/>
      </g>
     </g>
     <g id="text_15">
      <!-- 30 -->
      <g transform="translate(19.910312 46.47775) scale(0.085 -0.085)">
       <defs>
        <path id="DejaVuSans-33" d="M 2597 2516 
Q 3050 2419 3304 2112 
Q 3559 1806 3559 1356 
Q 3559 666 3084 287 
Q 2609 -91 1734 -91 
Q 1441 -91 1130 -33 
Q 819 25 488 141 
L 488 750 
Q 750 597 1062 519 
Q 1375 441 1716 441 
Q 2309 441 2620 675 
Q 2931 909 2931 1356 
Q 2931 1769 2642 2001 
Q 2353 2234 1838 2234 
L 1294 2234 
L 1294 2753 
L 1863 2753 
Q 2328 2753 2575 2939 
Q 2822 3125 2822 3475 
Q 2822 3834 2567 4026 
Q 2313 4219 1838 4219 
Q 1578 4219 1281 4162 
Q 984 4106 628 3988 
L 628 4550 
Q 988 4650 1302 4700 
Q 1616 4750 1894 4750 
Q 2613 4750 3031 4423 
Q 3450 4097 3450 3541 
Q 3450 3153 3228 2886 
Q 3006 2619 2597 2516 
z
" transform="scale(0.015625)"/>
       </defs>
       <use xlink:href="#DejaVuSans-33"/>
       <use xlink:href="#DejaVuSans-30" x="63.623047"/>
      </g>
     </g>
    </g>
    <g id="text_16">
     <!-- Débit (L/s) -->
     <g transform="translate(14.038594 164.1375) rotate(-90) scale(0.09 -0.09)">
      <defs>
       <path id="DejaVuSans-44" d="M 1259 4147 
L 1259 519 
L 2022 519 
Q 2988 519 3436 956 
Q 3884 1394 3884 2338 
Q 3884 3275 3436 3711 
Q 2988 4147 2022 4147 
L 1259 4147 
z
M 628 4666 
L 1925 4666 
Q 3281 4666 3915 4102 
Q 4550 3538 4550 2338 
Q 4550 1131 3912 565 
Q 3275 0 1925 0 
L 628 0 
L 628 4666 
z
" transform="scale(0.015625)"/>
       <path id="DejaVuSans-e9" d="M 3597 1894 
L 3597 1613 
L 953 1613 
Q 991 1019 1311 708 
Q 1631 397 2203 397 
Q 2534 397 2845 478 
Q 3156 559 3463 722 
L 3463 178 
Q 3153 47 2828 -22 
Q 2503 -91 2169 -91 
Q 1331 -91 842 396 
Q 353 884 353 1716 
Q 353 2575 817 3079 
Q 1281 3584 2069 3584 
Q 2775 3584 3186 3129 
Q 3597 2675 3597 1894 
z
M 3022 2063 
Q 3016 2534 2758 2815 
Q 2500 3097 2075 3097 
Q 1594 3097 1305 2825 
Q 1016 2553 972 2059 
L 3022 2063 
z
M 2466 5119 
L 3088 5119 
L 2070 3944 
L 1591 3944 
L 2466 5119 
z
" transform="scale(0.015625)"/>
       <path id="DejaVuSans-62" d="M 3116 1747 
Q 3116 2381 2855 2742 
Q 2594 3103 2138 3103 
Q 1681 3103 1420 2742 
Q 1159 2381 1159 1747 
Q 1159 1113 1420 752 
Q 1681 391 2138 391 
Q 2594 391 2855 752 
Q 3116 1113 3116 1747 
z
M 1159 2969 
Q 1341 3281 1617 3432 
Q 1894 3584 2278 3584 
Q 2916 3584 3314 3078 
Q 3713 2572 3713 1747 
Q 3713 922 3314 415 
Q 2916 -91 2278 -91 
Q 1894 -91 1617 61 
Q 1341 213 1159 525 
L 1159 0 
L 581 0 
L 581 4863 
L 1159 4863 
L 1159 2969 
z
" transform="scale(0.015625)"/>
       <path id="DejaVuSans-74" d="M 1172 4494 
L 1172 3500 
L 2356 3500 
L 2356 3053 
L 1172 3053 
L 1172 1153 
Q 1172 725 1289 603 
Q 1406 481 1766 481 
L 2356 481 
L 2356 0 
L 1766 0 
Q 1100 0 847 248 
Q 594 497 594 1153 
L 594 3053 
L 172 3053 
L 172 3500 
L 594 3500 
L 594 4494 
L 1172 4494 
z
" transform="scale(0.015625)"/>
       <path id="DejaVuSans-4c" d="M 628 4666 
L 1259 4666 
L 1259 531 
L 3531 531 
L 3531 0 
L 628 0 
L 628 4666 
z
" transform="scale(0.015625)"/>
       <path id="DejaVuSans-2f" d="M 1625 4666 
L 2156 4666 
L 531 -594 
L 0 -594 
L 1625 4666 
z
" transform="scale(0.015625)"/>
      </defs>
      <use xlink:href="#DejaVuSans-44"/>
      <use xlink:href="#DejaVuSans-e9" x="77.001953"/>
      <use xlink:href="#DejaVuSans-62" x="138.525391"/>
      <use xlink:href="#DejaVuSans-69" x="202.001953"/>
      <use xlink:href="#DejaVuSans-74" x="229.785156"/>
      <use xlink:href="#DejaVuSans-20" x="268.994141"/>
      <use xlink:href="#DejaVuSans-28" x="300.78125"/>
      <use xlink:href="#DejaVuSans-4c" x="339.794922"/>
      <use xlink:href="#DejaVuSans-2f" x="395.507812"/>
      <use xlink:href="#DejaVuSans-73" x="429.199219"/>
      <use xlink:href="#DejaVuSans-29" x="481.298828"/>
     </g>
    </g>
   </g>
   <g id="line2d_29">
    <path d="M 37.726562 187.908268 
L 43.24702 187.823492 
L 46.007249 187.61556 
L 47.387363 187.401635 
L 48.767477 187.064071 
L 50.147592 186.549865 
L 51.527706 185.793306 
L 52.90782 184.717512 
L 54.287935 183.238128 
L 55.668049 181.269249 
L 57.048163 178.731168 
L 58.428278 175.559032 
L 59.808392 171.711143 
L 61.188506 167.175484 
L 62.568621 161.973234 
L 63.948735 156.15857 
L 66.708964 143.046864 
L 70.849307 121.39287 
L 74.98965 100.01078 
L 77.749879 86.947944 
L 80.510107 75.214604 
L 83.270336 64.9409 
L 86.030565 56.161583 
L 87.410679 52.328396 
L 88.790793 48.860005 
L 90.170908 45.750064 
L 91.551022 42.991159 
L 92.931136 40.574878 
L 94.311251 38.492086 
L 95.691365 36.733021 
L 97.071479 35.287376 
L 98.451594 34.14439 
L 99.831708 33.292914 
L 101.211823 32.721492 
L 102.591937 32.418421 
L 103.972051 32.371817 
L 105.352166 32.56967 
L 106.73228 32.999901 
L 108.112394 33.650408 
L 109.492509 34.509114 
L 110.872623 35.564008 
L 112.252737 36.803186 
L 113.632852 38.214886 
L 116.39308 41.509687 
L 119.153309 45.358267 
L 121.913538 49.67449 
L 124.673766 54.37684 
L 128.814109 61.988662 
L 134.334567 72.821926 
L 150.895939 105.958475 
L 156.416396 116.2065 
L 160.55674 123.430745 
L 164.697083 130.210411 
L 168.837426 136.5192 
L 172.977769 142.346097 
L 177.118112 147.702692 
L 181.258455 152.665169 
L 186.778912 159.161251 
L 189.539141 162.743041 
L 192.29937 166.800882 
L 195.059598 171.379492 
L 201.96017 183.400688 
L 204.720399 187.383257 
L 206.100513 189.063949 
L 207.480627 190.537344 
L 208.860742 191.81994 
L 211.62097 193.916767 
L 214.381199 195.580484 
L 218.521542 197.665088 
L 225.422114 200.758482 
L 233.7028 204.231824 
L 243.3636 208.028056 
L 253.024401 211.567018 
L 262.685201 214.866145 
L 272.346002 217.941691 
L 283.386917 221.202218 
L 294.427831 224.21146 
L 305.468746 226.988784 
L 316.509661 229.552063 
L 328.93069 232.200391 
L 341.351719 234.620234 
L 355.152863 237.064892 
L 368.954006 239.276354 
L 384.135264 241.466108 
L 399.316522 243.427224 
L 415.877894 245.333846 
L 433.81938 247.156269 
L 451.760867 248.756009 
L 471.082468 250.260905 
L 491.784183 251.65532 
L 515.246127 253.001815 
L 540.088185 254.198279 
L 567.690472 255.297364 
L 584.251844 255.797783 
L 588.392188 255.839405 
L 588.392188 255.839405 
" clip-path="url(#pbab169f440)" style="fill: none; stroke-dasharray: 2,3.3; stroke-dashoffset: 0; stroke: #aaaaaa; stroke-width: 2"/>
   </g>
   <g id="line2d_30">
    <path d="M 37.726562 213.163368 
L 50.147592 213.042122 
L 58.428278 212.754899 
L 63.948735 212.381935 
L 69.469193 211.773317 
L 73.609536 211.0992 
L 77.749879 210.179448 
L 81.890222 208.954413 
L 84.65045 207.937205 
L 87.410679 206.737999 
L 90.170908 205.33922 
L 92.931136 203.724946 
L 95.691365 201.881715 
L 98.451594 199.799365 
L 101.211823 197.471843 
L 103.972051 194.897956 
L 106.73228 192.081998 
L 109.492509 189.03423 
L 113.632852 184.065778 
L 117.773195 178.696488 
L 123.293652 171.110946 
L 134.334567 155.779103 
L 138.47491 150.467873 
L 141.235139 147.186426 
L 143.995367 144.160732 
L 146.755596 141.426912 
L 149.515825 139.01557 
L 152.276053 136.951251 
L 155.036282 135.252107 
L 157.796511 133.929795 
L 160.55674 132.989579 
L 163.316968 132.430611 
L 166.077197 132.246383 
L 168.837426 132.425291 
L 171.597654 132.951294 
L 174.357883 133.804631 
L 177.118112 134.96256 
L 179.87834 136.400102 
L 182.638569 138.090752 
L 185.398798 140.007158 
L 189.539141 143.244777 
L 193.679484 146.837028 
L 199.199941 152.030053 
L 206.100513 158.916511 
L 225.422114 178.451793 
L 232.322686 185.031586 
L 237.843143 190.042241 
L 243.3636 194.794982 
L 248.884058 199.263432 
L 254.404515 203.423972 
L 259.924973 207.257156 
L 265.44543 210.750451 
L 270.965887 213.901078 
L 276.486345 216.7178 
L 282.006802 219.220915 
L 287.52726 221.440377 
L 293.047717 223.41248 
L 294.427831 223.871396 
L 295.807946 224.081767 
L 588.392188 224.081767 
L 588.392188 224.081767 
" clip-path="url(#pbab169f440)" style="fill: none; stroke: #1f4e79; stroke-width: 2.8; stroke-linecap: square"/>
   </g>
   <g id="line2d_31">
    <path d="M 37.726562 192.840598 
L 40.486791 192.73757 
L 43.24702 192.440881 
L 46.007249 191.809356 
L 47.387363 191.299103 
L 48.767477 190.611129 
L 50.147592 189.703333 
L 51.527706 188.530313 
L 52.90782 187.045342 
L 54.287935 185.202883 
L 55.668049 182.961487 
L 57.048163 180.286849 
L 58.428278 177.154742 
L 59.808392 173.553506 
L 61.188506 169.485829 
L 62.568621 164.969566 
L 65.328849 154.736108 
L 68.089078 143.265244 
L 77.749879 101.278753 
L 80.510107 90.703163 
L 83.270336 81.285941 
L 86.030565 73.134679 
L 87.410679 69.54677 
L 88.790793 66.284198 
L 90.170908 63.344085 
L 91.551022 60.721754 
L 92.931136 58.411121 
L 94.311251 56.404995 
L 95.691365 54.69531 
L 97.071479 53.273303 
L 98.451594 52.129654 
L 99.831708 51.254595 
L 101.211823 50.638005 
L 102.591937 50.269485 
L 103.972051 50.138426 
L 105.352166 50.234066 
L 106.73228 50.545546 
L 108.112394 51.061959 
L 109.492509 51.772392 
L 110.872623 52.665968 
L 112.252737 53.731882 
L 113.632852 54.959438 
L 116.39308 57.857406 
L 119.153309 61.277541 
L 121.913538 65.140917 
L 124.673766 69.37262 
L 128.814109 76.258019 
L 132.954453 83.597597 
L 141.235139 98.899401 
L 149.515825 114.055779 
L 155.036282 123.652847 
L 159.176625 130.460676 
L 163.316968 136.880803 
L 167.457311 142.884304 
L 171.597654 148.464027 
L 175.737997 153.651163 
L 181.258455 160.154763 
L 186.778912 166.716121 
L 190.919255 172.09496 
L 195.059598 177.964321 
L 200.580056 185.941646 
L 203.340284 189.588445 
L 206.100513 192.798808 
L 208.860742 195.509385 
L 211.62097 197.741727 
L 214.381199 199.577271 
L 217.141428 201.120941 
L 221.281771 203.096681 
L 226.802228 205.418913 
L 235.082914 208.630921 
L 244.743715 212.129268 
L 254.404515 215.390292 
L 264.065316 218.430317 
L 275.10623 221.653186 
L 283.386917 223.906264 
L 284.767031 224.081767 
L 588.392188 224.081767 
L 588.392188 224.081767 
" clip-path="url(#pbab169f440)" style="fill: none; stroke-dasharray: 8.14,3.52; stroke-dashoffset: 0; stroke: #2e8b57; stroke-width: 2.2"/>
   </g>
   <g id="patch_3">
    <path d="M 37.726562 260.248437 
L 37.726562 21.198437 
" style="fill: none; stroke: #000000; stroke-width: 0.8; stroke-linejoin: miter; stroke-linecap: square"/>
   </g>
   <g id="patch_4">
    <path d="M 588.392188 260.248437 
L 588.392188 21.198437 
" style="fill: none; stroke: #000000; stroke-width: 0.8; stroke-linejoin: miter; stroke-linecap: square"/>
   </g>
   <g id="patch_5">
    <path d="M 37.726562 260.248437 
L 588.392188 260.248437 
" style="fill: none; stroke: #000000; stroke-width: 0.8; stroke-linejoin: miter; stroke-linecap: square"/>
   </g>
   <g id="patch_6">
    <path d="M 37.726562 21.198437 
L 588.392188 21.198437 
" style="fill: none; stroke: #000000; stroke-width: 0.8; stroke-linejoin: miter; stroke-linecap: square"/>
   </g>
   <g id="patch_7">
    <path d="M 213.537149 79.984393 
Q 190.480662 105.373755 168.175803 129.935438 
" style="fill: none; stroke: #1f4e79; stroke-linecap: round"/>
    <path d="M 171.720056 128.561293 
L 168.175803 129.935438 
L 169.203039 126.275549 
" style="fill: none; stroke: #1f4e79; stroke-linecap: round"/>
   </g>
   <g id="text_17">
    <!-- $Q_{A,max} \approx 18$ L/s -->
    <g style="fill: #1f4e79" transform="translate(189.021598 74.37971) scale(0.085 -0.085)">
     <defs>
      <path id="DejaVuSans-Oblique-51" d="M 2309 -84 
Q 2275 -88 2237 -89 
Q 2200 -91 2125 -91 
Q 1250 -91 756 411 
Q 263 913 263 1797 
Q 263 2319 452 2844 
Q 641 3369 978 3788 
Q 1369 4269 1858 4509 
Q 2347 4750 2938 4750 
Q 3794 4750 4287 4245 
Q 4781 3741 4781 2869 
Q 4781 1928 4265 1147 
Q 3750 366 2919 44 
L 3553 -825 
L 2847 -825 
L 2309 -84 
z
M 2919 4238 
Q 2400 4238 2003 3986 
Q 1606 3734 1313 3219 
Q 1125 2891 1026 2522 
Q 928 2153 928 1778 
Q 928 1128 1239 775 
Q 1550 422 2119 422 
Q 2631 422 3032 676 
Q 3434 931 3719 1434 
Q 3909 1772 4009 2142 
Q 4109 2513 4109 2881 
Q 4109 3528 3796 3883 
Q 3484 4238 2919 4238 
z
" transform="scale(0.015625)"/>
      <path id="DejaVuSans-Oblique-41" d="M 2356 4666 
L 3072 4666 
L 3938 0 
L 3278 0 
L 3084 1197 
L 984 1197 
L 325 0 
L -341 0 
L 2356 4666 
z
M 2584 4044 
L 1275 1722 
L 2988 1722 
L 2584 4044 
z
" transform="scale(0.015625)"/>
      <path id="DejaVuSans-2c" d="M 750 794 
L 1409 794 
L 1409 256 
L 897 -744 
L 494 -744 
L 750 256 
L 750 794 
z
" transform="scale(0.015625)"/>
      <path id="DejaVuSans-Oblique-6d" d="M 5747 2113 
L 5338 0 
L 4763 0 
L 5166 2094 
Q 5191 2228 5203 2325 
Q 5216 2422 5216 2491 
Q 5216 2772 5059 2928 
Q 4903 3084 4622 3084 
Q 4203 3084 3875 2770 
Q 3547 2456 3450 1953 
L 3066 0 
L 2491 0 
L 2900 2094 
Q 2925 2209 2937 2307 
Q 2950 2406 2950 2484 
Q 2950 2769 2794 2926 
Q 2638 3084 2363 3084 
Q 1938 3084 1609 2770 
Q 1281 2456 1184 1953 
L 800 0 
L 225 0 
L 909 3500 
L 1484 3500 
L 1375 2956 
Q 1609 3263 1923 3423 
Q 2238 3584 2597 3584 
Q 2978 3584 3223 3384 
Q 3469 3184 3519 2828 
Q 3781 3197 4126 3390 
Q 4472 3584 4856 3584 
Q 5306 3584 5551 3325 
Q 5797 3066 5797 2591 
Q 5797 2488 5784 2364 
Q 5772 2241 5747 2113 
z
" transform="scale(0.015625)"/>
      <path id="DejaVuSans-Oblique-61" d="M 3438 1997 
L 3047 0 
L 2472 0 
L 2578 531 
Q 2325 219 2001 64 
Q 1678 -91 1281 -91 
Q 834 -91 548 182 
Q 263 456 263 884 
Q 263 1497 752 1853 
Q 1241 2209 2100 2209 
L 2900 2209 
L 2931 2363 
Q 2938 2388 2941 2417 
Q 2944 2447 2944 2509 
Q 2944 2788 2717 2942 
Q 2491 3097 2081 3097 
Q 1800 3097 1504 3025 
Q 1209 2953 897 2809 
L 997 3341 
Q 1322 3463 1633 3523 
Q 1944 3584 2234 3584 
Q 2853 3584 3176 3315 
Q 3500 3047 3500 2534 
Q 3500 2431 3484 2292 
Q 3469 2153 3438 1997 
z
M 2816 1759 
L 2241 1759 
Q 1534 1759 1195 1570 
Q 856 1381 856 984 
Q 856 709 1029 553 
Q 1203 397 1509 397 
Q 1978 397 2328 733 
Q 2678 1069 2791 1631 
L 2816 1759 
z
" transform="scale(0.015625)"/>
      <path id="DejaVuSans-Oblique-78" d="M 3841 3500 
L 2234 1784 
L 3219 0 
L 2559 0 
L 1819 1388 
L 531 0 
L -166 0 
L 1556 1844 
L 641 3500 
L 1300 3500 
L 1972 2234 
L 3144 3500 
L 3841 3500 
z
" transform="scale(0.015625)"/>
      <path id="DejaVuSans-2248" d="M 4684 1947 
L 4684 1388 
Q 4356 1144 4076 1036 
Q 3797 928 3494 928 
Q 3150 928 2694 1113 
Q 2663 1125 2641 1134 
Q 2622 1141 2575 1159 
Q 2091 1350 1797 1350 
Q 1522 1350 1253 1231 
Q 984 1113 678 850 
L 678 1409 
Q 1006 1653 1286 1761 
Q 1566 1869 1869 1869 
Q 2213 1869 2672 1684 
Q 2706 1669 2722 1663 
Q 2741 1656 2788 1638 
Q 3272 1447 3566 1447 
Q 3834 1447 4098 1564 
Q 4363 1681 4684 1947 
z
M 4684 3163 
L 4684 2606 
Q 4356 2359 4076 2251 
Q 3797 2144 3494 2144 
Q 3150 2144 2694 2328 
Q 2663 2341 2641 2350 
Q 2622 2356 2575 2375 
Q 2091 2566 1797 2566 
Q 1522 2566 1253 2447 
Q 984 2328 678 2069 
L 678 2625 
Q 1006 2869 1286 2976 
Q 1566 3084 1869 3084 
Q 2213 3084 2672 2900 
Q 2703 2888 2719 2881 
Q 2741 2872 2788 2853 
Q 3272 2663 3566 2663 
Q 3834 2663 4098 2780 
Q 4363 2897 4684 3163 
z
" transform="scale(0.015625)"/>
     </defs>
     <use xlink:href="#DejaVuSans-Oblique-51" transform="translate(0 0.78125)"/>
     <use xlink:href="#DejaVuSans-Oblique-41" transform="translate(78.710938 -15.625) scale(0.7)"/>
     <use xlink:href="#DejaVuSans-2c" transform="translate(126.59668 -15.625) scale(0.7)"/>
     <use xlink:href="#DejaVuSans-Oblique-6d" transform="translate(162.485352 -15.625) scale(0.7)"/>
     <use xlink:href="#DejaVuSans-Oblique-61" transform="translate(230.673828 -15.625) scale(0.7)"/>
     <use xlink:href="#DejaVuSans-Oblique-78" transform="translate(273.569336 -15.625) scale(0.7)"/>
     <use xlink:href="#DejaVuSans-2248" transform="translate(337.211914 0.78125)"/>
     <use xlink:href="#DejaVuSans-31" transform="translate(440.483398 0.78125)"/>
     <use xlink:href="#DejaVuSans-38" transform="translate(504.106445 0.78125)"/>
     <use xlink:href="#DejaVuSans-20" transform="translate(567.729492 0.78125)"/>
     <use xlink:href="#DejaVuSans-4c" transform="translate(599.516602 0.78125)"/>
     <use xlink:href="#DejaVuSans-2f" transform="translate(655.229492 0.78125)"/>
     <use xlink:href="#DejaVuSans-73" transform="translate(688.920898 0.78125)"/>
    </g>
   </g>
   <g id="patch_8">
    <path d="M 154.260062 148.482881 
Q 129.571086 100.20052 105.391124 52.9136 
" style="fill: none; stroke: #2e8b57; stroke-linecap: round"/>
    <path d="M 105.42547 56.71476 
L 105.391124 52.9136 
L 108.45266 55.16682 
" style="fill: none; stroke: #2e8b57; stroke-linecap: round"/>
   </g>
   <g id="text_18">
    <!-- $Q_{B,max} \approx 29$ L/s -->
    <g style="fill: #2e8b57" transform="translate(126.916452 158.638438) scale(0.085 -0.085)">
     <defs>
      <path id="DejaVuSans-Oblique-42" d="M 1081 4666 
L 2694 4666 
Q 3350 4666 3675 4422 
Q 4000 4178 4000 3688 
Q 4000 3238 3720 2911 
Q 3441 2584 2988 2516 
Q 3375 2428 3569 2181 
Q 3763 1934 3763 1522 
Q 3763 819 3242 409 
Q 2722 0 1819 0 
L 172 0 
L 1081 4666 
z
M 1234 2228 
L 903 519 
L 1919 519 
Q 2491 519 2800 781 
Q 3109 1044 3109 1522 
Q 3109 1891 2904 2059 
Q 2700 2228 2247 2228 
L 1234 2228 
z
M 1606 4147 
L 1331 2741 
L 2272 2741 
Q 2775 2741 3058 2959 
Q 3341 3178 3341 3566 
Q 3341 3869 3150 4008 
Q 2959 4147 2541 4147 
L 1606 4147 
z
" transform="scale(0.015625)"/>
      <path id="DejaVuSans-39" d="M 703 97 
L 703 672 
Q 941 559 1184 500 
Q 1428 441 1663 441 
Q 2288 441 2617 861 
Q 2947 1281 2994 2138 
Q 2813 1869 2534 1725 
Q 2256 1581 1919 1581 
Q 1219 1581 811 2004 
Q 403 2428 403 3163 
Q 403 3881 828 4315 
Q 1253 4750 1959 4750 
Q 2769 4750 3195 4129 
Q 3622 3509 3622 2328 
Q 3622 1225 3098 567 
Q 2575 -91 1691 -91 
Q 1453 -91 1209 -44 
Q 966 3 703 97 
z
M 1959 2075 
Q 2384 2075 2632 2365 
Q 2881 2656 2881 3163 
Q 2881 3666 2632 3958 
Q 2384 4250 1959 4250 
Q 1534 4250 1286 3958 
Q 1038 3666 1038 3163 
Q 1038 2656 1286 2365 
Q 1534 2075 1959 2075 
z
" transform="scale(0.015625)"/>
     </defs>
     <use xlink:href="#DejaVuSans-Oblique-51" transform="translate(0 0.78125)"/>
     <use xlink:href="#DejaVuSans-Oblique-42" transform="translate(78.710938 -15.625) scale(0.7)"/>
     <use xlink:href="#DejaVuSans-2c" transform="translate(126.733398 -15.625) scale(0.7)"/>
     <use xlink:href="#DejaVuSans-Oblique-6d" transform="translate(162.62207 -15.625) scale(0.7)"/>
     <use xlink:href="#DejaVuSans-Oblique-61" transform="translate(230.810547 -15.625) scale(0.7)"/>
     <use xlink:href="#DejaVuSans-Oblique-78" transform="translate(273.706055 -15.625) scale(0.7)"/>
     <use xlink:href="#DejaVuSans-2248" transform="translate(337.348633 0.78125)"/>
     <use xlink:href="#DejaVuSans-32" transform="translate(440.620117 0.78125)"/>
     <use xlink:href="#DejaVuSans-39" transform="translate(502.493164 0.78125)"/>
     <use xlink:href="#DejaVuSans-20" transform="translate(566.116211 0.78125)"/>
     <use xlink:href="#DejaVuSans-4c" transform="translate(597.90332 0.78125)"/>
     <use xlink:href="#DejaVuSans-2f" transform="translate(653.616211 0.78125)"/>
     <use xlink:href="#DejaVuSans-73" transform="translate(687.307617 0.78125)"/>
    </g>
   </g>
   <g id="text_19">
    <!-- Transit vs stockage — Deux comportements limites en événement extrême -->
    <g transform="translate(124.166406 15.198437) scale(0.1 -0.1)">
     <defs>
      <path id="DejaVuSans-72" d="M 2631 2963 
Q 2534 3019 2420 3045 
Q 2306 3072 2169 3072 
Q 1681 3072 1420 2755 
Q 1159 2438 1159 1844 
L 1159 0 
L 581 0 
L 581 3500 
L 1159 3500 
L 1159 2956 
Q 1341 3275 1631 3429 
Q 1922 3584 2338 3584 
Q 2397 3584 2469 3576 
Q 2541 3569 2628 3553 
L 2631 2963 
z
" transform="scale(0.015625)"/>
      <path id="DejaVuSans-61" d="M 2194 1759 
Q 1497 1759 1228 1600 
Q 959 1441 959 1056 
Q 959 750 1161 570 
Q 1363 391 1709 391 
Q 2188 391 2477 730 
Q 2766 1069 2766 1631 
L 2766 1759 
L 2194 1759 
z
M 3341 1997 
L 3341 0 
L 2766 0 
L 2766 531 
Q 2569 213 2275 61 
Q 1981 -91 1556 -91 
Q 1019 -91 701 211 
Q 384 513 384 1019 
Q 384 1609 779 1909 
Q 1175 2209 1959 2209 
L 2766 2209 
L 2766 2266 
Q 2766 2663 2505 2880 
Q 2244 3097 1772 3097 
Q 1472 3097 1187 3025 
Q 903 2953 641 2809 
L 641 3341 
Q 956 3463 1253 3523 
Q 1550 3584 1831 3584 
Q 2591 3584 2966 3190 
Q 3341 2797 3341 1997 
z
" transform="scale(0.015625)"/>
      <path id="DejaVuSans-76" d="M 191 3500 
L 800 3500 
L 1894 563 
L 2988 3500 
L 3597 3500 
L 2284 0 
L 1503 0 
L 191 3500 
z
" transform="scale(0.015625)"/>
      <path id="DejaVuSans-6f" d="M 1959 3097 
Q 1497 3097 1228 2736 
Q 959 2375 959 1747 
Q 959 1119 1226 758 
Q 1494 397 1959 397 
Q 2419 397 2687 759 
Q 2956 1122 2956 1747 
Q 2956 2369 2687 2733 
Q 2419 3097 1959 3097 
z
M 1959 3584 
Q 2709 3584 3137 3096 
Q 3566 2609 3566 1747 
Q 3566 888 3137 398 
Q 2709 -91 1959 -91 
Q 1206 -91 779 398 
Q 353 888 353 1747 
Q 353 2609 779 3096 
Q 1206 3584 1959 3584 
z
" transform="scale(0.015625)"/>
      <path id="DejaVuSans-63" d="M 3122 3366 
L 3122 2828 
Q 2878 2963 2633 3030 
Q 2388 3097 2138 3097 
Q 1578 3097 1268 2742 
Q 959 2388 959 1747 
Q 959 1106 1268 751 
Q 1578 397 2138 397 
Q 2388 397 2633 464 
Q 2878 531 3122 666 
L 3122 134 
Q 2881 22 2623 -34 
Q 2366 -91 2075 -91 
Q 1284 -91 818 406 
Q 353 903 353 1747 
Q 353 2603 823 3093 
Q 1294 3584 2113 3584 
Q 2378 3584 2631 3529 
Q 2884 3475 3122 3366 
z
" transform="scale(0.015625)"/>
      <path id="DejaVuSans-6b" d="M 581 4863 
L 1159 4863 
L 1159 1991 
L 2875 3500 
L 3609 3500 
L 1753 1863 
L 3688 0 
L 2938 0 
L 1159 1709 
L 1159 0 
L 581 0 
L 581 4863 
z
" transform="scale(0.015625)"/>
      <path id="DejaVuSans-67" d="M 2906 1791 
Q 2906 2416 2648 2759 
Q 2391 3103 1925 3103 
Q 1463 3103 1205 2759 
Q 947 2416 947 1791 
Q 947 1169 1205 825 
Q 1463 481 1925 481 
Q 2391 481 2648 825 
Q 2906 1169 2906 1791 
z
M 3481 434 
Q 3481 -459 3084 -895 
Q 2688 -1331 1869 -1331 
Q 1566 -1331 1297 -1286 
Q 1028 -1241 775 -1147 
L 775 -588 
Q 1028 -725 1275 -790 
Q 1522 -856 1778 -856 
Q 2344 -856 2625 -561 
Q 2906 -266 2906 331 
L 2906 616 
Q 2728 306 2450 153 
Q 2172 0 1784 0 
Q 1141 0 747 490 
Q 353 981 353 1791 
Q 353 2603 747 3093 
Q 1141 3584 1784 3584 
Q 2172 3584 2450 3431 
Q 2728 3278 2906 2969 
L 2906 3500 
L 3481 3500 
L 3481 434 
z
" transform="scale(0.015625)"/>
      <path id="DejaVuSans-2014" d="M 313 1978 
L 6088 1978 
L 6088 1528 
L 313 1528 
L 313 1978 
z
" transform="scale(0.015625)"/>
      <path id="DejaVuSans-75" d="M 544 1381 
L 544 3500 
L 1119 3500 
L 1119 1403 
Q 1119 906 1312 657 
Q 1506 409 1894 409 
Q 2359 409 2629 706 
Q 2900 1003 2900 1516 
L 2900 3500 
L 3475 3500 
L 3475 0 
L 2900 0 
L 2900 538 
Q 2691 219 2414 64 
Q 2138 -91 1772 -91 
Q 1169 -91 856 284 
Q 544 659 544 1381 
z
M 1991 3584 
L 1991 3584 
z
" transform="scale(0.015625)"/>
      <path id="DejaVuSans-78" d="M 3513 3500 
L 2247 1797 
L 3578 0 
L 2900 0 
L 1881 1375 
L 863 0 
L 184 0 
L 1544 1831 
L 300 3500 
L 978 3500 
L 1906 2253 
L 2834 3500 
L 3513 3500 
z
" transform="scale(0.015625)"/>
      <path id="DejaVuSans-6c" d="M 603 4863 
L 1178 4863 
L 1178 0 
L 603 0 
L 603 4863 
z
" transform="scale(0.015625)"/>
      <path id="DejaVuSans-ea" d="M 3597 1894 
L 3597 1613 
L 953 1613 
Q 991 1019 1311 708 
Q 1631 397 2203 397 
Q 2534 397 2845 478 
Q 3156 559 3463 722 
L 3463 178 
Q 3153 47 2828 -22 
Q 2503 -91 2169 -91 
Q 1331 -91 842 396 
Q 353 884 353 1716 
Q 353 2575 817 3079 
Q 1281 3584 2069 3584 
Q 2775 3584 3186 3129 
Q 3597 2675 3597 1894 
z
M 3022 2063 
Q 3016 2534 2758 2815 
Q 2500 3097 2075 3097 
Q 1594 3097 1305 2825 
Q 1016 2553 972 2059 
L 3022 2063 
z
M 1801 5119 
L 2263 5119 
L 3029 3944 
L 2595 3944 
L 2032 4709 
L 1470 3944 
L 1035 3944 
L 1801 5119 
z
" transform="scale(0.015625)"/>
     </defs>
     <use xlink:href="#DejaVuSans-54"/>
     <use xlink:href="#DejaVuSans-72" x="46.333984"/>
     <use xlink:href="#DejaVuSans-61" x="87.447266"/>
     <use xlink:href="#DejaVuSans-6e" x="148.726562"/>
     <use xlink:href="#DejaVuSans-73" x="212.105469"/>
     <use xlink:href="#DejaVuSans-69" x="264.205078"/>
     <use xlink:href="#DejaVuSans-74" x="291.988281"/>
     <use xlink:href="#DejaVuSans-20" x="331.197266"/>
     <use xlink:href="#DejaVuSans-76" x="362.984375"/>
     <use xlink:href="#DejaVuSans-73" x="422.164062"/>
     <use xlink:href="#DejaVuSans-20" x="474.263672"/>
     <use xlink:href="#DejaVuSans-73" x="506.050781"/>
     <use xlink:href="#DejaVuSans-74" x="558.150391"/>
     <use xlink:href="#DejaVuSans-6f" x="597.359375"/>
     <use xlink:href="#DejaVuSans-63" x="658.541016"/>
     <use xlink:href="#DejaVuSans-6b" x="713.521484"/>
     <use xlink:href="#DejaVuSans-61" x="769.681641"/>
     <use xlink:href="#DejaVuSans-67" x="830.960938"/>
     <use xlink:href="#DejaVuSans-65" x="894.4375"/>
     <use xlink:href="#DejaVuSans-20" x="955.960938"/>
     <use xlink:href="#DejaVuSans-2014" x="987.748047"/>
     <use xlink:href="#DejaVuSans-20" x="1087.748047"/>
     <use xlink:href="#DejaVuSans-44" x="1119.535156"/>
     <use xlink:href="#DejaVuSans-65" x="1196.537109"/>
     <use xlink:href="#DejaVuSans-75" x="1258.060547"/>
     <use xlink:href="#DejaVuSans-78" x="1321.439453"/>
     <use xlink:href="#DejaVuSans-20" x="1380.619141"/>
     <use xlink:href="#DejaVuSans-63" x="1412.40625"/>
     <use xlink:href="#DejaVuSans-6f" x="1467.386719"/>
     <use xlink:href="#DejaVuSans-6d" x="1528.568359"/>
     <use xlink:href="#DejaVuSans-70" x="1625.980469"/>
     <use xlink:href="#DejaVuSans-6f" x="1689.457031"/>
     <use xlink:href="#DejaVuSans-72" x="1750.638672"/>
     <use xlink:href="#DejaVuSans-74" x="1791.751953"/>
     <use xlink:href="#DejaVuSans-65" x="1830.960938"/>
     <use xlink:href="#DejaVuSans-6d" x="1892.484375"/>
     <use xlink:href="#DejaVuSans-65" x="1989.896484"/>
     <use xlink:href="#DejaVuSans-6e" x="2051.419922"/>
     <use xlink:href="#DejaVuSans-74" x="2114.798828"/>
     <use xlink:href="#DejaVuSans-73" x="2154.007812"/>
     <use xlink:href="#DejaVuSans-20" x="2206.107422"/>
     <use xlink:href="#DejaVuSans-6c" x="2237.894531"/>
     <use xlink:href="#DejaVuSans-69" x="2265.677734"/>
     <use xlink:href="#DejaVuSans-6d" x="2293.460938"/>
     <use xlink:href="#DejaVuSans-69" x="2390.873047"/>
     <use xlink:href="#DejaVuSans-74" x="2418.65625"/>
     <use xlink:href="#DejaVuSans-65" x="2457.865234"/>
     <use xlink:href="#DejaVuSans-73" x="2519.388672"/>
     <use xlink:href="#DejaVuSans-20" x="2571.488281"/>
     <use xlink:href="#DejaVuSans-65" x="2603.275391"/>
     <use xlink:href="#DejaVuSans-6e" x="2664.798828"/>
     <use xlink:href="#DejaVuSans-20" x="2728.177734"/>
     <use xlink:href="#DejaVuSans-e9" x="2759.964844"/>
     <use xlink:href="#DejaVuSans-76" x="2821.488281"/>
     <use xlink:href="#DejaVuSans-e9" x="2880.667969"/>
     <use xlink:href="#DejaVuSans-6e" x="2942.191406"/>
     <use xlink:href="#DejaVuSans-65" x="3005.570312"/>
     <use xlink:href="#DejaVuSans-6d" x="3067.09375"/>
     <use xlink:href="#DejaVuSans-65" x="3164.505859"/>
     <use xlink:href="#DejaVuSans-6e" x="3226.029297"/>
     <use xlink:href="#DejaVuSans-74" x="3289.408203"/>
     <use xlink:href="#DejaVuSans-20" x="3328.617188"/>
     <use xlink:href="#DejaVuSans-65" x="3360.404297"/>
     <use xlink:href="#DejaVuSans-78" x="3420.177734"/>
     <use xlink:href="#DejaVuSans-74" x="3479.357422"/>
     <use xlink:href="#DejaVuSans-72" x="3518.566406"/>
     <use xlink:href="#DejaVuSans-ea" x="3557.429688"/>
     <use xlink:href="#DejaVuSans-6d" x="3618.953125"/>
     <use xlink:href="#DejaVuSans-65" x="3716.365234"/>
    </g>
   </g>
   <g id="legend_1">
    <g id="patch_9">
     <path d="M 333.795938 65.791562 
L 582.442188 65.791562 
Q 584.142188 65.791562 584.142188 64.091562 
L 584.142188 27.148437 
Q 584.142188 25.448437 582.442188 25.448437 
L 333.795938 25.448437 
Q 332.095938 25.448437 332.095938 27.148437 
L 332.095938 64.091562 
Q 332.095938 65.791562 333.795938 65.791562 
z
" style="fill: #ffffff; opacity: 0.8; stroke: #cccccc; stroke-linejoin: miter"/>
    </g>
    <g id="line2d_32">
     <path d="M 335.495938 32.672109 
L 343.995938 32.672109 
L 352.495938 32.672109 
" style="fill: none; stroke-dasharray: 2,3.3; stroke-dashoffset: 0; stroke: #aaaaaa; stroke-width: 2"/>
    </g>
    <g id="text_20">
     <!-- Hydrogramme amont (entrée) -->
     <g transform="translate(359.295938 35.647109) scale(0.085 -0.085)">
      <defs>
       <path id="DejaVuSans-48" d="M 628 4666 
L 1259 4666 
L 1259 2753 
L 3553 2753 
L 3553 4666 
L 4184 4666 
L 4184 0 
L 3553 0 
L 3553 2222 
L 1259 2222 
L 1259 0 
L 628 0 
L 628 4666 
z
" transform="scale(0.015625)"/>
       <path id="DejaVuSans-79" d="M 2059 -325 
Q 1816 -950 1584 -1140 
Q 1353 -1331 966 -1331 
L 506 -1331 
L 506 -850 
L 844 -850 
Q 1081 -850 1212 -737 
Q 1344 -625 1503 -206 
L 1606 56 
L 191 3500 
L 800 3500 
L 1894 763 
L 2988 3500 
L 3597 3500 
L 2059 -325 
z
" transform="scale(0.015625)"/>
       <path id="DejaVuSans-64" d="M 2906 2969 
L 2906 4863 
L 3481 4863 
L 3481 0 
L 2906 0 
L 2906 525 
Q 2725 213 2448 61 
Q 2172 -91 1784 -91 
Q 1150 -91 751 415 
Q 353 922 353 1747 
Q 353 2572 751 3078 
Q 1150 3584 1784 3584 
Q 2172 3584 2448 3432 
Q 2725 3281 2906 2969 
z
M 947 1747 
Q 947 1113 1208 752 
Q 1469 391 1925 391 
Q 2381 391 2643 752 
Q 2906 1113 2906 1747 
Q 2906 2381 2643 2742 
Q 2381 3103 1925 3103 
Q 1469 3103 1208 2742 
Q 947 2381 947 1747 
z
" transform="scale(0.015625)"/>
      </defs>
      <use xlink:href="#DejaVuSans-48"/>
      <use xlink:href="#DejaVuSans-79" x="75.195312"/>
      <use xlink:href="#DejaVuSans-64" x="134.375"/>
      <use xlink:href="#DejaVuSans-72" x="197.851562"/>
      <use xlink:href="#DejaVuSans-6f" x="236.714844"/>
      <use xlink:href="#DejaVuSans-67" x="297.896484"/>
      <use xlink:href="#DejaVuSans-72" x="361.373047"/>
      <use xlink:href="#DejaVuSans-61" x="402.486328"/>
      <use xlink:href="#DejaVuSans-6d" x="463.765625"/>
      <use xlink:href="#DejaVuSans-6d" x="561.177734"/>
      <use xlink:href="#DejaVuSans-65" x="658.589844"/>
      <use xlink:href="#DejaVuSans-20" x="720.113281"/>
      <use xlink:href="#DejaVuSans-61" x="751.900391"/>
      <use xlink:href="#DejaVuSans-6d" x="813.179688"/>
      <use xlink:href="#DejaVuSans-6f" x="910.591797"/>
      <use xlink:href="#DejaVuSans-6e" x="971.773438"/>
      <use xlink:href="#DejaVuSans-74" x="1035.152344"/>
      <use xlink:href="#DejaVuSans-20" x="1074.361328"/>
      <use xlink:href="#DejaVuSans-28" x="1106.148438"/>
      <use xlink:href="#DejaVuSans-65" x="1145.162109"/>
      <use xlink:href="#DejaVuSans-6e" x="1206.685547"/>
      <use xlink:href="#DejaVuSans-74" x="1270.064453"/>
      <use xlink:href="#DejaVuSans-72" x="1309.273438"/>
      <use xlink:href="#DejaVuSans-e9" x="1348.136719"/>
      <use xlink:href="#DejaVuSans-65" x="1409.660156"/>
      <use xlink:href="#DejaVuSans-29" x="1471.183594"/>
     </g>
    </g>
    <g id="line2d_33">
     <path d="M 335.495938 45.160469 
L 343.995938 45.160469 
L 352.495938 45.160469 
" style="fill: none; stroke: #1f4e79; stroke-width: 2.8; stroke-linecap: square"/>
    </g>
    <g id="text_21">
     <!-- Collecteur A — grand Ø, faible pente (fort stockage) -->
     <g transform="translate(359.295938 48.135469) scale(0.085 -0.085)">
      <defs>
       <path id="DejaVuSans-43" d="M 4122 4306 
L 4122 3641 
Q 3803 3938 3442 4084 
Q 3081 4231 2675 4231 
Q 1875 4231 1450 3742 
Q 1025 3253 1025 2328 
Q 1025 1406 1450 917 
Q 1875 428 2675 428 
Q 3081 428 3442 575 
Q 3803 722 4122 1019 
L 4122 359 
Q 3791 134 3420 21 
Q 3050 -91 2638 -91 
Q 1578 -91 968 557 
Q 359 1206 359 2328 
Q 359 3453 968 4101 
Q 1578 4750 2638 4750 
Q 3056 4750 3426 4639 
Q 3797 4528 4122 4306 
z
" transform="scale(0.015625)"/>
       <path id="DejaVuSans-41" d="M 2188 4044 
L 1331 1722 
L 3047 1722 
L 2188 4044 
z
M 1831 4666 
L 2547 4666 
L 4325 0 
L 3669 0 
L 3244 1197 
L 1141 1197 
L 716 0 
L 50 0 
L 1831 4666 
z
" transform="scale(0.015625)"/>
       <path id="DejaVuSans-d8" d="M 3769 3475 
L 1528 831 
Q 1722 631 1973 526 
Q 2225 422 2522 422 
Q 3209 422 3611 934 
Q 4013 1447 4013 2328 
Q 4013 2678 3952 2965 
Q 3891 3253 3769 3475 
z
M 3513 3828 
Q 3322 4028 3070 4133 
Q 2819 4238 2522 4238 
Q 1834 4238 1429 3725 
Q 1025 3213 1025 2328 
Q 1025 1978 1086 1684 
Q 1147 1391 1269 1178 
L 3513 3828 
z
M 850 684 
Q 606 1003 482 1415 
Q 359 1828 359 2328 
Q 359 3434 948 4092 
Q 1538 4750 2522 4750 
Q 2928 4750 3273 4629 
Q 3619 4509 3891 4275 
L 4397 4872 
L 4716 4594 
L 4184 3975 
Q 4428 3653 4553 3237 
Q 4678 2822 4678 2328 
Q 4678 1225 4090 567 
Q 3503 -91 2522 -91 
Q 2122 -91 1776 26 
Q 1431 144 1147 378 
L 641 -219 
L 319 56 
L 850 684 
z
" transform="scale(0.015625)"/>
       <path id="DejaVuSans-66" d="M 2375 4863 
L 2375 4384 
L 1825 4384 
Q 1516 4384 1395 4259 
Q 1275 4134 1275 3809 
L 1275 3500 
L 2222 3500 
L 2222 3053 
L 1275 3053 
L 1275 0 
L 697 0 
L 697 3053 
L 147 3053 
L 147 3500 
L 697 3500 
L 697 3744 
Q 697 4328 969 4595 
Q 1241 4863 1831 4863 
L 2375 4863 
z
" transform="scale(0.015625)"/>
      </defs>
      <use xlink:href="#DejaVuSans-43"/>
      <use xlink:href="#DejaVuSans-6f" x="69.824219"/>
      <use xlink:href="#DejaVuSans-6c" x="131.005859"/>
      <use xlink:href="#DejaVuSans-6c" x="158.789062"/>
      <use xlink:href="#DejaVuSans-65" x="186.572266"/>
      <use xlink:href="#DejaVuSans-63" x="248.095703"/>
      <use xlink:href="#DejaVuSans-74" x="303.076172"/>
      <use xlink:href="#DejaVuSans-65" x="342.285156"/>
      <use xlink:href="#DejaVuSans-75" x="403.808594"/>
      <use xlink:href="#DejaVuSans-72" x="467.1875"/>
      <use xlink:href="#DejaVuSans-20" x="508.300781"/>
      <use xlink:href="#DejaVuSans-41" x="540.087891"/>
      <use xlink:href="#DejaVuSans-20" x="608.496094"/>
      <use xlink:href="#DejaVuSans-2014" x="640.283203"/>
      <use xlink:href="#DejaVuSans-20" x="740.283203"/>
      <use xlink:href="#DejaVuSans-67" x="772.070312"/>
      <use xlink:href="#DejaVuSans-72" x="835.546875"/>
      <use xlink:href="#DejaVuSans-61" x="876.660156"/>
      <use xlink:href="#DejaVuSans-6e" x="937.939453"/>
      <use xlink:href="#DejaVuSans-64" x="1001.318359"/>
      <use xlink:href="#DejaVuSans-20" x="1064.794922"/>
      <use xlink:href="#DejaVuSans-d8" x="1096.582031"/>
      <use xlink:href="#DejaVuSans-2c" x="1175.292969"/>
      <use xlink:href="#DejaVuSans-20" x="1207.080078"/>
      <use xlink:href="#DejaVuSans-66" x="1238.867188"/>
      <use xlink:href="#DejaVuSans-61" x="1274.072266"/>
      <use xlink:href="#DejaVuSans-69" x="1335.351562"/>
      <use xlink:href="#DejaVuSans-62" x="1363.134766"/>
      <use xlink:href="#DejaVuSans-6c" x="1426.611328"/>
      <use xlink:href="#DejaVuSans-65" x="1454.394531"/>
      <use xlink:href="#DejaVuSans-20" x="1515.917969"/>
      <use xlink:href="#DejaVuSans-70" x="1547.705078"/>
      <use xlink:href="#DejaVuSans-65" x="1611.181641"/>
      <use xlink:href="#DejaVuSans-6e" x="1672.705078"/>
      <use xlink:href="#DejaVuSans-74" x="1736.083984"/>
      <use xlink:href="#DejaVuSans-65" x="1775.292969"/>
      <use xlink:href="#DejaVuSans-20" x="1836.816406"/>
      <use xlink:href="#DejaVuSans-28" x="1868.603516"/>
      <use xlink:href="#DejaVuSans-66" x="1907.617188"/>
      <use xlink:href="#DejaVuSans-6f" x="1942.822266"/>
      <use xlink:href="#DejaVuSans-72" x="2004.003906"/>
      <use xlink:href="#DejaVuSans-74" x="2045.117188"/>
      <use xlink:href="#DejaVuSans-20" x="2084.326172"/>
      <use xlink:href="#DejaVuSans-73" x="2116.113281"/>
      <use xlink:href="#DejaVuSans-74" x="2168.212891"/>
      <use xlink:href="#DejaVuSans-6f" x="2207.421875"/>
      <use xlink:href="#DejaVuSans-63" x="2268.603516"/>
      <use xlink:href="#DejaVuSans-6b" x="2323.583984"/>
      <use xlink:href="#DejaVuSans-61" x="2379.744141"/>
      <use xlink:href="#DejaVuSans-67" x="2441.023438"/>
      <use xlink:href="#DejaVuSans-65" x="2504.5"/>
      <use xlink:href="#DejaVuSans-29" x="2566.023438"/>
     </g>
    </g>
    <g id="line2d_34">
     <path d="M 335.495938 57.648828 
L 343.995938 57.648828 
L 352.495938 57.648828 
" style="fill: none; stroke-dasharray: 8.14,3.52; stroke-dashoffset: 0; stroke: #2e8b57; stroke-width: 2.2"/>
    </g>
    <g id="text_22">
     <!-- Collecteur B — petit Ø, forte pente (faible stockage) -->
     <g transform="translate(359.295938 60.623828) scale(0.085 -0.085)">
      <defs>
       <path id="DejaVuSans-42" d="M 1259 2228 
L 1259 519 
L 2272 519 
Q 2781 519 3026 730 
Q 3272 941 3272 1375 
Q 3272 1813 3026 2020 
Q 2781 2228 2272 2228 
L 1259 2228 
z
M 1259 4147 
L 1259 2741 
L 2194 2741 
Q 2656 2741 2882 2914 
Q 3109 3088 3109 3444 
Q 3109 3797 2882 3972 
Q 2656 4147 2194 4147 
L 1259 4147 
z
M 628 4666 
L 2241 4666 
Q 2963 4666 3353 4366 
Q 3744 4066 3744 3513 
Q 3744 3084 3544 2831 
Q 3344 2578 2956 2516 
Q 3422 2416 3680 2098 
Q 3938 1781 3938 1306 
Q 3938 681 3513 340 
Q 3088 0 2303 0 
L 628 0 
L 628 4666 
z
" transform="scale(0.015625)"/>
      </defs>
      <use xlink:href="#DejaVuSans-43"/>
      <use xlink:href="#DejaVuSans-6f" x="69.824219"/>
      <use xlink:href="#DejaVuSans-6c" x="131.005859"/>
      <use xlink:href="#DejaVuSans-6c" x="158.789062"/>
      <use xlink:href="#DejaVuSans-65" x="186.572266"/>
      <use xlink:href="#DejaVuSans-63" x="248.095703"/>
      <use xlink:href="#DejaVuSans-74" x="303.076172"/>
      <use xlink:href="#DejaVuSans-65" x="342.285156"/>
      <use xlink:href="#DejaVuSans-75" x="403.808594"/>
      <use xlink:href="#DejaVuSans-72" x="467.1875"/>
      <use xlink:href="#DejaVuSans-20" x="508.300781"/>
      <use xlink:href="#DejaVuSans-42" x="540.087891"/>
      <use xlink:href="#DejaVuSans-20" x="608.691406"/>
      <use xlink:href="#DejaVuSans-2014" x="640.478516"/>
      <use xlink:href="#DejaVuSans-20" x="740.478516"/>
      <use xlink:href="#DejaVuSans-70" x="772.265625"/>
      <use xlink:href="#DejaVuSans-65" x="835.742188"/>
      <use xlink:href="#DejaVuSans-74" x="897.265625"/>
      <use xlink:href="#DejaVuSans-69" x="936.474609"/>
      <use xlink:href="#DejaVuSans-74" x="964.257812"/>
      <use xlink:href="#DejaVuSans-20" x="1003.466797"/>
      <use xlink:href="#DejaVuSans-d8" x="1035.253906"/>
      <use xlink:href="#DejaVuSans-2c" x="1113.964844"/>
      <use xlink:href="#DejaVuSans-20" x="1145.751953"/>
      <use xlink:href="#DejaVuSans-66" x="1177.539062"/>
      <use xlink:href="#DejaVuSans-6f" x="1212.744141"/>
      <use xlink:href="#DejaVuSans-72" x="1273.925781"/>
      <use xlink:href="#DejaVuSans-74" x="1315.039062"/>
      <use xlink:href="#DejaVuSans-65" x="1354.248047"/>
      <use xlink:href="#DejaVuSans-20" x="1415.771484"/>
      <use xlink:href="#DejaVuSans-70" x="1447.558594"/>
      <use xlink:href="#DejaVuSans-65" x="1511.035156"/>
      <use xlink:href="#DejaVuSans-6e" x="1572.558594"/>
      <use xlink:href="#DejaVuSans-74" x="1635.9375"/>
      <use xlink:href="#DejaVuSans-65" x="1675.146484"/>
      <use xlink:href="#DejaVuSans-20" x="1736.669922"/>
      <use xlink:href="#DejaVuSans-28" x="1768.457031"/>
      <use xlink:href="#DejaVuSans-66" x="1807.470703"/>
      <use xlink:href="#DejaVuSans-61" x="1842.675781"/>
      <use xlink:href="#DejaVuSans-69" x="1903.955078"/>
      <use xlink:href="#DejaVuSans-62" x="1931.738281"/>
      <use xlink:href="#DejaVuSans-6c" x="1995.214844"/>
      <use xlink:href="#DejaVuSans-65" x="2022.998047"/>
      <use xlink:href="#DejaVuSans-20" x="2084.521484"/>
      <use xlink:href="#DejaVuSans-73" x="2116.308594"/>
      <use xlink:href="#DejaVuSans-74" x="2168.408203"/>
      <use xlink:href="#DejaVuSans-6f" x="2207.617188"/>
      <use xlink:href="#DejaVuSans-63" x="2268.798828"/>
      <use xlink:href="#DejaVuSans-6b" x="2323.779297"/>
      <use xlink:href="#DejaVuSans-61" x="2379.939453"/>
      <use xlink:href="#DejaVuSans-67" x="2441.21875"/>
      <use xlink:href="#DejaVuSans-65" x="2504.695312"/>
      <use xlink:href="#DejaVuSans-29" x="2566.21875"/>
     </g>
    </g>
   </g>
  </g>
 </g>
 <defs>
  <clipPath id="pbab169f440">
   <rect x="37.726562" y="21.198437" width="550.665625" height="239.05"/>
  </clipPath>
 </defs>
</svg>
