<?xml version="1.0" encoding="utf-8" standalone="no"?>
<!DOCTYPE svg PUBLIC "-//W3C//DTD SVG 1.1//EN"
  "http://www.w3.org/Graphics/SVG/1.1/DTD/svg11.dtd">
<svg xmlns:xlink="http://www.w3.org/1999/xlink" width="567.654844pt" height="280.945156pt" viewBox="0 0 567.654844 280.945156" xmlns="http://www.w3.org/2000/svg" version="1.1">
 <metadata>
  <rdf:RDF xmlns:dc="http://purl.org/dc/elements/1.1/" xmlns:cc="http://creativecommons.org/ns#" xmlns:rdf="http://www.w3.org/1999/02/22-rdf-syntax-ns#">
   <cc:Work>
    <dc:type rdf:resource="http://purl.org/dc/dcmitype/StillImage"/>
    <dc:date>2026-05-25T18:26:28.221366</dc:date>
    <dc:format>image/svg+xml</dc:format>
    <dc:creator>
     <cc:Agent>
      <dc:title>Matplotlib v3.9.2, https://matplotlib.org/</dc:title>
     </cc:Agent>
    </dc:creator>
   </cc:Work>
  </rdf:RDF>
 </metadata>
 <defs>
  <style type="text/css">*{stroke-linejoin: round; stroke-linecap: butt}</style>
 </defs>
 <g id="figure_1">
  <g id="patch_1">
   <path d="M 0 280.945156 
L 567.654844 280.945156 
L 567.654844 0 
L 0 0 
z
" style="fill: #ffffff"/>
  </g>
  <g id="axes_1">
   <g id="patch_2">
    <path d="M 40.427969 245.448437 
L 555.046719 245.448437 
L 555.046719 20.798437 
L 40.427969 20.798437 
z
" style="fill: #ffffff"/>
   </g>
   <g id="matplotlib.axis_1">
    <g id="xtick_1">
     <g id="line2d_1">
      <path d="M 40.427969 245.448437 
L 40.427969 20.798437 
" clip-path="url(#paea6a9408c)" style="fill: none; stroke: #b0b0b0; stroke-opacity: 0.2; stroke-width: 0.8; stroke-linecap: square"/>
     </g>
     <g id="line2d_2">
      <defs>
       <path id="mccbff4544c" d="M 0 0 
L 0 3.5 
" style="stroke: #000000; stroke-width: 0.8"/>
      </defs>
      <g>
       <use xlink:href="#mccbff4544c" x="40.427969" y="245.448437" style="stroke: #000000; stroke-width: 0.8"/>
      </g>
     </g>
     <g id="text_1">
      <!-- 0 -->
      <g transform="translate(37.723906 258.907109) scale(0.085 -0.085)">
       <defs>
        <path id="DejaVuSans-30" d="M 2034 4250 
Q 1547 4250 1301 3770 
Q 1056 3291 1056 2328 
Q 1056 1369 1301 889 
Q 1547 409 2034 409 
Q 2525 409 2770 889 
Q 3016 1369 3016 2328 
Q 3016 3291 2770 3770 
Q 2525 4250 2034 4250 
z
M 2034 4750 
Q 2819 4750 3233 4129 
Q 3647 3509 3647 2328 
Q 3647 1150 3233 529 
Q 2819 -91 2034 -91 
Q 1250 -91 836 529 
Q 422 1150 422 2328 
Q 422 3509 836 4129 
Q 1250 4750 2034 4750 
z
" transform="scale(0.015625)"/>
       </defs>
       <use xlink:href="#DejaVuSans-30"/>
      </g>
     </g>
    </g>
    <g id="xtick_2">
     <g id="line2d_3">
      <path d="M 143.351719 245.448437 
L 143.351719 20.798437 
" clip-path="url(#paea6a9408c)" style="fill: none; stroke: #b0b0b0; stroke-opacity: 0.2; stroke-width: 0.8; stroke-linecap: square"/>
     </g>
     <g id="line2d_4">
      <g>
       <use xlink:href="#mccbff4544c" x="143.351719" y="245.448437" style="stroke: #000000; stroke-width: 0.8"/>
      </g>
     </g>
     <g id="text_2">
      <!-- 2 -->
      <g transform="translate(140.647656 258.907109) scale(0.085 -0.085)">
       <defs>
        <path id="DejaVuSans-32" d="M 1228 531 
L 3431 531 
L 3431 0 
L 469 0 
L 469 531 
Q 828 903 1448 1529 
Q 2069 2156 2228 2338 
Q 2531 2678 2651 2914 
Q 2772 3150 2772 3378 
Q 2772 3750 2511 3984 
Q 2250 4219 1831 4219 
Q 1534 4219 1204 4116 
Q 875 4013 500 3803 
L 500 4441 
Q 881 4594 1212 4672 
Q 1544 4750 1819 4750 
Q 2544 4750 2975 4387 
Q 3406 4025 3406 3419 
Q 3406 3131 3298 2873 
Q 3191 2616 2906 2266 
Q 2828 2175 2409 1742 
Q 1991 1309 1228 531 
z
" transform="scale(0.015625)"/>
       </defs>
       <use xlink:href="#DejaVuSans-32"/>
      </g>
     </g>
    </g>
    <g id="xtick_3">
     <g id="line2d_5">
      <path d="M 246.275469 245.448437 
L 246.275469 20.798437 
" clip-path="url(#paea6a9408c)" style="fill: none; stroke: #b0b0b0; stroke-opacity: 0.2; stroke-width: 0.8; stroke-linecap: square"/>
     </g>
     <g id="line2d_6">
      <g>
       <use xlink:href="#mccbff4544c" x="246.275469" y="245.448437" style="stroke: #000000; stroke-width: 0.8"/>
      </g>
     </g>
     <g id="text_3">
      <!-- 4 -->
      <g transform="translate(243.571406 258.907109) scale(0.085 -0.085)">
       <defs>
        <path id="DejaVuSans-34" d="M 2419 4116 
L 825 1625 
L 2419 1625 
L 2419 4116 
z
M 2253 4666 
L 3047 4666 
L 3047 1625 
L 3713 1625 
L 3713 1100 
L 3047 1100 
L 3047 0 
L 2419 0 
L 2419 1100 
L 313 1100 
L 313 1709 
L 2253 4666 
z
" transform="scale(0.015625)"/>
       </defs>
       <use xlink:href="#DejaVuSans-34"/>
      </g>
     </g>
    </g>
    <g id="xtick_4">
     <g id="line2d_7">
      <path d="M 349.199219 245.448437 
L 349.199219 20.798437 
" clip-path="url(#paea6a9408c)" style="fill: none; stroke: #b0b0b0; stroke-opacity: 0.2; stroke-width: 0.8; stroke-linecap: square"/>
     </g>
     <g id="line2d_8">
      <g>
       <use xlink:href="#mccbff4544c" x="349.199219" y="245.448437" style="stroke: #000000; stroke-width: 0.8"/>
      </g>
     </g>
     <g id="text_4">
      <!-- 6 -->
      <g transform="translate(346.495156 258.907109) scale(0.085 -0.085)">
       <defs>
        <path id="DejaVuSans-36" d="M 2113 2584 
Q 1688 2584 1439 2293 
Q 1191 2003 1191 1497 
Q 1191 994 1439 701 
Q 1688 409 2113 409 
Q 2538 409 2786 701 
Q 3034 994 3034 1497 
Q 3034 2003 2786 2293 
Q 2538 2584 2113 2584 
z
M 3366 4563 
L 3366 3988 
Q 3128 4100 2886 4159 
Q 2644 4219 2406 4219 
Q 1781 4219 1451 3797 
Q 1122 3375 1075 2522 
Q 1259 2794 1537 2939 
Q 1816 3084 2150 3084 
Q 2853 3084 3261 2657 
Q 3669 2231 3669 1497 
Q 3669 778 3244 343 
Q 2819 -91 2113 -91 
Q 1303 -91 875 529 
Q 447 1150 447 2328 
Q 447 3434 972 4092 
Q 1497 4750 2381 4750 
Q 2619 4750 2861 4703 
Q 3103 4656 3366 4563 
z
" transform="scale(0.015625)"/>
       </defs>
       <use xlink:href="#DejaVuSans-36"/>
      </g>
     </g>
    </g>
    <g id="xtick_5">
     <g id="line2d_9">
      <path d="M 452.122969 245.448437 
L 452.122969 20.798437 
" clip-path="url(#paea6a9408c)" style="fill: none; stroke: #b0b0b0; stroke-opacity: 0.2; stroke-width: 0.8; stroke-linecap: square"/>
     </g>
     <g id="line2d_10">
      <g>
       <use xlink:href="#mccbff4544c" x="452.122969" y="245.448437" style="stroke: #000000; stroke-width: 0.8"/>
      </g>
     </g>
     <g id="text_5">
      <!-- 8 -->
      <g transform="translate(449.418906 258.907109) scale(0.085 -0.085)">
       <defs>
        <path id="DejaVuSans-38" d="M 2034 2216 
Q 1584 2216 1326 1975 
Q 1069 1734 1069 1313 
Q 1069 891 1326 650 
Q 1584 409 2034 409 
Q 2484 409 2743 651 
Q 3003 894 3003 1313 
Q 3003 1734 2745 1975 
Q 2488 2216 2034 2216 
z
M 1403 2484 
Q 997 2584 770 2862 
Q 544 3141 544 3541 
Q 544 4100 942 4425 
Q 1341 4750 2034 4750 
Q 2731 4750 3128 4425 
Q 3525 4100 3525 3541 
Q 3525 3141 3298 2862 
Q 3072 2584 2669 2484 
Q 3125 2378 3379 2068 
Q 3634 1759 3634 1313 
Q 3634 634 3220 271 
Q 2806 -91 2034 -91 
Q 1263 -91 848 271 
Q 434 634 434 1313 
Q 434 1759 690 2068 
Q 947 2378 1403 2484 
z
M 1172 3481 
Q 1172 3119 1398 2916 
Q 1625 2713 2034 2713 
Q 2441 2713 2670 2916 
Q 2900 3119 2900 3481 
Q 2900 3844 2670 4047 
Q 2441 4250 2034 4250 
Q 1625 4250 1398 4047 
Q 1172 3844 1172 3481 
z
" transform="scale(0.015625)"/>
       </defs>
       <use xlink:href="#DejaVuSans-38"/>
      </g>
     </g>
    </g>
    <g id="xtick_6">
     <g id="line2d_11">
      <path d="M 555.046719 245.448437 
L 555.046719 20.798437 
" clip-path="url(#paea6a9408c)" style="fill: none; stroke: #b0b0b0; stroke-opacity: 0.2; stroke-width: 0.8; stroke-linecap: square"/>
     </g>
     <g id="line2d_12">
      <g>
       <use xlink:href="#mccbff4544c" x="555.046719" y="245.448437" style="stroke: #000000; stroke-width: 0.8"/>
      </g>
     </g>
     <g id="text_6">
      <!-- 10 -->
      <g transform="translate(549.638594 258.907109) scale(0.085 -0.085)">
       <defs>
        <path id="DejaVuSans-31" d="M 794 531 
L 1825 531 
L 1825 4091 
L 703 3866 
L 703 4441 
L 1819 4666 
L 2450 4666 
L 2450 531 
L 3481 531 
L 3481 0 
L 794 0 
L 794 531 
z
" transform="scale(0.015625)"/>
       </defs>
       <use xlink:href="#DejaVuSans-31"/>
       <use xlink:href="#DejaVuSans-30" x="63.623047"/>
      </g>
     </g>
    </g>
    <g id="text_7">
     <!-- Temps (h, normalisé) -->
     <g transform="translate(250.616016 271.873437) scale(0.09 -0.09)">
      <defs>
       <path id="DejaVuSans-54" d="M -19 4666 
L 3928 4666 
L 3928 4134 
L 2272 4134 
L 2272 0 
L 1638 0 
L 1638 4134 
L -19 4134 
L -19 4666 
z
" transform="scale(0.015625)"/>
       <path id="DejaVuSans-65" d="M 3597 1894 
L 3597 1613 
L 953 1613 
Q 991 1019 1311 708 
Q 1631 397 2203 397 
Q 2534 397 2845 478 
Q 3156 559 3463 722 
L 3463 178 
Q 3153 47 2828 -22 
Q 2503 -91 2169 -91 
Q 1331 -91 842 396 
Q 353 884 353 1716 
Q 353 2575 817 3079 
Q 1281 3584 2069 3584 
Q 2775 3584 3186 3129 
Q 3597 2675 3597 1894 
z
M 3022 2063 
Q 3016 2534 2758 2815 
Q 2500 3097 2075 3097 
Q 1594 3097 1305 2825 
Q 1016 2553 972 2059 
L 3022 2063 
z
" transform="scale(0.015625)"/>
       <path id="DejaVuSans-6d" d="M 3328 2828 
Q 3544 3216 3844 3400 
Q 4144 3584 4550 3584 
Q 5097 3584 5394 3201 
Q 5691 2819 5691 2113 
L 5691 0 
L 5113 0 
L 5113 2094 
Q 5113 2597 4934 2840 
Q 4756 3084 4391 3084 
Q 3944 3084 3684 2787 
Q 3425 2491 3425 1978 
L 3425 0 
L 2847 0 
L 2847 2094 
Q 2847 2600 2669 2842 
Q 2491 3084 2119 3084 
Q 1678 3084 1418 2786 
Q 1159 2488 1159 1978 
L 1159 0 
L 581 0 
L 581 3500 
L 1159 3500 
L 1159 2956 
Q 1356 3278 1631 3431 
Q 1906 3584 2284 3584 
Q 2666 3584 2933 3390 
Q 3200 3197 3328 2828 
z
" transform="scale(0.015625)"/>
       <path id="DejaVuSans-70" d="M 1159 525 
L 1159 -1331 
L 581 -1331 
L 581 3500 
L 1159 3500 
L 1159 2969 
Q 1341 3281 1617 3432 
Q 1894 3584 2278 3584 
Q 2916 3584 3314 3078 
Q 3713 2572 3713 1747 
Q 3713 922 3314 415 
Q 2916 -91 2278 -91 
Q 1894 -91 1617 61 
Q 1341 213 1159 525 
z
M 3116 1747 
Q 3116 2381 2855 2742 
Q 2594 3103 2138 3103 
Q 1681 3103 1420 2742 
Q 1159 2381 1159 1747 
Q 1159 1113 1420 752 
Q 1681 391 2138 391 
Q 2594 391 2855 752 
Q 3116 1113 3116 1747 
z
" transform="scale(0.015625)"/>
       <path id="DejaVuSans-73" d="M 2834 3397 
L 2834 2853 
Q 2591 2978 2328 3040 
Q 2066 3103 1784 3103 
Q 1356 3103 1142 2972 
Q 928 2841 928 2578 
Q 928 2378 1081 2264 
Q 1234 2150 1697 2047 
L 1894 2003 
Q 2506 1872 2764 1633 
Q 3022 1394 3022 966 
Q 3022 478 2636 193 
Q 2250 -91 1575 -91 
Q 1294 -91 989 -36 
Q 684 19 347 128 
L 347 722 
Q 666 556 975 473 
Q 1284 391 1588 391 
Q 1994 391 2212 530 
Q 2431 669 2431 922 
Q 2431 1156 2273 1281 
Q 2116 1406 1581 1522 
L 1381 1569 
Q 847 1681 609 1914 
Q 372 2147 372 2553 
Q 372 3047 722 3315 
Q 1072 3584 1716 3584 
Q 2034 3584 2315 3537 
Q 2597 3491 2834 3397 
z
" transform="scale(0.015625)"/>
       <path id="DejaVuSans-20" transform="scale(0.015625)"/>
       <path id="DejaVuSans-28" d="M 1984 4856 
Q 1566 4138 1362 3434 
Q 1159 2731 1159 2009 
Q 1159 1288 1364 580 
Q 1569 -128 1984 -844 
L 1484 -844 
Q 1016 -109 783 600 
Q 550 1309 550 2009 
Q 550 2706 781 3412 
Q 1013 4119 1484 4856 
L 1984 4856 
z
" transform="scale(0.015625)"/>
       <path id="DejaVuSans-68" d="M 3513 2113 
L 3513 0 
L 2938 0 
L 2938 2094 
Q 2938 2591 2744 2837 
Q 2550 3084 2163 3084 
Q 1697 3084 1428 2787 
Q 1159 2491 1159 1978 
L 1159 0 
L 581 0 
L 581 4863 
L 1159 4863 
L 1159 2956 
Q 1366 3272 1645 3428 
Q 1925 3584 2291 3584 
Q 2894 3584 3203 3211 
Q 3513 2838 3513 2113 
z
" transform="scale(0.015625)"/>
       <path id="DejaVuSans-2c" d="M 750 794 
L 1409 794 
L 1409 256 
L 897 -744 
L 494 -744 
L 750 256 
L 750 794 
z
" transform="scale(0.015625)"/>
       <path id="DejaVuSans-6e" d="M 3513 2113 
L 3513 0 
L 2938 0 
L 2938 2094 
Q 2938 2591 2744 2837 
Q 2550 3084 2163 3084 
Q 1697 3084 1428 2787 
Q 1159 2491 1159 1978 
L 1159 0 
L 581 0 
L 581 3500 
L 1159 3500 
L 1159 2956 
Q 1366 3272 1645 3428 
Q 1925 3584 2291 3584 
Q 2894 3584 3203 3211 
Q 3513 2838 3513 2113 
z
" transform="scale(0.015625)"/>
       <path id="DejaVuSans-6f" d="M 1959 3097 
Q 1497 3097 1228 2736 
Q 959 2375 959 1747 
Q 959 1119 1226 758 
Q 1494 397 1959 397 
Q 2419 397 2687 759 
Q 2956 1122 2956 1747 
Q 2956 2369 2687 2733 
Q 2419 3097 1959 3097 
z
M 1959 3584 
Q 2709 3584 3137 3096 
Q 3566 2609 3566 1747 
Q 3566 888 3137 398 
Q 2709 -91 1959 -91 
Q 1206 -91 779 398 
Q 353 888 353 1747 
Q 353 2609 779 3096 
Q 1206 3584 1959 3584 
z
" transform="scale(0.015625)"/>
       <path id="DejaVuSans-72" d="M 2631 2963 
Q 2534 3019 2420 3045 
Q 2306 3072 2169 3072 
Q 1681 3072 1420 2755 
Q 1159 2438 1159 1844 
L 1159 0 
L 581 0 
L 581 3500 
L 1159 3500 
L 1159 2956 
Q 1341 3275 1631 3429 
Q 1922 3584 2338 3584 
Q 2397 3584 2469 3576 
Q 2541 3569 2628 3553 
L 2631 2963 
z
" transform="scale(0.015625)"/>
       <path id="DejaVuSans-61" d="M 2194 1759 
Q 1497 1759 1228 1600 
Q 959 1441 959 1056 
Q 959 750 1161 570 
Q 1363 391 1709 391 
Q 2188 391 2477 730 
Q 2766 1069 2766 1631 
L 2766 1759 
L 2194 1759 
z
M 3341 1997 
L 3341 0 
L 2766 0 
L 2766 531 
Q 2569 213 2275 61 
Q 1981 -91 1556 -91 
Q 1019 -91 701 211 
Q 384 513 384 1019 
Q 384 1609 779 1909 
Q 1175 2209 1959 2209 
L 2766 2209 
L 2766 2266 
Q 2766 2663 2505 2880 
Q 2244 3097 1772 3097 
Q 1472 3097 1187 3025 
Q 903 2953 641 2809 
L 641 3341 
Q 956 3463 1253 3523 
Q 1550 3584 1831 3584 
Q 2591 3584 2966 3190 
Q 3341 2797 3341 1997 
z
" transform="scale(0.015625)"/>
       <path id="DejaVuSans-6c" d="M 603 4863 
L 1178 4863 
L 1178 0 
L 603 0 
L 603 4863 
z
" transform="scale(0.015625)"/>
       <path id="DejaVuSans-69" d="M 603 3500 
L 1178 3500 
L 1178 0 
L 603 0 
L 603 3500 
z
M 603 4863 
L 1178 4863 
L 1178 4134 
L 603 4134 
L 603 4863 
z
" transform="scale(0.015625)"/>
       <path id="DejaVuSans-e9" d="M 3597 1894 
L 3597 1613 
L 953 1613 
Q 991 1019 1311 708 
Q 1631 397 2203 397 
Q 2534 397 2845 478 
Q 3156 559 3463 722 
L 3463 178 
Q 3153 47 2828 -22 
Q 2503 -91 2169 -91 
Q 1331 -91 842 396 
Q 353 884 353 1716 
Q 353 2575 817 3079 
Q 1281 3584 2069 3584 
Q 2775 3584 3186 3129 
Q 3597 2675 3597 1894 
z
M 3022 2063 
Q 3016 2534 2758 2815 
Q 2500 3097 2075 3097 
Q 1594 3097 1305 2825 
Q 1016 2553 972 2059 
L 3022 2063 
z
M 2466 5119 
L 3088 5119 
L 2070 3944 
L 1591 3944 
L 2466 5119 
z
" transform="scale(0.015625)"/>
       <path id="DejaVuSans-29" d="M 513 4856 
L 1013 4856 
Q 1481 4119 1714 3412 
Q 1947 2706 1947 2009 
Q 1947 1309 1714 600 
Q 1481 -109 1013 -844 
L 513 -844 
Q 928 -128 1133 580 
Q 1338 1288 1338 2009 
Q 1338 2731 1133 3434 
Q 928 4138 513 4856 
z
" transform="scale(0.015625)"/>
      </defs>
      <use xlink:href="#DejaVuSans-54"/>
      <use xlink:href="#DejaVuSans-65" x="44.083984"/>
      <use xlink:href="#DejaVuSans-6d" x="105.607422"/>
      <use xlink:href="#DejaVuSans-70" x="203.019531"/>
      <use xlink:href="#DejaVuSans-73" x="266.496094"/>
      <use xlink:href="#DejaVuSans-20" x="318.595703"/>
      <use xlink:href="#DejaVuSans-28" x="350.382812"/>
      <use xlink:href="#DejaVuSans-68" x="389.396484"/>
      <use xlink:href="#DejaVuSans-2c" x="452.775391"/>
      <use xlink:href="#DejaVuSans-20" x="484.5625"/>
      <use xlink:href="#DejaVuSans-6e" x="516.349609"/>
      <use xlink:href="#DejaVuSans-6f" x="579.728516"/>
      <use xlink:href="#DejaVuSans-72" x="640.910156"/>
      <use xlink:href="#DejaVuSans-6d" x="680.273438"/>
      <use xlink:href="#DejaVuSans-61" x="777.685547"/>
      <use xlink:href="#DejaVuSans-6c" x="838.964844"/>
      <use xlink:href="#DejaVuSans-69" x="866.748047"/>
      <use xlink:href="#DejaVuSans-73" x="894.53125"/>
      <use xlink:href="#DejaVuSans-e9" x="946.630859"/>
      <use xlink:href="#DejaVuSans-29" x="1008.154297"/>
     </g>
    </g>
   </g>
   <g id="matplotlib.axis_2">
    <g id="ytick_1">
     <g id="line2d_13">
      <path d="M 40.427969 245.448437 
L 555.046719 245.448437 
" clip-path="url(#paea6a9408c)" style="fill: none; stroke: #b0b0b0; stroke-opacity: 0.2; stroke-width: 0.8; stroke-linecap: square"/>
     </g>
     <g id="line2d_14">
      <defs>
       <path id="m6de5b8747d" d="M 0 0 
L -3.5 0 
" style="stroke: #000000; stroke-width: 0.8"/>
      </defs>
      <g>
       <use xlink:href="#m6de5b8747d" x="40.427969" y="245.448437" style="stroke: #000000; stroke-width: 0.8"/>
      </g>
     </g>
     <g id="text_8">
      <!-- 0.0 -->
      <g transform="translate(19.910313 248.677773) scale(0.085 -0.085)">
       <defs>
        <path id="DejaVuSans-2e" d="M 684 794 
L 1344 794 
L 1344 0 
L 684 0 
L 684 794 
z
" transform="scale(0.015625)"/>
       </defs>
       <use xlink:href="#DejaVuSans-30"/>
       <use xlink:href="#DejaVuSans-2e" x="63.623047"/>
       <use xlink:href="#DejaVuSans-30" x="95.410156"/>
      </g>
     </g>
    </g>
    <g id="ytick_2">
     <g id="line2d_15">
      <path d="M 40.427969 206.378872 
L 555.046719 206.378872 
" clip-path="url(#paea6a9408c)" style="fill: none; stroke: #b0b0b0; stroke-opacity: 0.2; stroke-width: 0.8; stroke-linecap: square"/>
     </g>
     <g id="line2d_16">
      <g>
       <use xlink:href="#m6de5b8747d" x="40.427969" y="206.378872" style="stroke: #000000; stroke-width: 0.8"/>
      </g>
     </g>
     <g id="text_9">
      <!-- 0.2 -->
      <g transform="translate(19.910313 209.608208) scale(0.085 -0.085)">
       <use xlink:href="#DejaVuSans-30"/>
       <use xlink:href="#DejaVuSans-2e" x="63.623047"/>
       <use xlink:href="#DejaVuSans-32" x="95.410156"/>
      </g>
     </g>
    </g>
    <g id="ytick_3">
     <g id="line2d_17">
      <path d="M 40.427969 167.309307 
L 555.046719 167.309307 
" clip-path="url(#paea6a9408c)" style="fill: none; stroke: #b0b0b0; stroke-opacity: 0.2; stroke-width: 0.8; stroke-linecap: square"/>
     </g>
     <g id="line2d_18">
      <g>
       <use xlink:href="#m6de5b8747d" x="40.427969" y="167.309307" style="stroke: #000000; stroke-width: 0.8"/>
      </g>
     </g>
     <g id="text_10">
      <!-- 0.4 -->
      <g transform="translate(19.910313 170.538643) scale(0.085 -0.085)">
       <use xlink:href="#DejaVuSans-30"/>
       <use xlink:href="#DejaVuSans-2e" x="63.623047"/>
       <use xlink:href="#DejaVuSans-34" x="95.410156"/>
      </g>
     </g>
    </g>
    <g id="ytick_4">
     <g id="line2d_19">
      <path d="M 40.427969 128.239742 
L 555.046719 128.239742 
" clip-path="url(#paea6a9408c)" style="fill: none; stroke: #b0b0b0; stroke-opacity: 0.2; stroke-width: 0.8; stroke-linecap: square"/>
     </g>
     <g id="line2d_20">
      <g>
       <use xlink:href="#m6de5b8747d" x="40.427969" y="128.239742" style="stroke: #000000; stroke-width: 0.8"/>
      </g>
     </g>
     <g id="text_11">
      <!-- 0.6 -->
      <g transform="translate(19.910313 131.469078) scale(0.085 -0.085)">
       <use xlink:href="#DejaVuSans-30"/>
       <use xlink:href="#DejaVuSans-2e" x="63.623047"/>
       <use xlink:href="#DejaVuSans-36" x="95.410156"/>
      </g>
     </g>
    </g>
    <g id="ytick_5">
     <g id="line2d_21">
      <path d="M 40.427969 89.170177 
L 555.046719 89.170177 
" clip-path="url(#paea6a9408c)" style="fill: none; stroke: #b0b0b0; stroke-opacity: 0.2; stroke-width: 0.8; stroke-linecap: square"/>
     </g>
     <g id="line2d_22">
      <g>
       <use xlink:href="#m6de5b8747d" x="40.427969" y="89.170177" style="stroke: #000000; stroke-width: 0.8"/>
      </g>
     </g>
     <g id="text_12">
      <!-- 0.8 -->
      <g transform="translate(19.910313 92.399513) scale(0.085 -0.085)">
       <use xlink:href="#DejaVuSans-30"/>
       <use xlink:href="#DejaVuSans-2e" x="63.623047"/>
       <use xlink:href="#DejaVuSans-38" x="95.410156"/>
      </g>
     </g>
    </g>
    <g id="ytick_6">
     <g id="line2d_23">
      <path d="M 40.427969 50.100611 
L 555.046719 50.100611 
" clip-path="url(#paea6a9408c)" style="fill: none; stroke: #b0b0b0; stroke-opacity: 0.2; stroke-width: 0.8; stroke-linecap: square"/>
     </g>
     <g id="line2d_24">
      <g>
       <use xlink:href="#m6de5b8747d" x="40.427969" y="50.100611" style="stroke: #000000; stroke-width: 0.8"/>
      </g>
     </g>
     <g id="text_13">
      <!-- 1.0 -->
      <g transform="translate(19.910313 53.329947) scale(0.085 -0.085)">
       <use xlink:href="#DejaVuSans-31"/>
       <use xlink:href="#DejaVuSans-2e" x="63.623047"/>
       <use xlink:href="#DejaVuSans-30" x="95.410156"/>
      </g>
     </g>
    </g>
    <g id="text_14">
     <!-- Débit (normalisé) -->
     <g transform="translate(14.038594 172.300859) rotate(-90) scale(0.09 -0.09)">
      <defs>
       <path id="DejaVuSans-44" d="M 1259 4147 
L 1259 519 
L 2022 519 
Q 2988 519 3436 956 
Q 3884 1394 3884 2338 
Q 3884 3275 3436 3711 
Q 2988 4147 2022 4147 
L 1259 4147 
z
M 628 4666 
L 1925 4666 
Q 3281 4666 3915 4102 
Q 4550 3538 4550 2338 
Q 4550 1131 3912 565 
Q 3275 0 1925 0 
L 628 0 
L 628 4666 
z
" transform="scale(0.015625)"/>
       <path id="DejaVuSans-62" d="M 3116 1747 
Q 3116 2381 2855 2742 
Q 2594 3103 2138 3103 
Q 1681 3103 1420 2742 
Q 1159 2381 1159 1747 
Q 1159 1113 1420 752 
Q 1681 391 2138 391 
Q 2594 391 2855 752 
Q 3116 1113 3116 1747 
z
M 1159 2969 
Q 1341 3281 1617 3432 
Q 1894 3584 2278 3584 
Q 2916 3584 3314 3078 
Q 3713 2572 3713 1747 
Q 3713 922 3314 415 
Q 2916 -91 2278 -91 
Q 1894 -91 1617 61 
Q 1341 213 1159 525 
L 1159 0 
L 581 0 
L 581 4863 
L 1159 4863 
L 1159 2969 
z
" transform="scale(0.015625)"/>
       <path id="DejaVuSans-74" d="M 1172 4494 
L 1172 3500 
L 2356 3500 
L 2356 3053 
L 1172 3053 
L 1172 1153 
Q 1172 725 1289 603 
Q 1406 481 1766 481 
L 2356 481 
L 2356 0 
L 1766 0 
Q 1100 0 847 248 
Q 594 497 594 1153 
L 594 3053 
L 172 3053 
L 172 3500 
L 594 3500 
L 594 4494 
L 1172 4494 
z
" transform="scale(0.015625)"/>
      </defs>
      <use xlink:href="#DejaVuSans-44"/>
      <use xlink:href="#DejaVuSans-e9" x="77.001953"/>
      <use xlink:href="#DejaVuSans-62" x="138.525391"/>
      <use xlink:href="#DejaVuSans-69" x="202.001953"/>
      <use xlink:href="#DejaVuSans-74" x="229.785156"/>
      <use xlink:href="#DejaVuSans-20" x="268.994141"/>
      <use xlink:href="#DejaVuSans-28" x="300.78125"/>
      <use xlink:href="#DejaVuSans-6e" x="339.794922"/>
      <use xlink:href="#DejaVuSans-6f" x="403.173828"/>
      <use xlink:href="#DejaVuSans-72" x="464.355469"/>
      <use xlink:href="#DejaVuSans-6d" x="503.71875"/>
      <use xlink:href="#DejaVuSans-61" x="601.130859"/>
      <use xlink:href="#DejaVuSans-6c" x="662.410156"/>
      <use xlink:href="#DejaVuSans-69" x="690.193359"/>
      <use xlink:href="#DejaVuSans-73" x="717.976562"/>
      <use xlink:href="#DejaVuSans-e9" x="770.076172"/>
      <use xlink:href="#DejaVuSans-29" x="831.599609"/>
     </g>
    </g>
   </g>
   <g id="line2d_25">
    <path d="M 40.427969 225.771747 
L 45.584469 225.640208 
L 49.70967 225.308248 
L 52.80357 224.8281 
L 54.86617 224.342413 
L 56.92877 223.676759 
L 58.991371 222.78051 
L 61.053971 221.595026 
L 63.116571 220.054562 
L 65.179171 218.088061 
L 67.241771 215.621878 
L 69.304372 212.583486 
L 71.366972 208.906008 
L 73.429572 204.533363 
L 75.492172 199.425654 
L 77.554772 193.564329 
L 79.617373 186.956584 
L 81.679973 179.638481 
L 83.742573 171.67631 
L 86.836473 158.742362 
L 90.961674 140.345237 
L 96.118174 117.271904 
L 99.212074 104.337956 
L 101.274675 96.375785 
L 103.337275 89.057682 
L 105.399875 82.449938 
L 107.462475 76.588613 
L 109.525075 71.480904 
L 111.587676 67.108258 
L 113.650276 63.43078 
L 115.712876 60.392388 
L 117.775476 57.926206 
L 119.838076 55.959704 
L 121.900677 54.419241 
L 123.963277 53.233756 
L 126.025877 52.337507 
L 128.088477 51.671853 
L 131.182378 50.997241 
L 134.276278 50.592876 
L 138.401478 50.308027 
L 144.589279 50.148083 
L 157.99618 50.100611 
L 196.154284 50.203131 
L 201.310784 50.423283 
L 205.435985 50.838028 
L 208.529885 51.409356 
L 210.592485 51.979213 
L 212.655085 52.753323 
L 214.717686 53.786385 
L 216.780286 55.140756 
L 218.842886 56.885119 
L 220.905486 59.092228 
L 222.968086 61.835687 
L 225.030687 65.185812 
L 227.093287 69.204749 
L 229.155887 73.941159 
L 231.218487 79.424875 
L 233.281087 85.662059 
L 235.343688 92.631371 
L 237.406288 100.281681 
L 240.500188 112.848402 
L 244.625389 131.003203 
L 251.844489 163.165864 
L 254.93839 175.732585 
L 257.00099 183.382895 
L 259.06359 190.352207 
L 261.12619 196.589391 
L 263.18879 202.073108 
L 265.251391 206.809517 
L 267.313991 210.828454 
L 269.376591 214.178579 
L 271.439191 216.922038 
L 273.501791 219.129147 
L 275.564392 220.87351 
L 277.626992 222.227881 
L 279.689592 223.260943 
L 281.752192 224.035053 
L 283.814792 224.604911 
L 286.908693 225.176239 
L 290.002593 225.514172 
L 294.127793 225.748677 
L 301.346894 225.886769 
L 320.941596 225.913655 
L 555.046719 225.913655 
L 555.046719 225.913655 
" clip-path="url(#paea6a9408c)" style="fill: none; stroke-dasharray: 2,3.3; stroke-dashoffset: 0; stroke: #000000; stroke-width: 2"/>
   </g>
   <g id="line2d_26">
    <path d="M 40.427969 225.771747 
L 147.683179 225.677263 
L 151.80838 225.395872 
L 154.90228 224.979241 
L 157.99618 224.280941 
L 160.05878 223.593596 
L 162.121381 222.669985 
L 164.183981 221.450723 
L 166.246581 219.869479 
L 168.309181 217.854856 
L 170.371781 215.333218 
L 172.434382 212.23248 
L 174.496982 208.48671 
L 176.559582 204.041312 
L 178.622182 198.858401 
L 180.684782 192.921904 
L 182.747383 186.241846 
L 184.809983 178.857302 
L 187.903883 166.619211 
L 190.997783 153.312777 
L 201.310784 107.692966 
L 204.404685 95.626902 
L 206.467285 88.378558 
L 208.529885 81.844925 
L 210.592485 76.059122 
L 212.655085 71.025673 
L 214.717686 66.723769 
L 216.780286 63.111761 
L 218.842886 60.132356 
L 220.905486 57.717988 
L 222.968086 55.795914 
L 225.030687 54.29267 
L 227.093287 53.137669 
L 229.155887 52.265849 
L 231.218487 51.619354 
L 234.312388 50.965398 
L 237.406288 50.574319 
L 241.531488 50.299539 
L 247.719289 50.145785 
L 262.15749 50.100611 
L 299.284294 50.20872 
L 304.440794 50.438645 
L 308.565995 50.86987 
L 311.659895 51.461855 
L 313.722495 52.050872 
L 315.785096 52.84941 
L 317.847696 53.912956 
L 319.910296 55.304546 
L 321.972896 57.093336 
L 324.035496 59.35226 
L 326.098097 62.154706 
L 328.160697 65.570301 
L 330.223297 69.65998 
L 332.285897 74.470649 
L 334.348497 80.029888 
L 336.411098 86.341184 
L 338.473698 93.380254 
L 340.536298 101.092936 
L 343.630198 113.733102 
L 347.755399 131.936368 
L 353.943199 159.627063 
L 357.0371 172.487565 
L 359.0997 180.387364 
L 361.1623 187.635708 
L 363.2249 194.169341 
L 365.2875 199.955145 
L 367.350101 204.988594 
L 369.412701 209.290497 
L 371.475301 212.902505 
L 373.537901 215.88191 
L 375.600501 218.296278 
L 377.663102 220.218352 
L 379.725702 221.721597 
L 381.788302 222.876597 
L 383.850902 223.748418 
L 385.913502 224.394913 
L 389.007403 225.048868 
L 392.101303 225.439947 
L 396.226503 225.714727 
L 402.414304 225.868481 
L 416.852505 225.913655 
L 555.046719 225.913655 
L 555.046719 225.913655 
" clip-path="url(#paea6a9408c)" style="fill: none; stroke-dasharray: 12.8,3.2,2,3.2; stroke-dashoffset: 0; stroke: #c0392b; stroke-width: 2"/>
   </g>
   <g id="line2d_27">
    <path d="M 40.427969 229.313551 
L 124.994577 229.2108 
L 135.307578 228.985049 
L 142.526679 228.62706 
L 148.714479 228.080616 
L 153.87098 227.366867 
L 157.99618 226.563559 
L 162.121381 225.495634 
L 165.215281 224.484942 
L 168.309181 223.264429 
L 171.403081 221.806234 
L 174.496982 220.082594 
L 177.590882 218.066825 
L 180.684782 215.734416 
L 183.778683 213.064219 
L 186.872583 210.039666 
L 189.966483 206.64996 
L 193.060384 202.891158 
L 196.154284 198.767083 
L 199.248184 194.289995 
L 202.342084 189.480947 
L 206.467285 182.605326 
L 210.592485 175.287331 
L 215.748986 165.69735 
L 230.187187 138.463155 
L 234.312388 131.192565 
L 238.437588 124.376756 
L 241.531488 119.618842 
L 244.625389 115.196708 
L 247.719289 111.130007 
L 250.813189 107.429682 
L 253.907089 104.098398 
L 257.00099 101.131282 
L 260.09489 98.516896 
L 263.18879 96.238386 
L 266.282691 94.27473 
L 269.376591 92.602019 
L 272.470491 91.194713 
L 275.564392 90.026822 
L 278.658292 89.072979 
L 281.752192 88.309378 
L 285.877393 87.550527 
L 290.002593 87.049813 
L 294.127793 86.776455 
L 298.252994 86.712541 
L 302.378194 86.853758 
L 306.503395 87.209568 
L 310.628595 87.802828 
L 314.753795 88.668827 
L 317.847696 89.524707 
L 320.941596 90.582483 
L 324.035496 91.86685 
L 327.129397 93.403614 
L 330.223297 95.218681 
L 333.317197 97.33693 
L 336.411098 99.780988 
L 339.504998 102.569954 
L 342.598898 105.718129 
L 345.692798 109.233805 
L 348.786699 113.118201 
L 351.880599 117.364595 
L 354.974499 121.957729 
L 359.0997 128.578454 
L 363.2249 135.691021 
L 368.381401 145.11022 
L 376.631801 160.796891 
L 383.850902 174.353034 
L 387.976103 181.72076 
L 392.101303 188.660117 
L 396.226503 195.074331 
L 399.320404 199.496835 
L 402.414304 203.564069 
L 405.508204 207.265213 
L 408.602105 210.597776 
L 411.696005 213.566885 
L 414.789905 216.184341 
L 417.883805 218.467508 
L 420.977706 220.438118 
L 424.071606 222.121056 
L 427.165506 223.543186 
L 430.259407 224.732275 
L 433.353307 225.71604 
L 437.478507 226.754597 
L 441.603708 227.535222 
L 445.728908 228.111028 
L 450.885409 228.61182 
L 457.073209 228.985572 
L 465.32361 229.245697 
L 477.699211 229.388012 
L 507.606914 229.429541 
L 555.046719 229.429916 
L 555.046719 229.429916 
" clip-path="url(#paea6a9408c)" style="fill: none; stroke-dasharray: 7.4,3.2; stroke-dashoffset: 0; stroke: #2e8b57; stroke-width: 2"/>
   </g>
   <g id="line2d_28">
    <path d="M 40.427969 231.674754 
L 113.650276 231.563829 
L 127.057177 231.33227 
L 136.338878 230.979969 
L 143.557979 230.514958 
L 149.745779 229.920404 
L 154.90228 229.240865 
L 160.05878 228.350534 
L 165.215281 227.204065 
L 169.340481 226.070038 
L 173.465682 224.715829 
L 177.590882 223.116502 
L 181.716082 221.248484 
L 185.841283 219.090645 
L 189.966483 216.625439 
L 194.091684 213.840055 
L 198.216884 210.727503 
L 202.342084 207.287581 
L 206.467285 203.527628 
L 210.592485 199.463019 
L 214.717686 195.117338 
L 219.874186 189.338848 
L 226.061987 182.001628 
L 234.312388 171.80696 
L 245.656689 157.773274 
L 251.844489 150.479781 
L 257.00099 144.754355 
L 261.12619 140.46278 
L 265.251391 136.4638 
L 269.376591 132.782763 
L 273.501791 129.437685 
L 277.626992 126.439654 
L 281.752192 123.793566 
L 284.846092 122.03995 
L 287.939993 120.482562 
L 291.033893 119.11879 
L 294.127793 117.945377 
L 297.221694 116.95874 
L 300.315594 116.155261 
L 303.409494 115.531562 
L 306.503395 115.084736 
L 309.597295 114.812542 
L 312.691195 114.713548 
L 315.785096 114.78722 
L 318.878996 115.033957 
L 321.972896 115.455065 
L 325.066796 116.052675 
L 328.160697 116.829607 
L 331.254597 117.789187 
L 334.348497 118.935015 
L 337.442398 120.270702 
L 340.536298 121.799571 
L 343.630198 123.524354 
L 346.724099 125.446872 
L 350.849299 128.31864 
L 354.974499 131.53994 
L 359.0997 135.102027 
L 363.2249 138.989461 
L 367.350101 143.179577 
L 372.506601 148.796385 
L 377.663102 154.764345 
L 383.850902 162.262273 
L 404.476904 187.628132 
L 409.633405 193.508577 
L 414.789905 199.020928 
L 418.915106 203.121311 
L 423.040306 206.919495 
L 427.165506 210.39917 
L 431.290707 213.55209 
L 435.415907 216.377614 
L 439.541108 218.881975 
L 443.666308 221.077339 
L 447.791508 222.980729 
L 451.916709 224.612881 
L 456.041909 225.997099 
L 460.16711 227.158174 
L 464.29231 228.121395 
L 469.44881 229.085114 
L 474.605311 229.824926 
L 480.793112 230.476393 
L 488.012212 230.989906 
L 496.262613 231.350225 
L 507.606914 231.605082 
L 525.139016 231.740763 
L 555.046719 231.772655 
L 555.046719 231.772655 
" clip-path="url(#paea6a9408c)" style="fill: none; stroke: #1f4e79; stroke-width: 2.5; stroke-linecap: square"/>
   </g>
   <g id="patch_3">
    <path d="M 40.427969 245.448437 
L 40.427969 20.798437 
" style="fill: none; stroke: #000000; stroke-width: 0.8; stroke-linejoin: miter; stroke-linecap: square"/>
   </g>
   <g id="patch_4">
    <path d="M 555.046719 245.448437 
L 555.046719 20.798437 
" style="fill: none; stroke: #000000; stroke-width: 0.8; stroke-linejoin: miter; stroke-linecap: square"/>
   </g>
   <g id="patch_5">
    <path d="M 40.427969 245.448437 
L 555.046719 245.448437 
" style="fill: none; stroke: #000000; stroke-width: 0.8; stroke-linejoin: miter; stroke-linecap: square"/>
   </g>
   <g id="patch_6">
    <path d="M 40.427969 20.798437 
L 555.046719 20.798437 
" style="fill: none; stroke: #000000; stroke-width: 0.8; stroke-linejoin: miter; stroke-linecap: square"/>
   </g>
   <g id="text_15">
    <!-- Approximations de Saint-Venant — Propagation d'un hydrogramme -->
    <g transform="translate(129.849844 14.798437) scale(0.1 -0.1)">
     <defs>
      <path id="DejaVuSans-41" d="M 2188 4044 
L 1331 1722 
L 3047 1722 
L 2188 4044 
z
M 1831 4666 
L 2547 4666 
L 4325 0 
L 3669 0 
L 3244 1197 
L 1141 1197 
L 716 0 
L 50 0 
L 1831 4666 
z
" transform="scale(0.015625)"/>
      <path id="DejaVuSans-78" d="M 3513 3500 
L 2247 1797 
L 3578 0 
L 2900 0 
L 1881 1375 
L 863 0 
L 184 0 
L 1544 1831 
L 300 3500 
L 978 3500 
L 1906 2253 
L 2834 3500 
L 3513 3500 
z
" transform="scale(0.015625)"/>
      <path id="DejaVuSans-64" d="M 2906 2969 
L 2906 4863 
L 3481 4863 
L 3481 0 
L 2906 0 
L 2906 525 
Q 2725 213 2448 61 
Q 2172 -91 1784 -91 
Q 1150 -91 751 415 
Q 353 922 353 1747 
Q 353 2572 751 3078 
Q 1150 3584 1784 3584 
Q 2172 3584 2448 3432 
Q 2725 3281 2906 2969 
z
M 947 1747 
Q 947 1113 1208 752 
Q 1469 391 1925 391 
Q 2381 391 2643 752 
Q 2906 1113 2906 1747 
Q 2906 2381 2643 2742 
Q 2381 3103 1925 3103 
Q 1469 3103 1208 2742 
Q 947 2381 947 1747 
z
" transform="scale(0.015625)"/>
      <path id="DejaVuSans-53" d="M 3425 4513 
L 3425 3897 
Q 3066 4069 2747 4153 
Q 2428 4238 2131 4238 
Q 1616 4238 1336 4038 
Q 1056 3838 1056 3469 
Q 1056 3159 1242 3001 
Q 1428 2844 1947 2747 
L 2328 2669 
Q 3034 2534 3370 2195 
Q 3706 1856 3706 1288 
Q 3706 609 3251 259 
Q 2797 -91 1919 -91 
Q 1588 -91 1214 -16 
Q 841 59 441 206 
L 441 856 
Q 825 641 1194 531 
Q 1563 422 1919 422 
Q 2459 422 2753 634 
Q 3047 847 3047 1241 
Q 3047 1584 2836 1778 
Q 2625 1972 2144 2069 
L 1759 2144 
Q 1053 2284 737 2584 
Q 422 2884 422 3419 
Q 422 4038 858 4394 
Q 1294 4750 2059 4750 
Q 2388 4750 2728 4690 
Q 3069 4631 3425 4513 
z
" transform="scale(0.015625)"/>
      <path id="DejaVuSans-2d" d="M 313 2009 
L 1997 2009 
L 1997 1497 
L 313 1497 
L 313 2009 
z
" transform="scale(0.015625)"/>
      <path id="DejaVuSans-56" d="M 1831 0 
L 50 4666 
L 709 4666 
L 2188 738 
L 3669 4666 
L 4325 4666 
L 2547 0 
L 1831 0 
z
" transform="scale(0.015625)"/>
      <path id="DejaVuSans-2014" d="M 313 1978 
L 6088 1978 
L 6088 1528 
L 313 1528 
L 313 1978 
z
" transform="scale(0.015625)"/>
      <path id="DejaVuSans-50" d="M 1259 4147 
L 1259 2394 
L 2053 2394 
Q 2494 2394 2734 2622 
Q 2975 2850 2975 3272 
Q 2975 3691 2734 3919 
Q 2494 4147 2053 4147 
L 1259 4147 
z
M 628 4666 
L 2053 4666 
Q 2838 4666 3239 4311 
Q 3641 3956 3641 3272 
Q 3641 2581 3239 2228 
Q 2838 1875 2053 1875 
L 1259 1875 
L 1259 0 
L 628 0 
L 628 4666 
z
" transform="scale(0.015625)"/>
      <path id="DejaVuSans-67" d="M 2906 1791 
Q 2906 2416 2648 2759 
Q 2391 3103 1925 3103 
Q 1463 3103 1205 2759 
Q 947 2416 947 1791 
Q 947 1169 1205 825 
Q 1463 481 1925 481 
Q 2391 481 2648 825 
Q 2906 1169 2906 1791 
z
M 3481 434 
Q 3481 -459 3084 -895 
Q 2688 -1331 1869 -1331 
Q 1566 -1331 1297 -1286 
Q 1028 -1241 775 -1147 
L 775 -588 
Q 1028 -725 1275 -790 
Q 1522 -856 1778 -856 
Q 2344 -856 2625 -561 
Q 2906 -266 2906 331 
L 2906 616 
Q 2728 306 2450 153 
Q 2172 0 1784 0 
Q 1141 0 747 490 
Q 353 981 353 1791 
Q 353 2603 747 3093 
Q 1141 3584 1784 3584 
Q 2172 3584 2450 3431 
Q 2728 3278 2906 2969 
L 2906 3500 
L 3481 3500 
L 3481 434 
z
" transform="scale(0.015625)"/>
      <path id="DejaVuSans-27" d="M 1147 4666 
L 1147 2931 
L 616 2931 
L 616 4666 
L 1147 4666 
z
" transform="scale(0.015625)"/>
      <path id="DejaVuSans-75" d="M 544 1381 
L 544 3500 
L 1119 3500 
L 1119 1403 
Q 1119 906 1312 657 
Q 1506 409 1894 409 
Q 2359 409 2629 706 
Q 2900 1003 2900 1516 
L 2900 3500 
L 3475 3500 
L 3475 0 
L 2900 0 
L 2900 538 
Q 2691 219 2414 64 
Q 2138 -91 1772 -91 
Q 1169 -91 856 284 
Q 544 659 544 1381 
z
M 1991 3584 
L 1991 3584 
z
" transform="scale(0.015625)"/>
      <path id="DejaVuSans-79" d="M 2059 -325 
Q 1816 -950 1584 -1140 
Q 1353 -1331 966 -1331 
L 506 -1331 
L 506 -850 
L 844 -850 
Q 1081 -850 1212 -737 
Q 1344 -625 1503 -206 
L 1606 56 
L 191 3500 
L 800 3500 
L 1894 763 
L 2988 3500 
L 3597 3500 
L 2059 -325 
z
" transform="scale(0.015625)"/>
     </defs>
     <use xlink:href="#DejaVuSans-41"/>
     <use xlink:href="#DejaVuSans-70" x="68.408203"/>
     <use xlink:href="#DejaVuSans-70" x="131.884766"/>
     <use xlink:href="#DejaVuSans-72" x="195.361328"/>
     <use xlink:href="#DejaVuSans-6f" x="234.224609"/>
     <use xlink:href="#DejaVuSans-78" x="292.28125"/>
     <use xlink:href="#DejaVuSans-69" x="351.460938"/>
     <use xlink:href="#DejaVuSans-6d" x="379.244141"/>
     <use xlink:href="#DejaVuSans-61" x="476.65625"/>
     <use xlink:href="#DejaVuSans-74" x="537.935547"/>
     <use xlink:href="#DejaVuSans-69" x="577.144531"/>
     <use xlink:href="#DejaVuSans-6f" x="604.927734"/>
     <use xlink:href="#DejaVuSans-6e" x="666.109375"/>
     <use xlink:href="#DejaVuSans-73" x="729.488281"/>
     <use xlink:href="#DejaVuSans-20" x="781.587891"/>
     <use xlink:href="#DejaVuSans-64" x="813.375"/>
     <use xlink:href="#DejaVuSans-65" x="876.851562"/>
     <use xlink:href="#DejaVuSans-20" x="938.375"/>
     <use xlink:href="#DejaVuSans-53" x="970.162109"/>
     <use xlink:href="#DejaVuSans-61" x="1033.638672"/>
     <use xlink:href="#DejaVuSans-69" x="1094.917969"/>
     <use xlink:href="#DejaVuSans-6e" x="1122.701172"/>
     <use xlink:href="#DejaVuSans-74" x="1186.080078"/>
     <use xlink:href="#DejaVuSans-2d" x="1225.289062"/>
     <use xlink:href="#DejaVuSans-56" x="1255.498047"/>
     <use xlink:href="#DejaVuSans-65" x="1316.15625"/>
     <use xlink:href="#DejaVuSans-6e" x="1377.679688"/>
     <use xlink:href="#DejaVuSans-61" x="1441.058594"/>
     <use xlink:href="#DejaVuSans-6e" x="1502.337891"/>
     <use xlink:href="#DejaVuSans-74" x="1565.716797"/>
     <use xlink:href="#DejaVuSans-20" x="1604.925781"/>
     <use xlink:href="#DejaVuSans-2014" x="1636.712891"/>
     <use xlink:href="#DejaVuSans-20" x="1736.712891"/>
     <use xlink:href="#DejaVuSans-50" x="1768.5"/>
     <use xlink:href="#DejaVuSans-72" x="1827.052734"/>
     <use xlink:href="#DejaVuSans-6f" x="1865.916016"/>
     <use xlink:href="#DejaVuSans-70" x="1927.097656"/>
     <use xlink:href="#DejaVuSans-61" x="1990.574219"/>
     <use xlink:href="#DejaVuSans-67" x="2051.853516"/>
     <use xlink:href="#DejaVuSans-61" x="2115.330078"/>
     <use xlink:href="#DejaVuSans-74" x="2176.609375"/>
     <use xlink:href="#DejaVuSans-69" x="2215.818359"/>
     <use xlink:href="#DejaVuSans-6f" x="2243.601562"/>
     <use xlink:href="#DejaVuSans-6e" x="2304.783203"/>
     <use xlink:href="#DejaVuSans-20" x="2368.162109"/>
     <use xlink:href="#DejaVuSans-64" x="2399.949219"/>
     <use xlink:href="#DejaVuSans-27" x="2463.425781"/>
     <use xlink:href="#DejaVuSans-75" x="2490.916016"/>
     <use xlink:href="#DejaVuSans-6e" x="2554.294922"/>
     <use xlink:href="#DejaVuSans-20" x="2617.673828"/>
     <use xlink:href="#DejaVuSans-68" x="2649.460938"/>
     <use xlink:href="#DejaVuSans-79" x="2712.839844"/>
     <use xlink:href="#DejaVuSans-64" x="2772.019531"/>
     <use xlink:href="#DejaVuSans-72" x="2835.496094"/>
     <use xlink:href="#DejaVuSans-6f" x="2874.359375"/>
     <use xlink:href="#DejaVuSans-67" x="2935.541016"/>
     <use xlink:href="#DejaVuSans-72" x="2999.017578"/>
     <use xlink:href="#DejaVuSans-61" x="3040.130859"/>
     <use xlink:href="#DejaVuSans-6d" x="3101.410156"/>
     <use xlink:href="#DejaVuSans-6d" x="3198.822266"/>
     <use xlink:href="#DejaVuSans-65" x="3296.234375"/>
    </g>
   </g>
   <g id="legend_1">
    <g id="patch_7">
     <path d="M 366.589766 78.524062 
L 549.096719 78.524062 
Q 550.796719 78.524062 550.796719 76.824062 
L 550.796719 26.748437 
Q 550.796719 25.048437 549.096719 25.048437 
L 366.589766 25.048437 
Q 364.889766 25.048437 364.889766 26.748437 
L 364.889766 76.824062 
Q 364.889766 78.524062 366.589766 78.524062 
z
" style="fill: #ffffff; opacity: 0.8; stroke: #cccccc; stroke-linejoin: miter"/>
    </g>
    <g id="line2d_29">
     <path d="M 368.289766 32.272109 
L 376.789766 32.272109 
L 385.289766 32.272109 
" style="fill: none; stroke-dasharray: 2,3.3; stroke-dashoffset: 0; stroke: #000000; stroke-width: 2"/>
    </g>
    <g id="text_16">
     <!-- Hydrogramme d'entrée -->
     <g transform="translate(392.089766 35.247109) scale(0.085 -0.085)">
      <defs>
       <path id="DejaVuSans-48" d="M 628 4666 
L 1259 4666 
L 1259 2753 
L 3553 2753 
L 3553 4666 
L 4184 4666 
L 4184 0 
L 3553 0 
L 3553 2222 
L 1259 2222 
L 1259 0 
L 628 0 
L 628 4666 
z
" transform="scale(0.015625)"/>
      </defs>
      <use xlink:href="#DejaVuSans-48"/>
      <use xlink:href="#DejaVuSans-79" x="75.195312"/>
      <use xlink:href="#DejaVuSans-64" x="134.375"/>
      <use xlink:href="#DejaVuSans-72" x="197.851562"/>
      <use xlink:href="#DejaVuSans-6f" x="236.714844"/>
      <use xlink:href="#DejaVuSans-67" x="297.896484"/>
      <use xlink:href="#DejaVuSans-72" x="361.373047"/>
      <use xlink:href="#DejaVuSans-61" x="402.486328"/>
      <use xlink:href="#DejaVuSans-6d" x="463.765625"/>
      <use xlink:href="#DejaVuSans-6d" x="561.177734"/>
      <use xlink:href="#DejaVuSans-65" x="658.589844"/>
      <use xlink:href="#DejaVuSans-20" x="720.113281"/>
      <use xlink:href="#DejaVuSans-64" x="751.900391"/>
      <use xlink:href="#DejaVuSans-27" x="815.376953"/>
      <use xlink:href="#DejaVuSans-65" x="842.867188"/>
      <use xlink:href="#DejaVuSans-6e" x="904.390625"/>
      <use xlink:href="#DejaVuSans-74" x="967.769531"/>
      <use xlink:href="#DejaVuSans-72" x="1006.978516"/>
      <use xlink:href="#DejaVuSans-e9" x="1045.841797"/>
      <use xlink:href="#DejaVuSans-65" x="1107.365234"/>
     </g>
    </g>
    <g id="line2d_30">
     <path d="M 368.289766 45.088516 
L 376.789766 45.088516 
L 385.289766 45.088516 
" style="fill: none; stroke-dasharray: 12.8,3.2,2,3.2; stroke-dashoffset: 0; stroke: #c0392b; stroke-width: 2"/>
    </g>
    <g id="text_17">
     <!-- Onde cinématique (translation pure) -->
     <g transform="translate(392.089766 48.063516) scale(0.085 -0.085)">
      <defs>
       <path id="DejaVuSans-4f" d="M 2522 4238 
Q 1834 4238 1429 3725 
Q 1025 3213 1025 2328 
Q 1025 1447 1429 934 
Q 1834 422 2522 422 
Q 3209 422 3611 934 
Q 4013 1447 4013 2328 
Q 4013 3213 3611 3725 
Q 3209 4238 2522 4238 
z
M 2522 4750 
Q 3503 4750 4090 4092 
Q 4678 3434 4678 2328 
Q 4678 1225 4090 567 
Q 3503 -91 2522 -91 
Q 1538 -91 948 565 
Q 359 1222 359 2328 
Q 359 3434 948 4092 
Q 1538 4750 2522 4750 
z
" transform="scale(0.015625)"/>
       <path id="DejaVuSans-63" d="M 3122 3366 
L 3122 2828 
Q 2878 2963 2633 3030 
Q 2388 3097 2138 3097 
Q 1578 3097 1268 2742 
Q 959 2388 959 1747 
Q 959 1106 1268 751 
Q 1578 397 2138 397 
Q 2388 397 2633 464 
Q 2878 531 3122 666 
L 3122 134 
Q 2881 22 2623 -34 
Q 2366 -91 2075 -91 
Q 1284 -91 818 406 
Q 353 903 353 1747 
Q 353 2603 823 3093 
Q 1294 3584 2113 3584 
Q 2378 3584 2631 3529 
Q 2884 3475 3122 3366 
z
" transform="scale(0.015625)"/>
       <path id="DejaVuSans-71" d="M 947 1747 
Q 947 1113 1208 752 
Q 1469 391 1925 391 
Q 2381 391 2643 752 
Q 2906 1113 2906 1747 
Q 2906 2381 2643 2742 
Q 2381 3103 1925 3103 
Q 1469 3103 1208 2742 
Q 947 2381 947 1747 
z
M 2906 525 
Q 2725 213 2448 61 
Q 2172 -91 1784 -91 
Q 1150 -91 751 415 
Q 353 922 353 1747 
Q 353 2572 751 3078 
Q 1150 3584 1784 3584 
Q 2172 3584 2448 3432 
Q 2725 3281 2906 2969 
L 2906 3500 
L 3481 3500 
L 3481 -1331 
L 2906 -1331 
L 2906 525 
z
" transform="scale(0.015625)"/>
      </defs>
      <use xlink:href="#DejaVuSans-4f"/>
      <use xlink:href="#DejaVuSans-6e" x="78.710938"/>
      <use xlink:href="#DejaVuSans-64" x="142.089844"/>
      <use xlink:href="#DejaVuSans-65" x="205.566406"/>
      <use xlink:href="#DejaVuSans-20" x="267.089844"/>
      <use xlink:href="#DejaVuSans-63" x="298.876953"/>
      <use xlink:href="#DejaVuSans-69" x="353.857422"/>
      <use xlink:href="#DejaVuSans-6e" x="381.640625"/>
      <use xlink:href="#DejaVuSans-e9" x="445.019531"/>
      <use xlink:href="#DejaVuSans-6d" x="506.542969"/>
      <use xlink:href="#DejaVuSans-61" x="603.955078"/>
      <use xlink:href="#DejaVuSans-74" x="665.234375"/>
      <use xlink:href="#DejaVuSans-69" x="704.443359"/>
      <use xlink:href="#DejaVuSans-71" x="732.226562"/>
      <use xlink:href="#DejaVuSans-75" x="795.703125"/>
      <use xlink:href="#DejaVuSans-65" x="859.082031"/>
      <use xlink:href="#DejaVuSans-20" x="920.605469"/>
      <use xlink:href="#DejaVuSans-28" x="952.392578"/>
      <use xlink:href="#DejaVuSans-74" x="991.40625"/>
      <use xlink:href="#DejaVuSans-72" x="1030.615234"/>
      <use xlink:href="#DejaVuSans-61" x="1071.728516"/>
      <use xlink:href="#DejaVuSans-6e" x="1133.007812"/>
      <use xlink:href="#DejaVuSans-73" x="1196.386719"/>
      <use xlink:href="#DejaVuSans-6c" x="1248.486328"/>
      <use xlink:href="#DejaVuSans-61" x="1276.269531"/>
      <use xlink:href="#DejaVuSans-74" x="1337.548828"/>
      <use xlink:href="#DejaVuSans-69" x="1376.757812"/>
      <use xlink:href="#DejaVuSans-6f" x="1404.541016"/>
      <use xlink:href="#DejaVuSans-6e" x="1465.722656"/>
      <use xlink:href="#DejaVuSans-20" x="1529.101562"/>
      <use xlink:href="#DejaVuSans-70" x="1560.888672"/>
      <use xlink:href="#DejaVuSans-75" x="1624.365234"/>
      <use xlink:href="#DejaVuSans-72" x="1687.744141"/>
      <use xlink:href="#DejaVuSans-65" x="1726.607422"/>
      <use xlink:href="#DejaVuSans-29" x="1788.130859"/>
     </g>
    </g>
    <g id="line2d_31">
     <path d="M 368.289766 57.564922 
L 376.789766 57.564922 
L 385.289766 57.564922 
" style="fill: none; stroke-dasharray: 7.4,3.2; stroke-dashoffset: 0; stroke: #2e8b57; stroke-width: 2"/>
    </g>
    <g id="text_18">
     <!-- Onde diffusive (atténuée) -->
     <g transform="translate(392.089766 60.539922) scale(0.085 -0.085)">
      <defs>
       <path id="DejaVuSans-66" d="M 2375 4863 
L 2375 4384 
L 1825 4384 
Q 1516 4384 1395 4259 
Q 1275 4134 1275 3809 
L 1275 3500 
L 2222 3500 
L 2222 3053 
L 1275 3053 
L 1275 0 
L 697 0 
L 697 3053 
L 147 3053 
L 147 3500 
L 697 3500 
L 697 3744 
Q 697 4328 969 4595 
Q 1241 4863 1831 4863 
L 2375 4863 
z
" transform="scale(0.015625)"/>
       <path id="DejaVuSans-76" d="M 191 3500 
L 800 3500 
L 1894 563 
L 2988 3500 
L 3597 3500 
L 2284 0 
L 1503 0 
L 191 3500 
z
" transform="scale(0.015625)"/>
      </defs>
      <use xlink:href="#DejaVuSans-4f"/>
      <use xlink:href="#DejaVuSans-6e" x="78.710938"/>
      <use xlink:href="#DejaVuSans-64" x="142.089844"/>
      <use xlink:href="#DejaVuSans-65" x="205.566406"/>
      <use xlink:href="#DejaVuSans-20" x="267.089844"/>
      <use xlink:href="#DejaVuSans-64" x="298.876953"/>
      <use xlink:href="#DejaVuSans-69" x="362.353516"/>
      <use xlink:href="#DejaVuSans-66" x="390.136719"/>
      <use xlink:href="#DejaVuSans-66" x="425.341797"/>
      <use xlink:href="#DejaVuSans-75" x="460.546875"/>
      <use xlink:href="#DejaVuSans-73" x="523.925781"/>
      <use xlink:href="#DejaVuSans-69" x="576.025391"/>
      <use xlink:href="#DejaVuSans-76" x="603.808594"/>
      <use xlink:href="#DejaVuSans-65" x="662.988281"/>
      <use xlink:href="#DejaVuSans-20" x="724.511719"/>
      <use xlink:href="#DejaVuSans-28" x="756.298828"/>
      <use xlink:href="#DejaVuSans-61" x="795.3125"/>
      <use xlink:href="#DejaVuSans-74" x="856.591797"/>
      <use xlink:href="#DejaVuSans-74" x="895.800781"/>
      <use xlink:href="#DejaVuSans-e9" x="935.009766"/>
      <use xlink:href="#DejaVuSans-6e" x="996.533203"/>
      <use xlink:href="#DejaVuSans-75" x="1059.912109"/>
      <use xlink:href="#DejaVuSans-e9" x="1123.291016"/>
      <use xlink:href="#DejaVuSans-65" x="1184.814453"/>
      <use xlink:href="#DejaVuSans-29" x="1246.337891"/>
     </g>
    </g>
    <g id="line2d_32">
     <path d="M 368.289766 70.381328 
L 376.789766 70.381328 
L 385.289766 70.381328 
" style="fill: none; stroke: #1f4e79; stroke-width: 2.5; stroke-linecap: square"/>
    </g>
    <g id="text_19">
     <!-- Onde dynamique (complète) -->
     <g transform="translate(392.089766 73.356328) scale(0.085 -0.085)">
      <defs>
       <path id="DejaVuSans-e8" d="M 3597 1894 
L 3597 1613 
L 953 1613 
Q 991 1019 1311 708 
Q 1631 397 2203 397 
Q 2534 397 2845 478 
Q 3156 559 3463 722 
L 3463 178 
Q 3153 47 2828 -22 
Q 2503 -91 2169 -91 
Q 1331 -91 842 396 
Q 353 884 353 1716 
Q 353 2575 817 3079 
Q 1281 3584 2069 3584 
Q 2775 3584 3186 3129 
Q 3597 2675 3597 1894 
z
M 3022 2063 
Q 3016 2534 2758 2815 
Q 2500 3097 2075 3097 
Q 1594 3097 1305 2825 
Q 1016 2553 972 2059 
L 3022 2063 
z
M 1579 5119 
L 2460 3950 
L 1982 3950 
L 963 5119 
L 1579 5119 
z
" transform="scale(0.015625)"/>
      </defs>
      <use xlink:href="#DejaVuSans-4f"/>
      <use xlink:href="#DejaVuSans-6e" x="78.710938"/>
      <use xlink:href="#DejaVuSans-64" x="142.089844"/>
      <use xlink:href="#DejaVuSans-65" x="205.566406"/>
      <use xlink:href="#DejaVuSans-20" x="267.089844"/>
      <use xlink:href="#DejaVuSans-64" x="298.876953"/>
      <use xlink:href="#DejaVuSans-79" x="362.353516"/>
      <use xlink:href="#DejaVuSans-6e" x="421.533203"/>
      <use xlink:href="#DejaVuSans-61" x="484.912109"/>
      <use xlink:href="#DejaVuSans-6d" x="546.191406"/>
      <use xlink:href="#DejaVuSans-69" x="643.603516"/>
      <use xlink:href="#DejaVuSans-71" x="671.386719"/>
      <use xlink:href="#DejaVuSans-75" x="734.863281"/>
      <use xlink:href="#DejaVuSans-65" x="798.242188"/>
      <use xlink:href="#DejaVuSans-20" x="859.765625"/>
      <use xlink:href="#DejaVuSans-28" x="891.552734"/>
      <use xlink:href="#DejaVuSans-63" x="930.566406"/>
      <use xlink:href="#DejaVuSans-6f" x="985.546875"/>
      <use xlink:href="#DejaVuSans-6d" x="1046.728516"/>
      <use xlink:href="#DejaVuSans-70" x="1144.140625"/>
      <use xlink:href="#DejaVuSans-6c" x="1207.617188"/>
      <use xlink:href="#DejaVuSans-e8" x="1235.400391"/>
      <use xlink:href="#DejaVuSans-74" x="1296.923828"/>
      <use xlink:href="#DejaVuSans-65" x="1336.132812"/>
      <use xlink:href="#DejaVuSans-29" x="1397.65625"/>
     </g>
    </g>
   </g>
  </g>
 </g>
 <defs>
  <clipPath id="paea6a9408c">
   <rect x="40.427969" y="20.798437" width="514.61875" height="224.65"/>
  </clipPath>
 </defs>
</svg>
