<?xml version="1.0" encoding="utf-8" standalone="no"?>
<!DOCTYPE svg PUBLIC "-//W3C//DTD SVG 1.1//EN"
  "http://www.w3.org/Graphics/SVG/1.1/DTD/svg11.dtd">
<svg xmlns:xlink="http://www.w3.org/1999/xlink" width="640.123672pt" height="317.113281pt" viewBox="0 0 640.123672 317.113281" xmlns="http://www.w3.org/2000/svg" version="1.1">
 <metadata>
  <rdf:RDF xmlns:dc="http://purl.org/dc/elements/1.1/" xmlns:cc="http://creativecommons.org/ns#" xmlns:rdf="http://www.w3.org/1999/02/22-rdf-syntax-ns#">
   <cc:Work>
    <dc:type rdf:resource="http://purl.org/dc/dcmitype/StillImage"/>
    <dc:date>2026-05-17T22:37:43.231031</dc:date>
    <dc:format>image/svg+xml</dc:format>
    <dc:creator>
     <cc:Agent>
      <dc:title>Matplotlib v3.9.2, https://matplotlib.org/</dc:title>
     </cc:Agent>
    </dc:creator>
   </cc:Work>
  </rdf:RDF>
 </metadata>
 <defs>
  <style type="text/css">*{stroke-linejoin: round; stroke-linecap: butt}</style>
 </defs>
 <g id="figure_1">
  <g id="patch_1">
   <path d="M 0 317.113281 
L 640.123672 317.113281 
L 640.123672 0 
L 0 0 
z
" style="fill: #ffffff"/>
  </g>
  <g id="axes_1">
   <g id="patch_2">
    <path d="M 45.209297 281.976562 
L 627.515547 281.976562 
L 627.515547 22.451562 
L 45.209297 22.451562 
z
" style="fill: #ffffff"/>
   </g>
   <g id="patch_3">
    <path d="M 45.209297 281.976562 
L 132.555234 281.976562 
L 132.555234 22.451562 
L 45.209297 22.451562 
z
" clip-path="url(#pf89ee3429e)" style="fill: #c0392b; opacity: 0.06; stroke: #c0392b; stroke-linejoin: miter"/>
   </g>
   <g id="patch_4">
    <path d="M 132.555234 281.976562 
L 307.247109 281.976562 
L 307.247109 22.451562 
L 132.555234 22.451562 
z
" clip-path="url(#pf89ee3429e)" style="fill: #e67e22; opacity: 0.06; stroke: #e67e22; stroke-linejoin: miter"/>
   </g>
   <g id="patch_5">
    <path d="M 307.247109 281.976562 
L 481.938984 281.976562 
L 481.938984 22.451562 
L 307.247109 22.451562 
z
" clip-path="url(#pf89ee3429e)" style="fill: #1f4e79; opacity: 0.06; stroke: #1f4e79; stroke-linejoin: miter"/>
   </g>
   <g id="matplotlib.axis_1">
    <g id="xtick_1">
     <g id="line2d_1">
      <path d="M 45.209297 281.976562 
L 45.209297 22.451562 
" clip-path="url(#pf89ee3429e)" style="fill: none; stroke: #b0b0b0; stroke-opacity: 0.2; stroke-width: 0.8; stroke-linecap: square"/>
     </g>
     <g id="line2d_2">
      <defs>
       <path id="m91174e827e" d="M 0 0 
L 0 3.5 
" style="stroke: #000000; stroke-width: 0.8"/>
      </defs>
      <g>
       <use xlink:href="#m91174e827e" x="45.209297" y="281.976562" style="stroke: #000000; stroke-width: 0.8"/>
      </g>
     </g>
     <g id="text_1">
      <!-- 0 -->
      <g transform="translate(42.505234 295.435234) scale(0.085 -0.085)">
       <defs>
        <path id="DejaVuSans-30" d="M 2034 4250 
Q 1547 4250 1301 3770 
Q 1056 3291 1056 2328 
Q 1056 1369 1301 889 
Q 1547 409 2034 409 
Q 2525 409 2770 889 
Q 3016 1369 3016 2328 
Q 3016 3291 2770 3770 
Q 2525 4250 2034 4250 
z
M 2034 4750 
Q 2819 4750 3233 4129 
Q 3647 3509 3647 2328 
Q 3647 1150 3233 529 
Q 2819 -91 2034 -91 
Q 1250 -91 836 529 
Q 422 1150 422 2328 
Q 422 3509 836 4129 
Q 1250 4750 2034 4750 
z
" transform="scale(0.015625)"/>
       </defs>
       <use xlink:href="#DejaVuSans-30"/>
      </g>
     </g>
    </g>
    <g id="xtick_2">
     <g id="line2d_3">
      <path d="M 161.670547 281.976562 
L 161.670547 22.451562 
" clip-path="url(#pf89ee3429e)" style="fill: none; stroke: #b0b0b0; stroke-opacity: 0.2; stroke-width: 0.8; stroke-linecap: square"/>
     </g>
     <g id="line2d_4">
      <g>
       <use xlink:href="#m91174e827e" x="161.670547" y="281.976562" style="stroke: #000000; stroke-width: 0.8"/>
      </g>
     </g>
     <g id="text_2">
      <!-- 2 -->
      <g transform="translate(158.966484 295.435234) scale(0.085 -0.085)">
       <defs>
        <path id="DejaVuSans-32" d="M 1228 531 
L 3431 531 
L 3431 0 
L 469 0 
L 469 531 
Q 828 903 1448 1529 
Q 2069 2156 2228 2338 
Q 2531 2678 2651 2914 
Q 2772 3150 2772 3378 
Q 2772 3750 2511 3984 
Q 2250 4219 1831 4219 
Q 1534 4219 1204 4116 
Q 875 4013 500 3803 
L 500 4441 
Q 881 4594 1212 4672 
Q 1544 4750 1819 4750 
Q 2544 4750 2975 4387 
Q 3406 4025 3406 3419 
Q 3406 3131 3298 2873 
Q 3191 2616 2906 2266 
Q 2828 2175 2409 1742 
Q 1991 1309 1228 531 
z
" transform="scale(0.015625)"/>
       </defs>
       <use xlink:href="#DejaVuSans-32"/>
      </g>
     </g>
    </g>
    <g id="xtick_3">
     <g id="line2d_5">
      <path d="M 278.131797 281.976562 
L 278.131797 22.451562 
" clip-path="url(#pf89ee3429e)" style="fill: none; stroke: #b0b0b0; stroke-opacity: 0.2; stroke-width: 0.8; stroke-linecap: square"/>
     </g>
     <g id="line2d_6">
      <g>
       <use xlink:href="#m91174e827e" x="278.131797" y="281.976562" style="stroke: #000000; stroke-width: 0.8"/>
      </g>
     </g>
     <g id="text_3">
      <!-- 4 -->
      <g transform="translate(275.427734 295.435234) scale(0.085 -0.085)">
       <defs>
        <path id="DejaVuSans-34" d="M 2419 4116 
L 825 1625 
L 2419 1625 
L 2419 4116 
z
M 2253 4666 
L 3047 4666 
L 3047 1625 
L 3713 1625 
L 3713 1100 
L 3047 1100 
L 3047 0 
L 2419 0 
L 2419 1100 
L 313 1100 
L 313 1709 
L 2253 4666 
z
" transform="scale(0.015625)"/>
       </defs>
       <use xlink:href="#DejaVuSans-34"/>
      </g>
     </g>
    </g>
    <g id="xtick_4">
     <g id="line2d_7">
      <path d="M 394.593047 281.976562 
L 394.593047 22.451562 
" clip-path="url(#pf89ee3429e)" style="fill: none; stroke: #b0b0b0; stroke-opacity: 0.2; stroke-width: 0.8; stroke-linecap: square"/>
     </g>
     <g id="line2d_8">
      <g>
       <use xlink:href="#m91174e827e" x="394.593047" y="281.976562" style="stroke: #000000; stroke-width: 0.8"/>
      </g>
     </g>
     <g id="text_4">
      <!-- 6 -->
      <g transform="translate(391.888984 295.435234) scale(0.085 -0.085)">
       <defs>
        <path id="DejaVuSans-36" d="M 2113 2584 
Q 1688 2584 1439 2293 
Q 1191 2003 1191 1497 
Q 1191 994 1439 701 
Q 1688 409 2113 409 
Q 2538 409 2786 701 
Q 3034 994 3034 1497 
Q 3034 2003 2786 2293 
Q 2538 2584 2113 2584 
z
M 3366 4563 
L 3366 3988 
Q 3128 4100 2886 4159 
Q 2644 4219 2406 4219 
Q 1781 4219 1451 3797 
Q 1122 3375 1075 2522 
Q 1259 2794 1537 2939 
Q 1816 3084 2150 3084 
Q 2853 3084 3261 2657 
Q 3669 2231 3669 1497 
Q 3669 778 3244 343 
Q 2819 -91 2113 -91 
Q 1303 -91 875 529 
Q 447 1150 447 2328 
Q 447 3434 972 4092 
Q 1497 4750 2381 4750 
Q 2619 4750 2861 4703 
Q 3103 4656 3366 4563 
z
" transform="scale(0.015625)"/>
       </defs>
       <use xlink:href="#DejaVuSans-36"/>
      </g>
     </g>
    </g>
    <g id="xtick_5">
     <g id="line2d_9">
      <path d="M 511.054297 281.976562 
L 511.054297 22.451562 
" clip-path="url(#pf89ee3429e)" style="fill: none; stroke: #b0b0b0; stroke-opacity: 0.2; stroke-width: 0.8; stroke-linecap: square"/>
     </g>
     <g id="line2d_10">
      <g>
       <use xlink:href="#m91174e827e" x="511.054297" y="281.976562" style="stroke: #000000; stroke-width: 0.8"/>
      </g>
     </g>
     <g id="text_5">
      <!-- 8 -->
      <g transform="translate(508.350234 295.435234) scale(0.085 -0.085)">
       <defs>
        <path id="DejaVuSans-38" d="M 2034 2216 
Q 1584 2216 1326 1975 
Q 1069 1734 1069 1313 
Q 1069 891 1326 650 
Q 1584 409 2034 409 
Q 2484 409 2743 651 
Q 3003 894 3003 1313 
Q 3003 1734 2745 1975 
Q 2488 2216 2034 2216 
z
M 1403 2484 
Q 997 2584 770 2862 
Q 544 3141 544 3541 
Q 544 4100 942 4425 
Q 1341 4750 2034 4750 
Q 2731 4750 3128 4425 
Q 3525 4100 3525 3541 
Q 3525 3141 3298 2862 
Q 3072 2584 2669 2484 
Q 3125 2378 3379 2068 
Q 3634 1759 3634 1313 
Q 3634 634 3220 271 
Q 2806 -91 2034 -91 
Q 1263 -91 848 271 
Q 434 634 434 1313 
Q 434 1759 690 2068 
Q 947 2378 1403 2484 
z
M 1172 3481 
Q 1172 3119 1398 2916 
Q 1625 2713 2034 2713 
Q 2441 2713 2670 2916 
Q 2900 3119 2900 3481 
Q 2900 3844 2670 4047 
Q 2441 4250 2034 4250 
Q 1625 4250 1398 4047 
Q 1172 3844 1172 3481 
z
" transform="scale(0.015625)"/>
       </defs>
       <use xlink:href="#DejaVuSans-38"/>
      </g>
     </g>
    </g>
    <g id="xtick_6">
     <g id="line2d_11">
      <path d="M 627.515547 281.976562 
L 627.515547 22.451562 
" clip-path="url(#pf89ee3429e)" style="fill: none; stroke: #b0b0b0; stroke-opacity: 0.2; stroke-width: 0.8; stroke-linecap: square"/>
     </g>
     <g id="line2d_12">
      <g>
       <use xlink:href="#m91174e827e" x="627.515547" y="281.976562" style="stroke: #000000; stroke-width: 0.8"/>
      </g>
     </g>
     <g id="text_6">
      <!-- 10 -->
      <g transform="translate(622.107422 295.435234) scale(0.085 -0.085)">
       <defs>
        <path id="DejaVuSans-31" d="M 794 531 
L 1825 531 
L 1825 4091 
L 703 3866 
L 703 4441 
L 1819 4666 
L 2450 4666 
L 2450 531 
L 3481 531 
L 3481 0 
L 794 0 
L 794 531 
z
" transform="scale(0.015625)"/>
       </defs>
       <use xlink:href="#DejaVuSans-31"/>
       <use xlink:href="#DejaVuSans-30" x="63.623047"/>
      </g>
     </g>
    </g>
    <g id="text_7">
     <!-- Temps (s) -->
     <g transform="translate(314.739922 308.041562) scale(0.09 -0.09)">
      <defs>
       <path id="DejaVuSans-54" d="M -19 4666 
L 3928 4666 
L 3928 4134 
L 2272 4134 
L 2272 0 
L 1638 0 
L 1638 4134 
L -19 4134 
L -19 4666 
z
" transform="scale(0.015625)"/>
       <path id="DejaVuSans-65" d="M 3597 1894 
L 3597 1613 
L 953 1613 
Q 991 1019 1311 708 
Q 1631 397 2203 397 
Q 2534 397 2845 478 
Q 3156 559 3463 722 
L 3463 178 
Q 3153 47 2828 -22 
Q 2503 -91 2169 -91 
Q 1331 -91 842 396 
Q 353 884 353 1716 
Q 353 2575 817 3079 
Q 1281 3584 2069 3584 
Q 2775 3584 3186 3129 
Q 3597 2675 3597 1894 
z
M 3022 2063 
Q 3016 2534 2758 2815 
Q 2500 3097 2075 3097 
Q 1594 3097 1305 2825 
Q 1016 2553 972 2059 
L 3022 2063 
z
" transform="scale(0.015625)"/>
       <path id="DejaVuSans-6d" d="M 3328 2828 
Q 3544 3216 3844 3400 
Q 4144 3584 4550 3584 
Q 5097 3584 5394 3201 
Q 5691 2819 5691 2113 
L 5691 0 
L 5113 0 
L 5113 2094 
Q 5113 2597 4934 2840 
Q 4756 3084 4391 3084 
Q 3944 3084 3684 2787 
Q 3425 2491 3425 1978 
L 3425 0 
L 2847 0 
L 2847 2094 
Q 2847 2600 2669 2842 
Q 2491 3084 2119 3084 
Q 1678 3084 1418 2786 
Q 1159 2488 1159 1978 
L 1159 0 
L 581 0 
L 581 3500 
L 1159 3500 
L 1159 2956 
Q 1356 3278 1631 3431 
Q 1906 3584 2284 3584 
Q 2666 3584 2933 3390 
Q 3200 3197 3328 2828 
z
" transform="scale(0.015625)"/>
       <path id="DejaVuSans-70" d="M 1159 525 
L 1159 -1331 
L 581 -1331 
L 581 3500 
L 1159 3500 
L 1159 2969 
Q 1341 3281 1617 3432 
Q 1894 3584 2278 3584 
Q 2916 3584 3314 3078 
Q 3713 2572 3713 1747 
Q 3713 922 3314 415 
Q 2916 -91 2278 -91 
Q 1894 -91 1617 61 
Q 1341 213 1159 525 
z
M 3116 1747 
Q 3116 2381 2855 2742 
Q 2594 3103 2138 3103 
Q 1681 3103 1420 2742 
Q 1159 2381 1159 1747 
Q 1159 1113 1420 752 
Q 1681 391 2138 391 
Q 2594 391 2855 752 
Q 3116 1113 3116 1747 
z
" transform="scale(0.015625)"/>
       <path id="DejaVuSans-73" d="M 2834 3397 
L 2834 2853 
Q 2591 2978 2328 3040 
Q 2066 3103 1784 3103 
Q 1356 3103 1142 2972 
Q 928 2841 928 2578 
Q 928 2378 1081 2264 
Q 1234 2150 1697 2047 
L 1894 2003 
Q 2506 1872 2764 1633 
Q 3022 1394 3022 966 
Q 3022 478 2636 193 
Q 2250 -91 1575 -91 
Q 1294 -91 989 -36 
Q 684 19 347 128 
L 347 722 
Q 666 556 975 473 
Q 1284 391 1588 391 
Q 1994 391 2212 530 
Q 2431 669 2431 922 
Q 2431 1156 2273 1281 
Q 2116 1406 1581 1522 
L 1381 1569 
Q 847 1681 609 1914 
Q 372 2147 372 2553 
Q 372 3047 722 3315 
Q 1072 3584 1716 3584 
Q 2034 3584 2315 3537 
Q 2597 3491 2834 3397 
z
" transform="scale(0.015625)"/>
       <path id="DejaVuSans-20" transform="scale(0.015625)"/>
       <path id="DejaVuSans-28" d="M 1984 4856 
Q 1566 4138 1362 3434 
Q 1159 2731 1159 2009 
Q 1159 1288 1364 580 
Q 1569 -128 1984 -844 
L 1484 -844 
Q 1016 -109 783 600 
Q 550 1309 550 2009 
Q 550 2706 781 3412 
Q 1013 4119 1484 4856 
L 1984 4856 
z
" transform="scale(0.015625)"/>
       <path id="DejaVuSans-29" d="M 513 4856 
L 1013 4856 
Q 1481 4119 1714 3412 
Q 1947 2706 1947 2009 
Q 1947 1309 1714 600 
Q 1481 -109 1013 -844 
L 513 -844 
Q 928 -128 1133 580 
Q 1338 1288 1338 2009 
Q 1338 2731 1133 3434 
Q 928 4138 513 4856 
z
" transform="scale(0.015625)"/>
      </defs>
      <use xlink:href="#DejaVuSans-54"/>
      <use xlink:href="#DejaVuSans-65" x="44.083984"/>
      <use xlink:href="#DejaVuSans-6d" x="105.607422"/>
      <use xlink:href="#DejaVuSans-70" x="203.019531"/>
      <use xlink:href="#DejaVuSans-73" x="266.496094"/>
      <use xlink:href="#DejaVuSans-20" x="318.595703"/>
      <use xlink:href="#DejaVuSans-28" x="350.382812"/>
      <use xlink:href="#DejaVuSans-73" x="389.396484"/>
      <use xlink:href="#DejaVuSans-29" x="441.496094"/>
     </g>
    </g>
   </g>
   <g id="matplotlib.axis_2">
    <g id="ytick_1">
     <g id="line2d_13">
      <path d="M 45.209297 281.976562 
L 627.515547 281.976562 
" clip-path="url(#pf89ee3429e)" style="fill: none; stroke: #b0b0b0; stroke-opacity: 0.2; stroke-width: 0.8; stroke-linecap: square"/>
     </g>
     <g id="line2d_14">
      <defs>
       <path id="m967c98a438" d="M 0 0 
L -3.5 0 
" style="stroke: #000000; stroke-width: 0.8"/>
      </defs>
      <g>
       <use xlink:href="#m967c98a438" x="45.209297" y="281.976562" style="stroke: #000000; stroke-width: 0.8"/>
      </g>
     </g>
     <g id="text_8">
      <!-- −20 -->
      <g transform="translate(20.270313 285.205898) scale(0.085 -0.085)">
       <defs>
        <path id="DejaVuSans-2212" d="M 678 2272 
L 4684 2272 
L 4684 1741 
L 678 1741 
L 678 2272 
z
" transform="scale(0.015625)"/>
       </defs>
       <use xlink:href="#DejaVuSans-2212"/>
       <use xlink:href="#DejaVuSans-32" x="83.789062"/>
       <use xlink:href="#DejaVuSans-30" x="147.412109"/>
      </g>
     </g>
    </g>
    <g id="ytick_2">
     <g id="line2d_15">
      <path d="M 45.209297 227.33972 
L 627.515547 227.33972 
" clip-path="url(#pf89ee3429e)" style="fill: none; stroke: #b0b0b0; stroke-opacity: 0.2; stroke-width: 0.8; stroke-linecap: square"/>
     </g>
     <g id="line2d_16">
      <g>
       <use xlink:href="#m967c98a438" x="45.209297" y="227.33972" style="stroke: #000000; stroke-width: 0.8"/>
      </g>
     </g>
     <g id="text_9">
      <!-- 0 -->
      <g transform="translate(32.801172 230.569056) scale(0.085 -0.085)">
       <use xlink:href="#DejaVuSans-30"/>
      </g>
     </g>
    </g>
    <g id="ytick_3">
     <g id="line2d_17">
      <path d="M 45.209297 172.702878 
L 627.515547 172.702878 
" clip-path="url(#pf89ee3429e)" style="fill: none; stroke: #b0b0b0; stroke-opacity: 0.2; stroke-width: 0.8; stroke-linecap: square"/>
     </g>
     <g id="line2d_18">
      <g>
       <use xlink:href="#m967c98a438" x="45.209297" y="172.702878" style="stroke: #000000; stroke-width: 0.8"/>
      </g>
     </g>
     <g id="text_10">
      <!-- 20 -->
      <g transform="translate(27.393047 175.932214) scale(0.085 -0.085)">
       <use xlink:href="#DejaVuSans-32"/>
       <use xlink:href="#DejaVuSans-30" x="63.623047"/>
      </g>
     </g>
    </g>
    <g id="ytick_4">
     <g id="line2d_19">
      <path d="M 45.209297 118.066036 
L 627.515547 118.066036 
" clip-path="url(#pf89ee3429e)" style="fill: none; stroke: #b0b0b0; stroke-opacity: 0.2; stroke-width: 0.8; stroke-linecap: square"/>
     </g>
     <g id="line2d_20">
      <g>
       <use xlink:href="#m967c98a438" x="45.209297" y="118.066036" style="stroke: #000000; stroke-width: 0.8"/>
      </g>
     </g>
     <g id="text_11">
      <!-- 40 -->
      <g transform="translate(27.393047 121.295372) scale(0.085 -0.085)">
       <use xlink:href="#DejaVuSans-34"/>
       <use xlink:href="#DejaVuSans-30" x="63.623047"/>
      </g>
     </g>
    </g>
    <g id="ytick_5">
     <g id="line2d_21">
      <path d="M 45.209297 63.429194 
L 627.515547 63.429194 
" clip-path="url(#pf89ee3429e)" style="fill: none; stroke: #b0b0b0; stroke-opacity: 0.2; stroke-width: 0.8; stroke-linecap: square"/>
     </g>
     <g id="line2d_22">
      <g>
       <use xlink:href="#m967c98a438" x="45.209297" y="63.429194" style="stroke: #000000; stroke-width: 0.8"/>
      </g>
     </g>
     <g id="text_12">
      <!-- 60 -->
      <g transform="translate(27.393047 66.65853) scale(0.085 -0.085)">
       <use xlink:href="#DejaVuSans-36"/>
       <use xlink:href="#DejaVuSans-30" x="63.623047"/>
      </g>
     </g>
    </g>
    <g id="text_13">
     <!-- Pression (m de charge manométrique) -->
     <g transform="translate(14.398594 238.872109) rotate(-90) scale(0.09 -0.09)">
      <defs>
       <path id="DejaVuSans-50" d="M 1259 4147 
L 1259 2394 
L 2053 2394 
Q 2494 2394 2734 2622 
Q 2975 2850 2975 3272 
Q 2975 3691 2734 3919 
Q 2494 4147 2053 4147 
L 1259 4147 
z
M 628 4666 
L 2053 4666 
Q 2838 4666 3239 4311 
Q 3641 3956 3641 3272 
Q 3641 2581 3239 2228 
Q 2838 1875 2053 1875 
L 1259 1875 
L 1259 0 
L 628 0 
L 628 4666 
z
" transform="scale(0.015625)"/>
       <path id="DejaVuSans-72" d="M 2631 2963 
Q 2534 3019 2420 3045 
Q 2306 3072 2169 3072 
Q 1681 3072 1420 2755 
Q 1159 2438 1159 1844 
L 1159 0 
L 581 0 
L 581 3500 
L 1159 3500 
L 1159 2956 
Q 1341 3275 1631 3429 
Q 1922 3584 2338 3584 
Q 2397 3584 2469 3576 
Q 2541 3569 2628 3553 
L 2631 2963 
z
" transform="scale(0.015625)"/>
       <path id="DejaVuSans-69" d="M 603 3500 
L 1178 3500 
L 1178 0 
L 603 0 
L 603 3500 
z
M 603 4863 
L 1178 4863 
L 1178 4134 
L 603 4134 
L 603 4863 
z
" transform="scale(0.015625)"/>
       <path id="DejaVuSans-6f" d="M 1959 3097 
Q 1497 3097 1228 2736 
Q 959 2375 959 1747 
Q 959 1119 1226 758 
Q 1494 397 1959 397 
Q 2419 397 2687 759 
Q 2956 1122 2956 1747 
Q 2956 2369 2687 2733 
Q 2419 3097 1959 3097 
z
M 1959 3584 
Q 2709 3584 3137 3096 
Q 3566 2609 3566 1747 
Q 3566 888 3137 398 
Q 2709 -91 1959 -91 
Q 1206 -91 779 398 
Q 353 888 353 1747 
Q 353 2609 779 3096 
Q 1206 3584 1959 3584 
z
" transform="scale(0.015625)"/>
       <path id="DejaVuSans-6e" d="M 3513 2113 
L 3513 0 
L 2938 0 
L 2938 2094 
Q 2938 2591 2744 2837 
Q 2550 3084 2163 3084 
Q 1697 3084 1428 2787 
Q 1159 2491 1159 1978 
L 1159 0 
L 581 0 
L 581 3500 
L 1159 3500 
L 1159 2956 
Q 1366 3272 1645 3428 
Q 1925 3584 2291 3584 
Q 2894 3584 3203 3211 
Q 3513 2838 3513 2113 
z
" transform="scale(0.015625)"/>
       <path id="DejaVuSans-64" d="M 2906 2969 
L 2906 4863 
L 3481 4863 
L 3481 0 
L 2906 0 
L 2906 525 
Q 2725 213 2448 61 
Q 2172 -91 1784 -91 
Q 1150 -91 751 415 
Q 353 922 353 1747 
Q 353 2572 751 3078 
Q 1150 3584 1784 3584 
Q 2172 3584 2448 3432 
Q 2725 3281 2906 2969 
z
M 947 1747 
Q 947 1113 1208 752 
Q 1469 391 1925 391 
Q 2381 391 2643 752 
Q 2906 1113 2906 1747 
Q 2906 2381 2643 2742 
Q 2381 3103 1925 3103 
Q 1469 3103 1208 2742 
Q 947 2381 947 1747 
z
" transform="scale(0.015625)"/>
       <path id="DejaVuSans-63" d="M 3122 3366 
L 3122 2828 
Q 2878 2963 2633 3030 
Q 2388 3097 2138 3097 
Q 1578 3097 1268 2742 
Q 959 2388 959 1747 
Q 959 1106 1268 751 
Q 1578 397 2138 397 
Q 2388 397 2633 464 
Q 2878 531 3122 666 
L 3122 134 
Q 2881 22 2623 -34 
Q 2366 -91 2075 -91 
Q 1284 -91 818 406 
Q 353 903 353 1747 
Q 353 2603 823 3093 
Q 1294 3584 2113 3584 
Q 2378 3584 2631 3529 
Q 2884 3475 3122 3366 
z
" transform="scale(0.015625)"/>
       <path id="DejaVuSans-68" d="M 3513 2113 
L 3513 0 
L 2938 0 
L 2938 2094 
Q 2938 2591 2744 2837 
Q 2550 3084 2163 3084 
Q 1697 3084 1428 2787 
Q 1159 2491 1159 1978 
L 1159 0 
L 581 0 
L 581 4863 
L 1159 4863 
L 1159 2956 
Q 1366 3272 1645 3428 
Q 1925 3584 2291 3584 
Q 2894 3584 3203 3211 
Q 3513 2838 3513 2113 
z
" transform="scale(0.015625)"/>
       <path id="DejaVuSans-61" d="M 2194 1759 
Q 1497 1759 1228 1600 
Q 959 1441 959 1056 
Q 959 750 1161 570 
Q 1363 391 1709 391 
Q 2188 391 2477 730 
Q 2766 1069 2766 1631 
L 2766 1759 
L 2194 1759 
z
M 3341 1997 
L 3341 0 
L 2766 0 
L 2766 531 
Q 2569 213 2275 61 
Q 1981 -91 1556 -91 
Q 1019 -91 701 211 
Q 384 513 384 1019 
Q 384 1609 779 1909 
Q 1175 2209 1959 2209 
L 2766 2209 
L 2766 2266 
Q 2766 2663 2505 2880 
Q 2244 3097 1772 3097 
Q 1472 3097 1187 3025 
Q 903 2953 641 2809 
L 641 3341 
Q 956 3463 1253 3523 
Q 1550 3584 1831 3584 
Q 2591 3584 2966 3190 
Q 3341 2797 3341 1997 
z
" transform="scale(0.015625)"/>
       <path id="DejaVuSans-67" d="M 2906 1791 
Q 2906 2416 2648 2759 
Q 2391 3103 1925 3103 
Q 1463 3103 1205 2759 
Q 947 2416 947 1791 
Q 947 1169 1205 825 
Q 1463 481 1925 481 
Q 2391 481 2648 825 
Q 2906 1169 2906 1791 
z
M 3481 434 
Q 3481 -459 3084 -895 
Q 2688 -1331 1869 -1331 
Q 1566 -1331 1297 -1286 
Q 1028 -1241 775 -1147 
L 775 -588 
Q 1028 -725 1275 -790 
Q 1522 -856 1778 -856 
Q 2344 -856 2625 -561 
Q 2906 -266 2906 331 
L 2906 616 
Q 2728 306 2450 153 
Q 2172 0 1784 0 
Q 1141 0 747 490 
Q 353 981 353 1791 
Q 353 2603 747 3093 
Q 1141 3584 1784 3584 
Q 2172 3584 2450 3431 
Q 2728 3278 2906 2969 
L 2906 3500 
L 3481 3500 
L 3481 434 
z
" transform="scale(0.015625)"/>
       <path id="DejaVuSans-e9" d="M 3597 1894 
L 3597 1613 
L 953 1613 
Q 991 1019 1311 708 
Q 1631 397 2203 397 
Q 2534 397 2845 478 
Q 3156 559 3463 722 
L 3463 178 
Q 3153 47 2828 -22 
Q 2503 -91 2169 -91 
Q 1331 -91 842 396 
Q 353 884 353 1716 
Q 353 2575 817 3079 
Q 1281 3584 2069 3584 
Q 2775 3584 3186 3129 
Q 3597 2675 3597 1894 
z
M 3022 2063 
Q 3016 2534 2758 2815 
Q 2500 3097 2075 3097 
Q 1594 3097 1305 2825 
Q 1016 2553 972 2059 
L 3022 2063 
z
M 2466 5119 
L 3088 5119 
L 2070 3944 
L 1591 3944 
L 2466 5119 
z
" transform="scale(0.015625)"/>
       <path id="DejaVuSans-74" d="M 1172 4494 
L 1172 3500 
L 2356 3500 
L 2356 3053 
L 1172 3053 
L 1172 1153 
Q 1172 725 1289 603 
Q 1406 481 1766 481 
L 2356 481 
L 2356 0 
L 1766 0 
Q 1100 0 847 248 
Q 594 497 594 1153 
L 594 3053 
L 172 3053 
L 172 3500 
L 594 3500 
L 594 4494 
L 1172 4494 
z
" transform="scale(0.015625)"/>
       <path id="DejaVuSans-71" d="M 947 1747 
Q 947 1113 1208 752 
Q 1469 391 1925 391 
Q 2381 391 2643 752 
Q 2906 1113 2906 1747 
Q 2906 2381 2643 2742 
Q 2381 3103 1925 3103 
Q 1469 3103 1208 2742 
Q 947 2381 947 1747 
z
M 2906 525 
Q 2725 213 2448 61 
Q 2172 -91 1784 -91 
Q 1150 -91 751 415 
Q 353 922 353 1747 
Q 353 2572 751 3078 
Q 1150 3584 1784 3584 
Q 2172 3584 2448 3432 
Q 2725 3281 2906 2969 
L 2906 3500 
L 3481 3500 
L 3481 -1331 
L 2906 -1331 
L 2906 525 
z
" transform="scale(0.015625)"/>
       <path id="DejaVuSans-75" d="M 544 1381 
L 544 3500 
L 1119 3500 
L 1119 1403 
Q 1119 906 1312 657 
Q 1506 409 1894 409 
Q 2359 409 2629 706 
Q 2900 1003 2900 1516 
L 2900 3500 
L 3475 3500 
L 3475 0 
L 2900 0 
L 2900 538 
Q 2691 219 2414 64 
Q 2138 -91 1772 -91 
Q 1169 -91 856 284 
Q 544 659 544 1381 
z
M 1991 3584 
L 1991 3584 
z
" transform="scale(0.015625)"/>
      </defs>
      <use xlink:href="#DejaVuSans-50"/>
      <use xlink:href="#DejaVuSans-72" x="58.552734"/>
      <use xlink:href="#DejaVuSans-65" x="97.416016"/>
      <use xlink:href="#DejaVuSans-73" x="158.939453"/>
      <use xlink:href="#DejaVuSans-73" x="211.039062"/>
      <use xlink:href="#DejaVuSans-69" x="263.138672"/>
      <use xlink:href="#DejaVuSans-6f" x="290.921875"/>
      <use xlink:href="#DejaVuSans-6e" x="352.103516"/>
      <use xlink:href="#DejaVuSans-20" x="415.482422"/>
      <use xlink:href="#DejaVuSans-28" x="447.269531"/>
      <use xlink:href="#DejaVuSans-6d" x="486.283203"/>
      <use xlink:href="#DejaVuSans-20" x="583.695312"/>
      <use xlink:href="#DejaVuSans-64" x="615.482422"/>
      <use xlink:href="#DejaVuSans-65" x="678.958984"/>
      <use xlink:href="#DejaVuSans-20" x="740.482422"/>
      <use xlink:href="#DejaVuSans-63" x="772.269531"/>
      <use xlink:href="#DejaVuSans-68" x="827.25"/>
      <use xlink:href="#DejaVuSans-61" x="890.628906"/>
      <use xlink:href="#DejaVuSans-72" x="951.908203"/>
      <use xlink:href="#DejaVuSans-67" x="991.271484"/>
      <use xlink:href="#DejaVuSans-65" x="1054.748047"/>
      <use xlink:href="#DejaVuSans-20" x="1116.271484"/>
      <use xlink:href="#DejaVuSans-6d" x="1148.058594"/>
      <use xlink:href="#DejaVuSans-61" x="1245.470703"/>
      <use xlink:href="#DejaVuSans-6e" x="1306.75"/>
      <use xlink:href="#DejaVuSans-6f" x="1370.128906"/>
      <use xlink:href="#DejaVuSans-6d" x="1431.310547"/>
      <use xlink:href="#DejaVuSans-e9" x="1528.722656"/>
      <use xlink:href="#DejaVuSans-74" x="1590.246094"/>
      <use xlink:href="#DejaVuSans-72" x="1629.455078"/>
      <use xlink:href="#DejaVuSans-69" x="1670.568359"/>
      <use xlink:href="#DejaVuSans-71" x="1698.351562"/>
      <use xlink:href="#DejaVuSans-75" x="1761.828125"/>
      <use xlink:href="#DejaVuSans-65" x="1825.207031"/>
      <use xlink:href="#DejaVuSans-29" x="1886.730469"/>
     </g>
    </g>
   </g>
   <g id="line2d_23">
    <path d="M 45.209297 151.371389 
L 46.376243 152.054264 
L 47.54319 153.378805 
L 48.710136 155.267674 
L 49.877082 157.616565 
L 52.210975 163.21211 
L 56.878761 174.934942 
L 59.212654 179.925561 
L 61.546546 184.053946 
L 62.713493 185.796445 
L 63.880439 187.336782 
L 65.047386 188.687385 
L 66.214332 189.861556 
L 67.381278 190.872639 
L 69.715171 192.456411 
L 72.049064 193.532896 
L 74.382957 194.184232 
L 76.716849 194.480364 
L 79.050742 194.480682 
L 81.384635 194.23559 
L 83.718528 193.78783 
L 87.219367 192.813888 
L 90.720206 191.563831 
L 95.387992 189.598819 
L 101.222724 186.847437 
L 111.725241 181.560749 
L 126.895544 173.962519 
L 152.568365 161.312447 
L 158.403097 158.123646 
L 163.070883 155.363161 
L 167.738668 152.360089 
L 172.406454 149.062982 
L 177.074239 145.42497 
L 180.575078 142.449555 
L 184.075918 139.249932 
L 188.743703 134.626955 
L 193.411489 129.604129 
L 198.079274 124.214779 
L 203.914006 117.060774 
L 214.416524 103.63848 
L 220.251256 96.375494 
L 224.919041 90.950814 
L 228.419881 87.224064 
L 231.92072 83.870631 
L 234.254613 81.875475 
L 236.588505 80.093549 
L 238.922398 78.540496 
L 241.256291 77.229645 
L 243.590184 76.171738 
L 245.924076 75.37471 
L 248.257969 74.843528 
L 250.591862 74.58007 
L 252.925755 74.583077 
L 255.259648 74.84816 
L 257.59354 75.367864 
L 259.927433 76.131798 
L 262.261326 77.126814 
L 264.595219 78.337239 
L 266.929112 79.745151 
L 270.429951 82.183411 
L 273.93079 84.947568 
L 278.598575 89.003644 
L 285.600254 95.491863 
L 292.601932 101.915327 
L 297.269718 105.893936 
L 300.770557 108.626207 
L 304.271396 111.096264 
L 307.772235 113.273252 
L 311.273074 115.13631 
L 314.773914 116.674089 
L 318.274753 117.884012 
L 321.775592 118.771345 
L 325.276431 119.348163 
L 328.77727 119.632263 
L 332.27811 119.646094 
L 335.778949 119.415726 
L 339.279788 118.969913 
L 343.947573 118.093393 
L 348.615359 116.963578 
L 354.450091 115.310872 
L 373.121233 109.789275 
L 377.789019 108.677933 
L 382.456804 107.773224 
L 387.12459 107.109392 
L 391.792376 106.710796 
L 396.460161 106.591553 
L 401.127947 106.755517 
L 405.795732 107.196616 
L 410.463518 107.899572 
L 415.131303 108.84097 
L 419.799089 109.990652 
L 425.633821 111.666554 
L 432.635499 113.927175 
L 459.475266 122.886285 
L 466.476945 124.836397 
L 472.311677 126.257448 
L 478.146409 127.4842 
L 485.148087 128.703938 
L 492.149765 129.666903 
L 499.151444 130.402829 
L 507.320068 131.021464 
L 516.65564 131.481955 
L 528.325103 131.799879 
L 543.495407 131.96252 
L 570.335174 131.97796 
L 627.515547 131.871042 
L 627.515547 131.871042 
" clip-path="url(#pf89ee3429e)" style="fill: none; stroke: #1f4e79; stroke-width: 2.5; stroke-linecap: square"/>
   </g>
   <g id="line2d_24">
    <path d="M 45.209297 195.398776 
L 46.376243 195.742628 
L 47.54319 196.412088 
L 48.710136 197.372839 
L 49.877082 198.578419 
L 52.210975 201.507459 
L 59.212654 211.071874 
L 61.546546 213.80263 
L 63.880439 216.200553 
L 66.214332 218.278975 
L 68.548225 220.063789 
L 70.882118 221.583029 
L 73.21601 222.863517 
L 75.549903 223.929877 
L 77.883796 224.80435 
L 80.217689 225.507015 
L 83.718528 226.278049 
L 87.219367 226.75682 
L 90.720206 226.989547 
L 94.221045 227.01582 
L 98.888831 226.787551 
L 103.556617 226.318983 
L 109.391348 225.476989 
L 116.393027 224.197753 
L 124.561652 222.464702 
L 136.231116 219.739605 
L 151.401419 215.96216 
L 163.070883 212.834878 
L 171.239507 210.412104 
L 178.241186 208.079127 
L 184.075918 205.883477 
L 188.743703 203.921629 
L 193.411489 201.747815 
L 198.079274 199.339569 
L 202.74706 196.681997 
L 207.414845 193.770891 
L 212.082631 190.615687 
L 217.917363 186.369005 
L 224.919041 180.95231 
L 237.755452 170.923788 
L 242.423237 167.564314 
L 245.924076 165.250309 
L 249.424916 163.16131 
L 252.925755 161.337642 
L 256.426594 159.814598 
L 259.927433 158.620971 
L 262.261326 158.018976 
L 264.595219 157.577059 
L 266.929112 157.297553 
L 269.263004 157.180947 
L 271.596897 157.225876 
L 273.93079 157.429142 
L 277.431629 158.019598 
L 280.932468 158.931046 
L 284.433307 160.132339 
L 287.934147 161.586186 
L 291.434986 163.250662 
L 296.102771 165.719776 
L 303.10445 169.737126 
L 313.606967 175.791747 
L 319.441699 178.868116 
L 324.109485 181.083703 
L 328.77727 183.045133 
L 333.445056 184.737162 
L 338.112841 186.159131 
L 342.780627 187.322147 
L 347.448413 188.246022 
L 352.116198 188.956258 
L 357.95093 189.587094 
L 363.785662 189.985294 
L 370.78734 190.230649 
L 378.955965 190.294973 
L 390.625429 190.148681 
L 415.131303 189.544332 
L 453.640534 188.658529 
L 492.149765 188.012062 
L 537.660675 187.478342 
L 593.674101 187.052144 
L 627.515547 186.896209 
L 627.515547 186.896209 
" clip-path="url(#pf89ee3429e)" style="fill: none; stroke-dasharray: 8.14,3.52; stroke-dashoffset: 0; stroke: #2e8b57; stroke-width: 2.2"/>
   </g>
   <g id="line2d_25">
    <path d="M 45.209297 145.384457 
L 168.905615 145.285498 
L 179.408132 145.036998 
L 186.40981 144.636414 
L 191.077596 144.175705 
L 195.745382 143.479589 
L 199.246221 142.748925 
L 202.74706 141.789034 
L 206.247899 140.548194 
L 208.581792 139.537245 
L 210.915685 138.359123 
L 213.249577 136.996342 
L 215.58347 135.431756 
L 217.917363 133.649087 
L 220.251256 131.633535 
L 222.585149 129.372439 
L 224.919041 126.855986 
L 227.252934 124.077947 
L 229.586827 121.036401 
L 231.92072 117.734434 
L 235.421559 112.313948 
L 238.922398 106.38446 
L 242.423237 100.035577 
L 248.257969 88.873482 
L 255.259648 75.502325 
L 258.760487 69.29923 
L 261.09438 65.488974 
L 263.428272 62.011847 
L 265.762165 58.92672 
L 268.096058 56.287343 
L 270.429951 54.140788 
L 272.763843 52.526058 
L 273.93079 51.927812 
L 275.097736 51.472903 
L 276.264683 51.163452 
L 277.431629 51.000909 
L 278.598575 50.986033 
L 279.765522 51.118893 
L 280.932468 51.398863 
L 282.099415 51.824627 
L 283.266361 52.394193 
L 284.433307 53.104904 
L 286.7672 54.935948 
L 289.101093 57.284146 
L 291.434986 60.107068 
L 293.768879 63.354741 
L 296.102771 66.971108 
L 299.603611 72.953714 
L 303.10445 79.414574 
L 317.107806 105.92215 
L 320.608646 111.862126 
L 324.109485 117.290529 
L 326.443378 120.594125 
L 328.77727 123.632719 
L 331.111163 126.401722 
L 333.445056 128.901472 
L 335.778949 131.136527 
L 338.112841 133.114931 
L 340.446734 134.847461 
L 342.780627 136.346908 
L 345.11452 137.627393 
L 347.448413 138.703751 
L 349.782305 139.590986 
L 352.116198 140.303804 
L 355.617037 141.076435 
L 359.117877 141.531022 
L 362.618716 141.704337 
L 366.119555 141.626233 
L 369.620394 141.319703 
L 373.121233 140.801495 
L 376.622072 140.083124 
L 380.122912 139.172153 
L 383.623751 138.073634 
L 387.12459 136.7916 
L 391.792376 134.804727 
L 396.460161 132.515956 
L 401.127947 129.952076 
L 405.795732 127.154194 
L 412.797411 122.649292 
L 424.466875 115.018224 
L 429.13466 112.220429 
L 432.635499 110.319772 
L 436.136338 108.638389 
L 439.637178 107.217301 
L 443.138017 106.092238 
L 446.638856 105.292148 
L 448.972749 104.949992 
L 451.306642 104.765781 
L 453.640534 104.741693 
L 455.974427 104.878012 
L 458.30832 105.173127 
L 460.642213 105.623561 
L 464.143052 106.578434 
L 467.643891 107.845707 
L 471.14473 109.393107 
L 474.645569 111.182248 
L 479.313355 113.869205 
L 485.148087 117.558618 
L 501.485336 128.167017 
L 506.153122 130.898284 
L 510.820908 133.387465 
L 515.488693 135.604776 
L 520.156479 137.537331 
L 524.824264 139.186762 
L 529.49205 140.566273 
L 534.159835 141.697482 
L 538.827621 142.607362 
L 544.662353 143.478622 
L 550.497085 144.108455 
L 557.498763 144.62131 
L 565.667388 144.98393 
L 576.169906 145.221616 
L 593.674101 145.354044 
L 627.515547 145.383602 
L 627.515547 145.383602 
" clip-path="url(#pf89ee3429e)" style="fill: none; stroke-dasharray: 12.8,3.2,2,3.2; stroke-dashoffset: 0; stroke: #c0392b; stroke-width: 2"/>
   </g>
   <g id="line2d_26">
    <path d="M 45.209297 254.658141 
L 627.515547 254.658141 
" clip-path="url(#pf89ee3429e)" style="fill: none; stroke-dasharray: 1.8,2.97; stroke-dashoffset: 0; stroke: #c0392b; stroke-width: 1.8"/>
   </g>
   <g id="line2d_27">
    <path d="M 45.209297 227.33972 
L 627.515547 227.33972 
" clip-path="url(#pf89ee3429e)" style="fill: none; stroke-dasharray: 1,1.65; stroke-dashoffset: 0; stroke: #aaaaaa"/>
   </g>
   <g id="patch_6">
    <path d="M 45.209297 281.976562 
L 45.209297 22.451562 
" style="fill: none; stroke: #000000; stroke-width: 0.8; stroke-linejoin: miter; stroke-linecap: square"/>
   </g>
   <g id="patch_7">
    <path d="M 627.515547 281.976562 
L 627.515547 22.451562 
" style="fill: none; stroke: #000000; stroke-width: 0.8; stroke-linejoin: miter; stroke-linecap: square"/>
   </g>
   <g id="patch_8">
    <path d="M 45.209297 281.976562 
L 627.515547 281.976562 
" style="fill: none; stroke: #000000; stroke-width: 0.8; stroke-linejoin: miter; stroke-linecap: square"/>
   </g>
   <g id="patch_9">
    <path d="M 45.209297 22.451562 
L 627.515547 22.451562 
" style="fill: none; stroke: #000000; stroke-width: 0.8; stroke-linejoin: miter; stroke-linecap: square"/>
   </g>
   <g id="text_14">
    <!-- Arrêt brusque de pompe — Évolution temporelle de la pression -->
    <g transform="translate(178.612422 16.451562) scale(0.1 -0.1)">
     <defs>
      <path id="DejaVuSans-41" d="M 2188 4044 
L 1331 1722 
L 3047 1722 
L 2188 4044 
z
M 1831 4666 
L 2547 4666 
L 4325 0 
L 3669 0 
L 3244 1197 
L 1141 1197 
L 716 0 
L 50 0 
L 1831 4666 
z
" transform="scale(0.015625)"/>
      <path id="DejaVuSans-ea" d="M 3597 1894 
L 3597 1613 
L 953 1613 
Q 991 1019 1311 708 
Q 1631 397 2203 397 
Q 2534 397 2845 478 
Q 3156 559 3463 722 
L 3463 178 
Q 3153 47 2828 -22 
Q 2503 -91 2169 -91 
Q 1331 -91 842 396 
Q 353 884 353 1716 
Q 353 2575 817 3079 
Q 1281 3584 2069 3584 
Q 2775 3584 3186 3129 
Q 3597 2675 3597 1894 
z
M 3022 2063 
Q 3016 2534 2758 2815 
Q 2500 3097 2075 3097 
Q 1594 3097 1305 2825 
Q 1016 2553 972 2059 
L 3022 2063 
z
M 1801 5119 
L 2263 5119 
L 3029 3944 
L 2595 3944 
L 2032 4709 
L 1470 3944 
L 1035 3944 
L 1801 5119 
z
" transform="scale(0.015625)"/>
      <path id="DejaVuSans-62" d="M 3116 1747 
Q 3116 2381 2855 2742 
Q 2594 3103 2138 3103 
Q 1681 3103 1420 2742 
Q 1159 2381 1159 1747 
Q 1159 1113 1420 752 
Q 1681 391 2138 391 
Q 2594 391 2855 752 
Q 3116 1113 3116 1747 
z
M 1159 2969 
Q 1341 3281 1617 3432 
Q 1894 3584 2278 3584 
Q 2916 3584 3314 3078 
Q 3713 2572 3713 1747 
Q 3713 922 3314 415 
Q 2916 -91 2278 -91 
Q 1894 -91 1617 61 
Q 1341 213 1159 525 
L 1159 0 
L 581 0 
L 581 4863 
L 1159 4863 
L 1159 2969 
z
" transform="scale(0.015625)"/>
      <path id="DejaVuSans-2014" d="M 313 1978 
L 6088 1978 
L 6088 1528 
L 313 1528 
L 313 1978 
z
" transform="scale(0.015625)"/>
      <path id="DejaVuSans-c9" d="M 628 4666 
L 3578 4666 
L 3578 4134 
L 1259 4134 
L 1259 2753 
L 3481 2753 
L 3481 2222 
L 1259 2222 
L 1259 531 
L 3634 531 
L 3634 0 
L 628 0 
L 628 4666 
z
M 2268 5921 
L 2846 5921 
L 2134 5096 
L 1655 5096 
L 2268 5921 
z
" transform="scale(0.015625)"/>
      <path id="DejaVuSans-76" d="M 191 3500 
L 800 3500 
L 1894 563 
L 2988 3500 
L 3597 3500 
L 2284 0 
L 1503 0 
L 191 3500 
z
" transform="scale(0.015625)"/>
      <path id="DejaVuSans-6c" d="M 603 4863 
L 1178 4863 
L 1178 0 
L 603 0 
L 603 4863 
z
" transform="scale(0.015625)"/>
     </defs>
     <use xlink:href="#DejaVuSans-41"/>
     <use xlink:href="#DejaVuSans-72" x="68.408203"/>
     <use xlink:href="#DejaVuSans-72" x="107.771484"/>
     <use xlink:href="#DejaVuSans-ea" x="146.634766"/>
     <use xlink:href="#DejaVuSans-74" x="208.158203"/>
     <use xlink:href="#DejaVuSans-20" x="247.367188"/>
     <use xlink:href="#DejaVuSans-62" x="279.154297"/>
     <use xlink:href="#DejaVuSans-72" x="342.630859"/>
     <use xlink:href="#DejaVuSans-75" x="383.744141"/>
     <use xlink:href="#DejaVuSans-73" x="447.123047"/>
     <use xlink:href="#DejaVuSans-71" x="499.222656"/>
     <use xlink:href="#DejaVuSans-75" x="562.699219"/>
     <use xlink:href="#DejaVuSans-65" x="626.078125"/>
     <use xlink:href="#DejaVuSans-20" x="687.601562"/>
     <use xlink:href="#DejaVuSans-64" x="719.388672"/>
     <use xlink:href="#DejaVuSans-65" x="782.865234"/>
     <use xlink:href="#DejaVuSans-20" x="844.388672"/>
     <use xlink:href="#DejaVuSans-70" x="876.175781"/>
     <use xlink:href="#DejaVuSans-6f" x="939.652344"/>
     <use xlink:href="#DejaVuSans-6d" x="1000.833984"/>
     <use xlink:href="#DejaVuSans-70" x="1098.246094"/>
     <use xlink:href="#DejaVuSans-65" x="1161.722656"/>
     <use xlink:href="#DejaVuSans-20" x="1223.246094"/>
     <use xlink:href="#DejaVuSans-2014" x="1255.033203"/>
     <use xlink:href="#DejaVuSans-20" x="1355.033203"/>
     <use xlink:href="#DejaVuSans-c9" x="1386.820312"/>
     <use xlink:href="#DejaVuSans-76" x="1450.003906"/>
     <use xlink:href="#DejaVuSans-6f" x="1509.183594"/>
     <use xlink:href="#DejaVuSans-6c" x="1570.365234"/>
     <use xlink:href="#DejaVuSans-75" x="1598.148438"/>
     <use xlink:href="#DejaVuSans-74" x="1661.527344"/>
     <use xlink:href="#DejaVuSans-69" x="1700.736328"/>
     <use xlink:href="#DejaVuSans-6f" x="1728.519531"/>
     <use xlink:href="#DejaVuSans-6e" x="1789.701172"/>
     <use xlink:href="#DejaVuSans-20" x="1853.080078"/>
     <use xlink:href="#DejaVuSans-74" x="1884.867188"/>
     <use xlink:href="#DejaVuSans-65" x="1924.076172"/>
     <use xlink:href="#DejaVuSans-6d" x="1985.599609"/>
     <use xlink:href="#DejaVuSans-70" x="2083.011719"/>
     <use xlink:href="#DejaVuSans-6f" x="2146.488281"/>
     <use xlink:href="#DejaVuSans-72" x="2207.669922"/>
     <use xlink:href="#DejaVuSans-65" x="2246.533203"/>
     <use xlink:href="#DejaVuSans-6c" x="2308.056641"/>
     <use xlink:href="#DejaVuSans-6c" x="2335.839844"/>
     <use xlink:href="#DejaVuSans-65" x="2363.623047"/>
     <use xlink:href="#DejaVuSans-20" x="2425.146484"/>
     <use xlink:href="#DejaVuSans-64" x="2456.933594"/>
     <use xlink:href="#DejaVuSans-65" x="2520.410156"/>
     <use xlink:href="#DejaVuSans-20" x="2581.933594"/>
     <use xlink:href="#DejaVuSans-6c" x="2613.720703"/>
     <use xlink:href="#DejaVuSans-61" x="2641.503906"/>
     <use xlink:href="#DejaVuSans-20" x="2702.783203"/>
     <use xlink:href="#DejaVuSans-70" x="2734.570312"/>
     <use xlink:href="#DejaVuSans-72" x="2798.046875"/>
     <use xlink:href="#DejaVuSans-65" x="2836.910156"/>
     <use xlink:href="#DejaVuSans-73" x="2898.433594"/>
     <use xlink:href="#DejaVuSans-73" x="2950.533203"/>
     <use xlink:href="#DejaVuSans-69" x="3002.632812"/>
     <use xlink:href="#DejaVuSans-6f" x="3030.416016"/>
     <use xlink:href="#DejaVuSans-6e" x="3091.597656"/>
    </g>
   </g>
   <g id="legend_1">
    <g id="patch_10">
     <path d="M 327.796797 277.976562 
L 621.915547 277.976562 
Q 623.515547 277.976562 623.515547 276.376562 
L 623.515547 229.869062 
Q 623.515547 228.269063 621.915547 228.269063 
L 327.796797 228.269063 
Q 326.196797 228.269063 326.196797 229.869062 
L 326.196797 276.376562 
Q 326.196797 277.976562 327.796797 277.976562 
z
" style="fill: #ffffff; opacity: 0.8; stroke: #cccccc; stroke-linejoin: miter"/>
    </g>
    <g id="line2d_28">
     <path d="M 329.396797 235.067813 
L 337.396797 235.067813 
L 345.396797 235.067813 
" style="fill: none; stroke: #1f4e79; stroke-width: 2.5; stroke-linecap: square"/>
    </g>
    <g id="text_15">
     <!-- Refoulement pompe -->
     <g transform="translate(351.796797 237.867813) scale(0.08 -0.08)">
      <defs>
       <path id="DejaVuSans-52" d="M 2841 2188 
Q 3044 2119 3236 1894 
Q 3428 1669 3622 1275 
L 4263 0 
L 3584 0 
L 2988 1197 
Q 2756 1666 2539 1819 
Q 2322 1972 1947 1972 
L 1259 1972 
L 1259 0 
L 628 0 
L 628 4666 
L 2053 4666 
Q 2853 4666 3247 4331 
Q 3641 3997 3641 3322 
Q 3641 2881 3436 2590 
Q 3231 2300 2841 2188 
z
M 1259 4147 
L 1259 2491 
L 2053 2491 
Q 2509 2491 2742 2702 
Q 2975 2913 2975 3322 
Q 2975 3731 2742 3939 
Q 2509 4147 2053 4147 
L 1259 4147 
z
" transform="scale(0.015625)"/>
       <path id="DejaVuSans-66" d="M 2375 4863 
L 2375 4384 
L 1825 4384 
Q 1516 4384 1395 4259 
Q 1275 4134 1275 3809 
L 1275 3500 
L 2222 3500 
L 2222 3053 
L 1275 3053 
L 1275 0 
L 697 0 
L 697 3053 
L 147 3053 
L 147 3500 
L 697 3500 
L 697 3744 
Q 697 4328 969 4595 
Q 1241 4863 1831 4863 
L 2375 4863 
z
" transform="scale(0.015625)"/>
      </defs>
      <use xlink:href="#DejaVuSans-52"/>
      <use xlink:href="#DejaVuSans-65" x="64.982422"/>
      <use xlink:href="#DejaVuSans-66" x="126.505859"/>
      <use xlink:href="#DejaVuSans-6f" x="161.710938"/>
      <use xlink:href="#DejaVuSans-75" x="222.892578"/>
      <use xlink:href="#DejaVuSans-6c" x="286.271484"/>
      <use xlink:href="#DejaVuSans-65" x="314.054688"/>
      <use xlink:href="#DejaVuSans-6d" x="375.578125"/>
      <use xlink:href="#DejaVuSans-65" x="472.990234"/>
      <use xlink:href="#DejaVuSans-6e" x="534.513672"/>
      <use xlink:href="#DejaVuSans-74" x="597.892578"/>
      <use xlink:href="#DejaVuSans-20" x="637.101562"/>
      <use xlink:href="#DejaVuSans-70" x="668.888672"/>
      <use xlink:href="#DejaVuSans-6f" x="732.365234"/>
      <use xlink:href="#DejaVuSans-6d" x="793.546875"/>
      <use xlink:href="#DejaVuSans-70" x="890.958984"/>
      <use xlink:href="#DejaVuSans-65" x="954.435547"/>
     </g>
    </g>
    <g id="line2d_29">
     <path d="M 329.396797 246.810312 
L 337.396797 246.810312 
L 345.396797 246.810312 
" style="fill: none; stroke-dasharray: 8.14,3.52; stroke-dashoffset: 0; stroke: #2e8b57; stroke-width: 2.2"/>
    </g>
    <g id="text_16">
     <!-- Point haut du profil -->
     <g transform="translate(351.796797 249.610312) scale(0.08 -0.08)">
      <use xlink:href="#DejaVuSans-50"/>
      <use xlink:href="#DejaVuSans-6f" x="56.677734"/>
      <use xlink:href="#DejaVuSans-69" x="117.859375"/>
      <use xlink:href="#DejaVuSans-6e" x="145.642578"/>
      <use xlink:href="#DejaVuSans-74" x="209.021484"/>
      <use xlink:href="#DejaVuSans-20" x="248.230469"/>
      <use xlink:href="#DejaVuSans-68" x="280.017578"/>
      <use xlink:href="#DejaVuSans-61" x="343.396484"/>
      <use xlink:href="#DejaVuSans-75" x="404.675781"/>
      <use xlink:href="#DejaVuSans-74" x="468.054688"/>
      <use xlink:href="#DejaVuSans-20" x="507.263672"/>
      <use xlink:href="#DejaVuSans-64" x="539.050781"/>
      <use xlink:href="#DejaVuSans-75" x="602.527344"/>
      <use xlink:href="#DejaVuSans-20" x="665.90625"/>
      <use xlink:href="#DejaVuSans-70" x="697.693359"/>
      <use xlink:href="#DejaVuSans-72" x="761.169922"/>
      <use xlink:href="#DejaVuSans-6f" x="800.033203"/>
      <use xlink:href="#DejaVuSans-66" x="861.214844"/>
      <use xlink:href="#DejaVuSans-69" x="896.419922"/>
      <use xlink:href="#DejaVuSans-6c" x="924.203125"/>
     </g>
    </g>
    <g id="line2d_30">
     <path d="M 329.396797 258.552813 
L 337.396797 258.552813 
L 345.396797 258.552813 
" style="fill: none; stroke-dasharray: 12.8,3.2,2,3.2; stroke-dashoffset: 0; stroke: #c0392b; stroke-width: 2"/>
    </g>
    <g id="text_17">
     <!-- Aval clapet anti-retour -->
     <g transform="translate(351.796797 261.352813) scale(0.08 -0.08)">
      <defs>
       <path id="DejaVuSans-2d" d="M 313 2009 
L 1997 2009 
L 1997 1497 
L 313 1497 
L 313 2009 
z
" transform="scale(0.015625)"/>
      </defs>
      <use xlink:href="#DejaVuSans-41"/>
      <use xlink:href="#DejaVuSans-76" x="62.533203"/>
      <use xlink:href="#DejaVuSans-61" x="121.712891"/>
      <use xlink:href="#DejaVuSans-6c" x="182.992188"/>
      <use xlink:href="#DejaVuSans-20" x="210.775391"/>
      <use xlink:href="#DejaVuSans-63" x="242.5625"/>
      <use xlink:href="#DejaVuSans-6c" x="297.542969"/>
      <use xlink:href="#DejaVuSans-61" x="325.326172"/>
      <use xlink:href="#DejaVuSans-70" x="386.605469"/>
      <use xlink:href="#DejaVuSans-65" x="450.082031"/>
      <use xlink:href="#DejaVuSans-74" x="511.605469"/>
      <use xlink:href="#DejaVuSans-20" x="550.814453"/>
      <use xlink:href="#DejaVuSans-61" x="582.601562"/>
      <use xlink:href="#DejaVuSans-6e" x="643.880859"/>
      <use xlink:href="#DejaVuSans-74" x="707.259766"/>
      <use xlink:href="#DejaVuSans-69" x="746.46875"/>
      <use xlink:href="#DejaVuSans-2d" x="774.251953"/>
      <use xlink:href="#DejaVuSans-72" x="810.335938"/>
      <use xlink:href="#DejaVuSans-65" x="849.199219"/>
      <use xlink:href="#DejaVuSans-74" x="910.722656"/>
      <use xlink:href="#DejaVuSans-6f" x="949.931641"/>
      <use xlink:href="#DejaVuSans-75" x="1011.113281"/>
      <use xlink:href="#DejaVuSans-72" x="1074.492188"/>
     </g>
    </g>
    <g id="line2d_31">
     <path d="M 329.396797 270.296562 
L 337.396797 270.296562 
L 345.396797 270.296562 
" style="fill: none; stroke-dasharray: 1.8,2.97; stroke-dashoffset: 0; stroke: #c0392b; stroke-width: 1.8"/>
    </g>
    <g id="text_18">
     <!-- Pression de vapeur ($\approx -10$ m) -->
     <g transform="translate(351.796797 273.096563) scale(0.08 -0.08)">
      <defs>
       <path id="DejaVuSans-2248" d="M 4684 1947 
L 4684 1388 
Q 4356 1144 4076 1036 
Q 3797 928 3494 928 
Q 3150 928 2694 1113 
Q 2663 1125 2641 1134 
Q 2622 1141 2575 1159 
Q 2091 1350 1797 1350 
Q 1522 1350 1253 1231 
Q 984 1113 678 850 
L 678 1409 
Q 1006 1653 1286 1761 
Q 1566 1869 1869 1869 
Q 2213 1869 2672 1684 
Q 2706 1669 2722 1663 
Q 2741 1656 2788 1638 
Q 3272 1447 3566 1447 
Q 3834 1447 4098 1564 
Q 4363 1681 4684 1947 
z
M 4684 3163 
L 4684 2606 
Q 4356 2359 4076 2251 
Q 3797 2144 3494 2144 
Q 3150 2144 2694 2328 
Q 2663 2341 2641 2350 
Q 2622 2356 2575 2375 
Q 2091 2566 1797 2566 
Q 1522 2566 1253 2447 
Q 984 2328 678 2069 
L 678 2625 
Q 1006 2869 1286 2976 
Q 1566 3084 1869 3084 
Q 2213 3084 2672 2900 
Q 2703 2888 2719 2881 
Q 2741 2872 2788 2853 
Q 3272 2663 3566 2663 
Q 3834 2663 4098 2780 
Q 4363 2897 4684 3163 
z
" transform="scale(0.015625)"/>
      </defs>
      <use xlink:href="#DejaVuSans-50" transform="translate(0 0.015625)"/>
      <use xlink:href="#DejaVuSans-72" transform="translate(60.302734 0.015625)"/>
      <use xlink:href="#DejaVuSans-65" transform="translate(101.416016 0.015625)"/>
      <use xlink:href="#DejaVuSans-73" transform="translate(162.939453 0.015625)"/>
      <use xlink:href="#DejaVuSans-73" transform="translate(215.039062 0.015625)"/>
      <use xlink:href="#DejaVuSans-69" transform="translate(267.138672 0.015625)"/>
      <use xlink:href="#DejaVuSans-6f" transform="translate(294.921875 0.015625)"/>
      <use xlink:href="#DejaVuSans-6e" transform="translate(356.103516 0.015625)"/>
      <use xlink:href="#DejaVuSans-20" transform="translate(419.482422 0.015625)"/>
      <use xlink:href="#DejaVuSans-64" transform="translate(451.269531 0.015625)"/>
      <use xlink:href="#DejaVuSans-65" transform="translate(514.746094 0.015625)"/>
      <use xlink:href="#DejaVuSans-20" transform="translate(576.269531 0.015625)"/>
      <use xlink:href="#DejaVuSans-76" transform="translate(608.056641 0.015625)"/>
      <use xlink:href="#DejaVuSans-61" transform="translate(667.236328 0.015625)"/>
      <use xlink:href="#DejaVuSans-70" transform="translate(728.515625 0.015625)"/>
      <use xlink:href="#DejaVuSans-65" transform="translate(791.992188 0.015625)"/>
      <use xlink:href="#DejaVuSans-75" transform="translate(853.515625 0.015625)"/>
      <use xlink:href="#DejaVuSans-72" transform="translate(916.894531 0.015625)"/>
      <use xlink:href="#DejaVuSans-20" transform="translate(958.007812 0.015625)"/>
      <use xlink:href="#DejaVuSans-28" transform="translate(989.794922 0.015625)"/>
      <use xlink:href="#DejaVuSans-2248" transform="translate(1048.291016 0.015625)"/>
      <use xlink:href="#DejaVuSans-2212" transform="translate(1171.044922 0.015625)"/>
      <use xlink:href="#DejaVuSans-31" transform="translate(1274.316406 0.015625)"/>
      <use xlink:href="#DejaVuSans-30" transform="translate(1337.939453 0.015625)"/>
      <use xlink:href="#DejaVuSans-20" transform="translate(1401.5625 0.015625)"/>
      <use xlink:href="#DejaVuSans-6d" transform="translate(1433.349609 0.015625)"/>
      <use xlink:href="#DejaVuSans-29" transform="translate(1530.761719 0.015625)"/>
     </g>
    </g>
    <g id="patch_11">
     <path d="M 493.396797 237.867813 
L 509.396797 237.867813 
L 509.396797 232.267813 
L 493.396797 232.267813 
z
" style="fill: #c0392b; opacity: 0.06; stroke: #c0392b; stroke-linejoin: miter"/>
    </g>
    <g id="text_19">
     <!-- Phase 1 : dépression -->
     <g transform="translate(515.796797 237.867813) scale(0.08 -0.08)">
      <defs>
       <path id="DejaVuSans-3a" d="M 750 794 
L 1409 794 
L 1409 0 
L 750 0 
L 750 794 
z
M 750 3309 
L 1409 3309 
L 1409 2516 
L 750 2516 
L 750 3309 
z
" transform="scale(0.015625)"/>
      </defs>
      <use xlink:href="#DejaVuSans-50"/>
      <use xlink:href="#DejaVuSans-68" x="60.302734"/>
      <use xlink:href="#DejaVuSans-61" x="123.681641"/>
      <use xlink:href="#DejaVuSans-73" x="184.960938"/>
      <use xlink:href="#DejaVuSans-65" x="237.060547"/>
      <use xlink:href="#DejaVuSans-20" x="298.583984"/>
      <use xlink:href="#DejaVuSans-31" x="330.371094"/>
      <use xlink:href="#DejaVuSans-20" x="393.994141"/>
      <use xlink:href="#DejaVuSans-3a" x="425.78125"/>
      <use xlink:href="#DejaVuSans-20" x="459.472656"/>
      <use xlink:href="#DejaVuSans-64" x="491.259766"/>
      <use xlink:href="#DejaVuSans-e9" x="554.736328"/>
      <use xlink:href="#DejaVuSans-70" x="616.259766"/>
      <use xlink:href="#DejaVuSans-72" x="679.736328"/>
      <use xlink:href="#DejaVuSans-65" x="718.599609"/>
      <use xlink:href="#DejaVuSans-73" x="780.123047"/>
      <use xlink:href="#DejaVuSans-73" x="832.222656"/>
      <use xlink:href="#DejaVuSans-69" x="884.322266"/>
      <use xlink:href="#DejaVuSans-6f" x="912.105469"/>
      <use xlink:href="#DejaVuSans-6e" x="973.287109"/>
     </g>
    </g>
    <g id="patch_12">
     <path d="M 493.396797 249.610312 
L 509.396797 249.610312 
L 509.396797 244.010312 
L 493.396797 244.010312 
z
" style="fill: #e67e22; opacity: 0.06; stroke: #e67e22; stroke-linejoin: miter"/>
    </g>
    <g id="text_20">
     <!-- Phase 2 : retour eau -->
     <g transform="translate(515.796797 249.610312) scale(0.08 -0.08)">
      <use xlink:href="#DejaVuSans-50"/>
      <use xlink:href="#DejaVuSans-68" x="60.302734"/>
      <use xlink:href="#DejaVuSans-61" x="123.681641"/>
      <use xlink:href="#DejaVuSans-73" x="184.960938"/>
      <use xlink:href="#DejaVuSans-65" x="237.060547"/>
      <use xlink:href="#DejaVuSans-20" x="298.583984"/>
      <use xlink:href="#DejaVuSans-32" x="330.371094"/>
      <use xlink:href="#DejaVuSans-20" x="393.994141"/>
      <use xlink:href="#DejaVuSans-3a" x="425.78125"/>
      <use xlink:href="#DejaVuSans-20" x="459.472656"/>
      <use xlink:href="#DejaVuSans-72" x="491.259766"/>
      <use xlink:href="#DejaVuSans-65" x="530.123047"/>
      <use xlink:href="#DejaVuSans-74" x="591.646484"/>
      <use xlink:href="#DejaVuSans-6f" x="630.855469"/>
      <use xlink:href="#DejaVuSans-75" x="692.037109"/>
      <use xlink:href="#DejaVuSans-72" x="755.416016"/>
      <use xlink:href="#DejaVuSans-20" x="796.529297"/>
      <use xlink:href="#DejaVuSans-65" x="828.316406"/>
      <use xlink:href="#DejaVuSans-61" x="889.839844"/>
      <use xlink:href="#DejaVuSans-75" x="951.119141"/>
     </g>
    </g>
    <g id="patch_13">
     <path d="M 493.396797 261.352813 
L 509.396797 261.352813 
L 509.396797 255.752813 
L 493.396797 255.752813 
z
" style="fill: #1f4e79; opacity: 0.06; stroke: #1f4e79; stroke-linejoin: miter"/>
    </g>
    <g id="text_21">
     <!-- Phase 3 : coup sec. clapet -->
     <g transform="translate(515.796797 261.352813) scale(0.08 -0.08)">
      <defs>
       <path id="DejaVuSans-33" d="M 2597 2516 
Q 3050 2419 3304 2112 
Q 3559 1806 3559 1356 
Q 3559 666 3084 287 
Q 2609 -91 1734 -91 
Q 1441 -91 1130 -33 
Q 819 25 488 141 
L 488 750 
Q 750 597 1062 519 
Q 1375 441 1716 441 
Q 2309 441 2620 675 
Q 2931 909 2931 1356 
Q 2931 1769 2642 2001 
Q 2353 2234 1838 2234 
L 1294 2234 
L 1294 2753 
L 1863 2753 
Q 2328 2753 2575 2939 
Q 2822 3125 2822 3475 
Q 2822 3834 2567 4026 
Q 2313 4219 1838 4219 
Q 1578 4219 1281 4162 
Q 984 4106 628 3988 
L 628 4550 
Q 988 4650 1302 4700 
Q 1616 4750 1894 4750 
Q 2613 4750 3031 4423 
Q 3450 4097 3450 3541 
Q 3450 3153 3228 2886 
Q 3006 2619 2597 2516 
z
" transform="scale(0.015625)"/>
       <path id="DejaVuSans-2e" d="M 684 794 
L 1344 794 
L 1344 0 
L 684 0 
L 684 794 
z
" transform="scale(0.015625)"/>
      </defs>
      <use xlink:href="#DejaVuSans-50"/>
      <use xlink:href="#DejaVuSans-68" x="60.302734"/>
      <use xlink:href="#DejaVuSans-61" x="123.681641"/>
      <use xlink:href="#DejaVuSans-73" x="184.960938"/>
      <use xlink:href="#DejaVuSans-65" x="237.060547"/>
      <use xlink:href="#DejaVuSans-20" x="298.583984"/>
      <use xlink:href="#DejaVuSans-33" x="330.371094"/>
      <use xlink:href="#DejaVuSans-20" x="393.994141"/>
      <use xlink:href="#DejaVuSans-3a" x="425.78125"/>
      <use xlink:href="#DejaVuSans-20" x="459.472656"/>
      <use xlink:href="#DejaVuSans-63" x="491.259766"/>
      <use xlink:href="#DejaVuSans-6f" x="546.240234"/>
      <use xlink:href="#DejaVuSans-75" x="607.421875"/>
      <use xlink:href="#DejaVuSans-70" x="670.800781"/>
      <use xlink:href="#DejaVuSans-20" x="734.277344"/>
      <use xlink:href="#DejaVuSans-73" x="766.064453"/>
      <use xlink:href="#DejaVuSans-65" x="818.164062"/>
      <use xlink:href="#DejaVuSans-63" x="879.6875"/>
      <use xlink:href="#DejaVuSans-2e" x="934.667969"/>
      <use xlink:href="#DejaVuSans-20" x="966.455078"/>
      <use xlink:href="#DejaVuSans-63" x="998.242188"/>
      <use xlink:href="#DejaVuSans-6c" x="1053.222656"/>
      <use xlink:href="#DejaVuSans-61" x="1081.005859"/>
      <use xlink:href="#DejaVuSans-70" x="1142.285156"/>
      <use xlink:href="#DejaVuSans-65" x="1205.761719"/>
      <use xlink:href="#DejaVuSans-74" x="1267.285156"/>
     </g>
    </g>
   </g>
  </g>
 </g>
 <defs>
  <clipPath id="pf89ee3429e">
   <rect x="45.209297" y="22.451562" width="582.30625" height="259.525"/>
  </clipPath>
 </defs>
</svg>
