<?xml version="1.0" encoding="utf-8" standalone="no"?>
<!DOCTYPE svg PUBLIC "-//W3C//DTD SVG 1.1//EN"
  "http://www.w3.org/Graphics/SVG/1.1/DTD/svg11.dtd">
<svg xmlns:xlink="http://www.w3.org/1999/xlink" width="638.585781pt" height="293.886719pt" viewBox="0 0 638.585781 293.886719" xmlns="http://www.w3.org/2000/svg" version="1.1">
 <metadata>
  <rdf:RDF xmlns:dc="http://purl.org/dc/elements/1.1/" xmlns:cc="http://creativecommons.org/ns#" xmlns:rdf="http://www.w3.org/1999/02/22-rdf-syntax-ns#">
   <cc:Work>
    <dc:type rdf:resource="http://purl.org/dc/dcmitype/StillImage"/>
    <dc:date>2026-05-25T18:26:51.075953</dc:date>
    <dc:format>image/svg+xml</dc:format>
    <dc:creator>
     <cc:Agent>
      <dc:title>Matplotlib v3.9.2, https://matplotlib.org/</dc:title>
     </cc:Agent>
    </dc:creator>
   </cc:Work>
  </rdf:RDF>
 </metadata>
 <defs>
  <style type="text/css">*{stroke-linejoin: round; stroke-linecap: butt}</style>
 </defs>
 <g id="figure_1">
  <g id="patch_1">
   <path d="M 0 293.886719 
L 638.585781 293.886719 
L 638.585781 0 
L 0 0 
z
" style="fill: #ffffff"/>
  </g>
  <g id="axes_1">
   <g id="patch_2">
    <path d="M 40.427969 258.75 
L 600.859219 258.75 
L 600.859219 21.2 
L 40.427969 21.2 
z
" style="fill: #ffffff"/>
   </g>
   <g id="matplotlib.axis_1">
    <g id="xtick_1">
     <g id="line2d_1">
      <path d="M 40.427969 258.75 
L 40.427969 21.2 
" clip-path="url(#p6c878ecf07)" style="fill: none; stroke: #b0b0b0; stroke-opacity: 0.2; stroke-width: 0.8; stroke-linecap: square"/>
     </g>
     <g id="line2d_2">
      <defs>
       <path id="mfcb732aaab" d="M 0 0 
L 0 3.5 
" style="stroke: #000000; stroke-width: 0.8"/>
      </defs>
      <g>
       <use xlink:href="#mfcb732aaab" x="40.427969" y="258.75" style="stroke: #000000; stroke-width: 0.8"/>
      </g>
     </g>
     <g id="text_1">
      <!-- 0 -->
      <g transform="translate(37.723906 272.208672) scale(0.085 -0.085)">
       <defs>
        <path id="DejaVuSans-30" d="M 2034 4250 
Q 1547 4250 1301 3770 
Q 1056 3291 1056 2328 
Q 1056 1369 1301 889 
Q 1547 409 2034 409 
Q 2525 409 2770 889 
Q 3016 1369 3016 2328 
Q 3016 3291 2770 3770 
Q 2525 4250 2034 4250 
z
M 2034 4750 
Q 2819 4750 3233 4129 
Q 3647 3509 3647 2328 
Q 3647 1150 3233 529 
Q 2819 -91 2034 -91 
Q 1250 -91 836 529 
Q 422 1150 422 2328 
Q 422 3509 836 4129 
Q 1250 4750 2034 4750 
z
" transform="scale(0.015625)"/>
       </defs>
       <use xlink:href="#DejaVuSans-30"/>
      </g>
     </g>
    </g>
    <g id="xtick_2">
     <g id="line2d_3">
      <path d="M 102.698108 258.75 
L 102.698108 21.2 
" clip-path="url(#p6c878ecf07)" style="fill: none; stroke: #b0b0b0; stroke-opacity: 0.2; stroke-width: 0.8; stroke-linecap: square"/>
     </g>
     <g id="line2d_4">
      <g>
       <use xlink:href="#mfcb732aaab" x="102.698108" y="258.75" style="stroke: #000000; stroke-width: 0.8"/>
      </g>
     </g>
     <g id="text_2">
      <!-- 10 -->
      <g transform="translate(97.289983 272.208672) scale(0.085 -0.085)">
       <defs>
        <path id="DejaVuSans-31" d="M 794 531 
L 1825 531 
L 1825 4091 
L 703 3866 
L 703 4441 
L 1819 4666 
L 2450 4666 
L 2450 531 
L 3481 531 
L 3481 0 
L 794 0 
L 794 531 
z
" transform="scale(0.015625)"/>
       </defs>
       <use xlink:href="#DejaVuSans-31"/>
       <use xlink:href="#DejaVuSans-30" x="63.623047"/>
      </g>
     </g>
    </g>
    <g id="xtick_3">
     <g id="line2d_5">
      <path d="M 164.968247 258.75 
L 164.968247 21.2 
" clip-path="url(#p6c878ecf07)" style="fill: none; stroke: #b0b0b0; stroke-opacity: 0.2; stroke-width: 0.8; stroke-linecap: square"/>
     </g>
     <g id="line2d_6">
      <g>
       <use xlink:href="#mfcb732aaab" x="164.968247" y="258.75" style="stroke: #000000; stroke-width: 0.8"/>
      </g>
     </g>
     <g id="text_3">
      <!-- 20 -->
      <g transform="translate(159.560122 272.208672) scale(0.085 -0.085)">
       <defs>
        <path id="DejaVuSans-32" d="M 1228 531 
L 3431 531 
L 3431 0 
L 469 0 
L 469 531 
Q 828 903 1448 1529 
Q 2069 2156 2228 2338 
Q 2531 2678 2651 2914 
Q 2772 3150 2772 3378 
Q 2772 3750 2511 3984 
Q 2250 4219 1831 4219 
Q 1534 4219 1204 4116 
Q 875 4013 500 3803 
L 500 4441 
Q 881 4594 1212 4672 
Q 1544 4750 1819 4750 
Q 2544 4750 2975 4387 
Q 3406 4025 3406 3419 
Q 3406 3131 3298 2873 
Q 3191 2616 2906 2266 
Q 2828 2175 2409 1742 
Q 1991 1309 1228 531 
z
" transform="scale(0.015625)"/>
       </defs>
       <use xlink:href="#DejaVuSans-32"/>
       <use xlink:href="#DejaVuSans-30" x="63.623047"/>
      </g>
     </g>
    </g>
    <g id="xtick_4">
     <g id="line2d_7">
      <path d="M 227.238385 258.75 
L 227.238385 21.2 
" clip-path="url(#p6c878ecf07)" style="fill: none; stroke: #b0b0b0; stroke-opacity: 0.2; stroke-width: 0.8; stroke-linecap: square"/>
     </g>
     <g id="line2d_8">
      <g>
       <use xlink:href="#mfcb732aaab" x="227.238385" y="258.75" style="stroke: #000000; stroke-width: 0.8"/>
      </g>
     </g>
     <g id="text_4">
      <!-- 30 -->
      <g transform="translate(221.83026 272.208672) scale(0.085 -0.085)">
       <defs>
        <path id="DejaVuSans-33" d="M 2597 2516 
Q 3050 2419 3304 2112 
Q 3559 1806 3559 1356 
Q 3559 666 3084 287 
Q 2609 -91 1734 -91 
Q 1441 -91 1130 -33 
Q 819 25 488 141 
L 488 750 
Q 750 597 1062 519 
Q 1375 441 1716 441 
Q 2309 441 2620 675 
Q 2931 909 2931 1356 
Q 2931 1769 2642 2001 
Q 2353 2234 1838 2234 
L 1294 2234 
L 1294 2753 
L 1863 2753 
Q 2328 2753 2575 2939 
Q 2822 3125 2822 3475 
Q 2822 3834 2567 4026 
Q 2313 4219 1838 4219 
Q 1578 4219 1281 4162 
Q 984 4106 628 3988 
L 628 4550 
Q 988 4650 1302 4700 
Q 1616 4750 1894 4750 
Q 2613 4750 3031 4423 
Q 3450 4097 3450 3541 
Q 3450 3153 3228 2886 
Q 3006 2619 2597 2516 
z
" transform="scale(0.015625)"/>
       </defs>
       <use xlink:href="#DejaVuSans-33"/>
       <use xlink:href="#DejaVuSans-30" x="63.623047"/>
      </g>
     </g>
    </g>
    <g id="xtick_5">
     <g id="line2d_9">
      <path d="M 289.508524 258.75 
L 289.508524 21.2 
" clip-path="url(#p6c878ecf07)" style="fill: none; stroke: #b0b0b0; stroke-opacity: 0.2; stroke-width: 0.8; stroke-linecap: square"/>
     </g>
     <g id="line2d_10">
      <g>
       <use xlink:href="#mfcb732aaab" x="289.508524" y="258.75" style="stroke: #000000; stroke-width: 0.8"/>
      </g>
     </g>
     <g id="text_5">
      <!-- 40 -->
      <g transform="translate(284.100399 272.208672) scale(0.085 -0.085)">
       <defs>
        <path id="DejaVuSans-34" d="M 2419 4116 
L 825 1625 
L 2419 1625 
L 2419 4116 
z
M 2253 4666 
L 3047 4666 
L 3047 1625 
L 3713 1625 
L 3713 1100 
L 3047 1100 
L 3047 0 
L 2419 0 
L 2419 1100 
L 313 1100 
L 313 1709 
L 2253 4666 
z
" transform="scale(0.015625)"/>
       </defs>
       <use xlink:href="#DejaVuSans-34"/>
       <use xlink:href="#DejaVuSans-30" x="63.623047"/>
      </g>
     </g>
    </g>
    <g id="xtick_6">
     <g id="line2d_11">
      <path d="M 351.778663 258.75 
L 351.778663 21.2 
" clip-path="url(#p6c878ecf07)" style="fill: none; stroke: #b0b0b0; stroke-opacity: 0.2; stroke-width: 0.8; stroke-linecap: square"/>
     </g>
     <g id="line2d_12">
      <g>
       <use xlink:href="#mfcb732aaab" x="351.778663" y="258.75" style="stroke: #000000; stroke-width: 0.8"/>
      </g>
     </g>
     <g id="text_6">
      <!-- 50 -->
      <g transform="translate(346.370538 272.208672) scale(0.085 -0.085)">
       <defs>
        <path id="DejaVuSans-35" d="M 691 4666 
L 3169 4666 
L 3169 4134 
L 1269 4134 
L 1269 2991 
Q 1406 3038 1543 3061 
Q 1681 3084 1819 3084 
Q 2600 3084 3056 2656 
Q 3513 2228 3513 1497 
Q 3513 744 3044 326 
Q 2575 -91 1722 -91 
Q 1428 -91 1123 -41 
Q 819 9 494 109 
L 494 744 
Q 775 591 1075 516 
Q 1375 441 1709 441 
Q 2250 441 2565 725 
Q 2881 1009 2881 1497 
Q 2881 1984 2565 2268 
Q 2250 2553 1709 2553 
Q 1456 2553 1204 2497 
Q 953 2441 691 2322 
L 691 4666 
z
" transform="scale(0.015625)"/>
       </defs>
       <use xlink:href="#DejaVuSans-35"/>
       <use xlink:href="#DejaVuSans-30" x="63.623047"/>
      </g>
     </g>
    </g>
    <g id="xtick_7">
     <g id="line2d_13">
      <path d="M 414.048802 258.75 
L 414.048802 21.2 
" clip-path="url(#p6c878ecf07)" style="fill: none; stroke: #b0b0b0; stroke-opacity: 0.2; stroke-width: 0.8; stroke-linecap: square"/>
     </g>
     <g id="line2d_14">
      <g>
       <use xlink:href="#mfcb732aaab" x="414.048802" y="258.75" style="stroke: #000000; stroke-width: 0.8"/>
      </g>
     </g>
     <g id="text_7">
      <!-- 60 -->
      <g transform="translate(408.640677 272.208672) scale(0.085 -0.085)">
       <defs>
        <path id="DejaVuSans-36" d="M 2113 2584 
Q 1688 2584 1439 2293 
Q 1191 2003 1191 1497 
Q 1191 994 1439 701 
Q 1688 409 2113 409 
Q 2538 409 2786 701 
Q 3034 994 3034 1497 
Q 3034 2003 2786 2293 
Q 2538 2584 2113 2584 
z
M 3366 4563 
L 3366 3988 
Q 3128 4100 2886 4159 
Q 2644 4219 2406 4219 
Q 1781 4219 1451 3797 
Q 1122 3375 1075 2522 
Q 1259 2794 1537 2939 
Q 1816 3084 2150 3084 
Q 2853 3084 3261 2657 
Q 3669 2231 3669 1497 
Q 3669 778 3244 343 
Q 2819 -91 2113 -91 
Q 1303 -91 875 529 
Q 447 1150 447 2328 
Q 447 3434 972 4092 
Q 1497 4750 2381 4750 
Q 2619 4750 2861 4703 
Q 3103 4656 3366 4563 
z
" transform="scale(0.015625)"/>
       </defs>
       <use xlink:href="#DejaVuSans-36"/>
       <use xlink:href="#DejaVuSans-30" x="63.623047"/>
      </g>
     </g>
    </g>
    <g id="xtick_8">
     <g id="line2d_15">
      <path d="M 476.318941 258.75 
L 476.318941 21.2 
" clip-path="url(#p6c878ecf07)" style="fill: none; stroke: #b0b0b0; stroke-opacity: 0.2; stroke-width: 0.8; stroke-linecap: square"/>
     </g>
     <g id="line2d_16">
      <g>
       <use xlink:href="#mfcb732aaab" x="476.318941" y="258.75" style="stroke: #000000; stroke-width: 0.8"/>
      </g>
     </g>
     <g id="text_8">
      <!-- 70 -->
      <g transform="translate(470.910816 272.208672) scale(0.085 -0.085)">
       <defs>
        <path id="DejaVuSans-37" d="M 525 4666 
L 3525 4666 
L 3525 4397 
L 1831 0 
L 1172 0 
L 2766 4134 
L 525 4134 
L 525 4666 
z
" transform="scale(0.015625)"/>
       </defs>
       <use xlink:href="#DejaVuSans-37"/>
       <use xlink:href="#DejaVuSans-30" x="63.623047"/>
      </g>
     </g>
    </g>
    <g id="xtick_9">
     <g id="line2d_17">
      <path d="M 538.58908 258.75 
L 538.58908 21.2 
" clip-path="url(#p6c878ecf07)" style="fill: none; stroke: #b0b0b0; stroke-opacity: 0.2; stroke-width: 0.8; stroke-linecap: square"/>
     </g>
     <g id="line2d_18">
      <g>
       <use xlink:href="#mfcb732aaab" x="538.58908" y="258.75" style="stroke: #000000; stroke-width: 0.8"/>
      </g>
     </g>
     <g id="text_9">
      <!-- 80 -->
      <g transform="translate(533.180955 272.208672) scale(0.085 -0.085)">
       <defs>
        <path id="DejaVuSans-38" d="M 2034 2216 
Q 1584 2216 1326 1975 
Q 1069 1734 1069 1313 
Q 1069 891 1326 650 
Q 1584 409 2034 409 
Q 2484 409 2743 651 
Q 3003 894 3003 1313 
Q 3003 1734 2745 1975 
Q 2488 2216 2034 2216 
z
M 1403 2484 
Q 997 2584 770 2862 
Q 544 3141 544 3541 
Q 544 4100 942 4425 
Q 1341 4750 2034 4750 
Q 2731 4750 3128 4425 
Q 3525 4100 3525 3541 
Q 3525 3141 3298 2862 
Q 3072 2584 2669 2484 
Q 3125 2378 3379 2068 
Q 3634 1759 3634 1313 
Q 3634 634 3220 271 
Q 2806 -91 2034 -91 
Q 1263 -91 848 271 
Q 434 634 434 1313 
Q 434 1759 690 2068 
Q 947 2378 1403 2484 
z
M 1172 3481 
Q 1172 3119 1398 2916 
Q 1625 2713 2034 2713 
Q 2441 2713 2670 2916 
Q 2900 3119 2900 3481 
Q 2900 3844 2670 4047 
Q 2441 4250 2034 4250 
Q 1625 4250 1398 4047 
Q 1172 3844 1172 3481 
z
" transform="scale(0.015625)"/>
       </defs>
       <use xlink:href="#DejaVuSans-38"/>
       <use xlink:href="#DejaVuSans-30" x="63.623047"/>
      </g>
     </g>
    </g>
    <g id="xtick_10">
     <g id="line2d_19">
      <path d="M 600.859219 258.75 
L 600.859219 21.2 
" clip-path="url(#p6c878ecf07)" style="fill: none; stroke: #b0b0b0; stroke-opacity: 0.2; stroke-width: 0.8; stroke-linecap: square"/>
     </g>
     <g id="line2d_20">
      <g>
       <use xlink:href="#mfcb732aaab" x="600.859219" y="258.75" style="stroke: #000000; stroke-width: 0.8"/>
      </g>
     </g>
     <g id="text_10">
      <!-- 90 -->
      <g transform="translate(595.451094 272.208672) scale(0.085 -0.085)">
       <defs>
        <path id="DejaVuSans-39" d="M 703 97 
L 703 672 
Q 941 559 1184 500 
Q 1428 441 1663 441 
Q 2288 441 2617 861 
Q 2947 1281 2994 2138 
Q 2813 1869 2534 1725 
Q 2256 1581 1919 1581 
Q 1219 1581 811 2004 
Q 403 2428 403 3163 
Q 403 3881 828 4315 
Q 1253 4750 1959 4750 
Q 2769 4750 3195 4129 
Q 3622 3509 3622 2328 
Q 3622 1225 3098 567 
Q 2575 -91 1691 -91 
Q 1453 -91 1209 -44 
Q 966 3 703 97 
z
M 1959 2075 
Q 2384 2075 2632 2365 
Q 2881 2656 2881 3163 
Q 2881 3666 2632 3958 
Q 2384 4250 1959 4250 
Q 1534 4250 1286 3958 
Q 1038 3666 1038 3163 
Q 1038 2656 1286 2365 
Q 1534 2075 1959 2075 
z
" transform="scale(0.015625)"/>
       </defs>
       <use xlink:href="#DejaVuSans-39"/>
       <use xlink:href="#DejaVuSans-30" x="63.623047"/>
      </g>
     </g>
    </g>
    <g id="text_11">
     <!-- Temps (min) -->
     <g transform="translate(292.88 284.815) scale(0.09 -0.09)">
      <defs>
       <path id="DejaVuSans-54" d="M -19 4666 
L 3928 4666 
L 3928 4134 
L 2272 4134 
L 2272 0 
L 1638 0 
L 1638 4134 
L -19 4134 
L -19 4666 
z
" transform="scale(0.015625)"/>
       <path id="DejaVuSans-65" d="M 3597 1894 
L 3597 1613 
L 953 1613 
Q 991 1019 1311 708 
Q 1631 397 2203 397 
Q 2534 397 2845 478 
Q 3156 559 3463 722 
L 3463 178 
Q 3153 47 2828 -22 
Q 2503 -91 2169 -91 
Q 1331 -91 842 396 
Q 353 884 353 1716 
Q 353 2575 817 3079 
Q 1281 3584 2069 3584 
Q 2775 3584 3186 3129 
Q 3597 2675 3597 1894 
z
M 3022 2063 
Q 3016 2534 2758 2815 
Q 2500 3097 2075 3097 
Q 1594 3097 1305 2825 
Q 1016 2553 972 2059 
L 3022 2063 
z
" transform="scale(0.015625)"/>
       <path id="DejaVuSans-6d" d="M 3328 2828 
Q 3544 3216 3844 3400 
Q 4144 3584 4550 3584 
Q 5097 3584 5394 3201 
Q 5691 2819 5691 2113 
L 5691 0 
L 5113 0 
L 5113 2094 
Q 5113 2597 4934 2840 
Q 4756 3084 4391 3084 
Q 3944 3084 3684 2787 
Q 3425 2491 3425 1978 
L 3425 0 
L 2847 0 
L 2847 2094 
Q 2847 2600 2669 2842 
Q 2491 3084 2119 3084 
Q 1678 3084 1418 2786 
Q 1159 2488 1159 1978 
L 1159 0 
L 581 0 
L 581 3500 
L 1159 3500 
L 1159 2956 
Q 1356 3278 1631 3431 
Q 1906 3584 2284 3584 
Q 2666 3584 2933 3390 
Q 3200 3197 3328 2828 
z
" transform="scale(0.015625)"/>
       <path id="DejaVuSans-70" d="M 1159 525 
L 1159 -1331 
L 581 -1331 
L 581 3500 
L 1159 3500 
L 1159 2969 
Q 1341 3281 1617 3432 
Q 1894 3584 2278 3584 
Q 2916 3584 3314 3078 
Q 3713 2572 3713 1747 
Q 3713 922 3314 415 
Q 2916 -91 2278 -91 
Q 1894 -91 1617 61 
Q 1341 213 1159 525 
z
M 3116 1747 
Q 3116 2381 2855 2742 
Q 2594 3103 2138 3103 
Q 1681 3103 1420 2742 
Q 1159 2381 1159 1747 
Q 1159 1113 1420 752 
Q 1681 391 2138 391 
Q 2594 391 2855 752 
Q 3116 1113 3116 1747 
z
" transform="scale(0.015625)"/>
       <path id="DejaVuSans-73" d="M 2834 3397 
L 2834 2853 
Q 2591 2978 2328 3040 
Q 2066 3103 1784 3103 
Q 1356 3103 1142 2972 
Q 928 2841 928 2578 
Q 928 2378 1081 2264 
Q 1234 2150 1697 2047 
L 1894 2003 
Q 2506 1872 2764 1633 
Q 3022 1394 3022 966 
Q 3022 478 2636 193 
Q 2250 -91 1575 -91 
Q 1294 -91 989 -36 
Q 684 19 347 128 
L 347 722 
Q 666 556 975 473 
Q 1284 391 1588 391 
Q 1994 391 2212 530 
Q 2431 669 2431 922 
Q 2431 1156 2273 1281 
Q 2116 1406 1581 1522 
L 1381 1569 
Q 847 1681 609 1914 
Q 372 2147 372 2553 
Q 372 3047 722 3315 
Q 1072 3584 1716 3584 
Q 2034 3584 2315 3537 
Q 2597 3491 2834 3397 
z
" transform="scale(0.015625)"/>
       <path id="DejaVuSans-20" transform="scale(0.015625)"/>
       <path id="DejaVuSans-28" d="M 1984 4856 
Q 1566 4138 1362 3434 
Q 1159 2731 1159 2009 
Q 1159 1288 1364 580 
Q 1569 -128 1984 -844 
L 1484 -844 
Q 1016 -109 783 600 
Q 550 1309 550 2009 
Q 550 2706 781 3412 
Q 1013 4119 1484 4856 
L 1984 4856 
z
" transform="scale(0.015625)"/>
       <path id="DejaVuSans-69" d="M 603 3500 
L 1178 3500 
L 1178 0 
L 603 0 
L 603 3500 
z
M 603 4863 
L 1178 4863 
L 1178 4134 
L 603 4134 
L 603 4863 
z
" transform="scale(0.015625)"/>
       <path id="DejaVuSans-6e" d="M 3513 2113 
L 3513 0 
L 2938 0 
L 2938 2094 
Q 2938 2591 2744 2837 
Q 2550 3084 2163 3084 
Q 1697 3084 1428 2787 
Q 1159 2491 1159 1978 
L 1159 0 
L 581 0 
L 581 3500 
L 1159 3500 
L 1159 2956 
Q 1366 3272 1645 3428 
Q 1925 3584 2291 3584 
Q 2894 3584 3203 3211 
Q 3513 2838 3513 2113 
z
" transform="scale(0.015625)"/>
       <path id="DejaVuSans-29" d="M 513 4856 
L 1013 4856 
Q 1481 4119 1714 3412 
Q 1947 2706 1947 2009 
Q 1947 1309 1714 600 
Q 1481 -109 1013 -844 
L 513 -844 
Q 928 -128 1133 580 
Q 1338 1288 1338 2009 
Q 1338 2731 1133 3434 
Q 928 4138 513 4856 
z
" transform="scale(0.015625)"/>
      </defs>
      <use xlink:href="#DejaVuSans-54"/>
      <use xlink:href="#DejaVuSans-65" x="44.083984"/>
      <use xlink:href="#DejaVuSans-6d" x="105.607422"/>
      <use xlink:href="#DejaVuSans-70" x="203.019531"/>
      <use xlink:href="#DejaVuSans-73" x="266.496094"/>
      <use xlink:href="#DejaVuSans-20" x="318.595703"/>
      <use xlink:href="#DejaVuSans-28" x="350.382812"/>
      <use xlink:href="#DejaVuSans-6d" x="389.396484"/>
      <use xlink:href="#DejaVuSans-69" x="486.808594"/>
      <use xlink:href="#DejaVuSans-6e" x="514.591797"/>
      <use xlink:href="#DejaVuSans-29" x="577.970703"/>
     </g>
    </g>
   </g>
   <g id="matplotlib.axis_2">
    <g id="ytick_1">
     <g id="line2d_21">
      <path d="M 40.427969 258.75 
L 600.859219 258.75 
" clip-path="url(#p6c878ecf07)" style="fill: none; stroke: #b0b0b0; stroke-opacity: 0.2; stroke-width: 0.8; stroke-linecap: square"/>
     </g>
     <g id="line2d_22">
      <defs>
       <path id="m6f24b0f1f4" d="M 0 0 
L -3.5 0 
" style="stroke: #000000; stroke-width: 0.8"/>
      </defs>
      <g>
       <use xlink:href="#m6f24b0f1f4" x="40.427969" y="258.75" style="stroke: #000000; stroke-width: 0.8"/>
      </g>
     </g>
     <g id="text_12">
      <!-- 0.0 -->
      <g style="fill: #c0392b" transform="translate(19.910313 261.979336) scale(0.085 -0.085)">
       <defs>
        <path id="DejaVuSans-2e" d="M 684 794 
L 1344 794 
L 1344 0 
L 684 0 
L 684 794 
z
" transform="scale(0.015625)"/>
       </defs>
       <use xlink:href="#DejaVuSans-30"/>
       <use xlink:href="#DejaVuSans-2e" x="63.623047"/>
       <use xlink:href="#DejaVuSans-30" x="95.410156"/>
      </g>
     </g>
    </g>
    <g id="ytick_2">
     <g id="line2d_23">
      <path d="M 40.427969 218.417965 
L 600.859219 218.417965 
" clip-path="url(#p6c878ecf07)" style="fill: none; stroke: #b0b0b0; stroke-opacity: 0.2; stroke-width: 0.8; stroke-linecap: square"/>
     </g>
     <g id="line2d_24">
      <g>
       <use xlink:href="#m6f24b0f1f4" x="40.427969" y="218.417965" style="stroke: #000000; stroke-width: 0.8"/>
      </g>
     </g>
     <g id="text_13">
      <!-- 0.5 -->
      <g style="fill: #c0392b" transform="translate(19.910313 221.647301) scale(0.085 -0.085)">
       <use xlink:href="#DejaVuSans-30"/>
       <use xlink:href="#DejaVuSans-2e" x="63.623047"/>
       <use xlink:href="#DejaVuSans-35" x="95.410156"/>
      </g>
     </g>
    </g>
    <g id="ytick_3">
     <g id="line2d_25">
      <path d="M 40.427969 178.085931 
L 600.859219 178.085931 
" clip-path="url(#p6c878ecf07)" style="fill: none; stroke: #b0b0b0; stroke-opacity: 0.2; stroke-width: 0.8; stroke-linecap: square"/>
     </g>
     <g id="line2d_26">
      <g>
       <use xlink:href="#m6f24b0f1f4" x="40.427969" y="178.085931" style="stroke: #000000; stroke-width: 0.8"/>
      </g>
     </g>
     <g id="text_14">
      <!-- 1.0 -->
      <g style="fill: #c0392b" transform="translate(19.910313 181.315267) scale(0.085 -0.085)">
       <use xlink:href="#DejaVuSans-31"/>
       <use xlink:href="#DejaVuSans-2e" x="63.623047"/>
       <use xlink:href="#DejaVuSans-30" x="95.410156"/>
      </g>
     </g>
    </g>
    <g id="ytick_4">
     <g id="line2d_27">
      <path d="M 40.427969 137.753896 
L 600.859219 137.753896 
" clip-path="url(#p6c878ecf07)" style="fill: none; stroke: #b0b0b0; stroke-opacity: 0.2; stroke-width: 0.8; stroke-linecap: square"/>
     </g>
     <g id="line2d_28">
      <g>
       <use xlink:href="#m6f24b0f1f4" x="40.427969" y="137.753896" style="stroke: #000000; stroke-width: 0.8"/>
      </g>
     </g>
     <g id="text_15">
      <!-- 1.5 -->
      <g style="fill: #c0392b" transform="translate(19.910313 140.983232) scale(0.085 -0.085)">
       <use xlink:href="#DejaVuSans-31"/>
       <use xlink:href="#DejaVuSans-2e" x="63.623047"/>
       <use xlink:href="#DejaVuSans-35" x="95.410156"/>
      </g>
     </g>
    </g>
    <g id="ytick_5">
     <g id="line2d_29">
      <path d="M 40.427969 97.421861 
L 600.859219 97.421861 
" clip-path="url(#p6c878ecf07)" style="fill: none; stroke: #b0b0b0; stroke-opacity: 0.2; stroke-width: 0.8; stroke-linecap: square"/>
     </g>
     <g id="line2d_30">
      <g>
       <use xlink:href="#m6f24b0f1f4" x="40.427969" y="97.421861" style="stroke: #000000; stroke-width: 0.8"/>
      </g>
     </g>
     <g id="text_16">
      <!-- 2.0 -->
      <g style="fill: #c0392b" transform="translate(19.910313 100.651197) scale(0.085 -0.085)">
       <use xlink:href="#DejaVuSans-32"/>
       <use xlink:href="#DejaVuSans-2e" x="63.623047"/>
       <use xlink:href="#DejaVuSans-30" x="95.410156"/>
      </g>
     </g>
    </g>
    <g id="ytick_6">
     <g id="line2d_31">
      <path d="M 40.427969 57.089827 
L 600.859219 57.089827 
" clip-path="url(#p6c878ecf07)" style="fill: none; stroke: #b0b0b0; stroke-opacity: 0.2; stroke-width: 0.8; stroke-linecap: square"/>
     </g>
     <g id="line2d_32">
      <g>
       <use xlink:href="#m6f24b0f1f4" x="40.427969" y="57.089827" style="stroke: #000000; stroke-width: 0.8"/>
      </g>
     </g>
     <g id="text_17">
      <!-- 2.5 -->
      <g style="fill: #c0392b" transform="translate(19.910313 60.319163) scale(0.085 -0.085)">
       <use xlink:href="#DejaVuSans-32"/>
       <use xlink:href="#DejaVuSans-2e" x="63.623047"/>
       <use xlink:href="#DejaVuSans-35" x="95.410156"/>
      </g>
     </g>
    </g>
    <g id="text_18">
     <!-- Débit (m³/s) -->
     <g style="fill: #c0392b" transform="translate(14.038594 167.069219) rotate(-90) scale(0.09 -0.09)">
      <defs>
       <path id="DejaVuSans-44" d="M 1259 4147 
L 1259 519 
L 2022 519 
Q 2988 519 3436 956 
Q 3884 1394 3884 2338 
Q 3884 3275 3436 3711 
Q 2988 4147 2022 4147 
L 1259 4147 
z
M 628 4666 
L 1925 4666 
Q 3281 4666 3915 4102 
Q 4550 3538 4550 2338 
Q 4550 1131 3912 565 
Q 3275 0 1925 0 
L 628 0 
L 628 4666 
z
" transform="scale(0.015625)"/>
       <path id="DejaVuSans-e9" d="M 3597 1894 
L 3597 1613 
L 953 1613 
Q 991 1019 1311 708 
Q 1631 397 2203 397 
Q 2534 397 2845 478 
Q 3156 559 3463 722 
L 3463 178 
Q 3153 47 2828 -22 
Q 2503 -91 2169 -91 
Q 1331 -91 842 396 
Q 353 884 353 1716 
Q 353 2575 817 3079 
Q 1281 3584 2069 3584 
Q 2775 3584 3186 3129 
Q 3597 2675 3597 1894 
z
M 3022 2063 
Q 3016 2534 2758 2815 
Q 2500 3097 2075 3097 
Q 1594 3097 1305 2825 
Q 1016 2553 972 2059 
L 3022 2063 
z
M 2466 5119 
L 3088 5119 
L 2070 3944 
L 1591 3944 
L 2466 5119 
z
" transform="scale(0.015625)"/>
       <path id="DejaVuSans-62" d="M 3116 1747 
Q 3116 2381 2855 2742 
Q 2594 3103 2138 3103 
Q 1681 3103 1420 2742 
Q 1159 2381 1159 1747 
Q 1159 1113 1420 752 
Q 1681 391 2138 391 
Q 2594 391 2855 752 
Q 3116 1113 3116 1747 
z
M 1159 2969 
Q 1341 3281 1617 3432 
Q 1894 3584 2278 3584 
Q 2916 3584 3314 3078 
Q 3713 2572 3713 1747 
Q 3713 922 3314 415 
Q 2916 -91 2278 -91 
Q 1894 -91 1617 61 
Q 1341 213 1159 525 
L 1159 0 
L 581 0 
L 581 4863 
L 1159 4863 
L 1159 2969 
z
" transform="scale(0.015625)"/>
       <path id="DejaVuSans-74" d="M 1172 4494 
L 1172 3500 
L 2356 3500 
L 2356 3053 
L 1172 3053 
L 1172 1153 
Q 1172 725 1289 603 
Q 1406 481 1766 481 
L 2356 481 
L 2356 0 
L 1766 0 
Q 1100 0 847 248 
Q 594 497 594 1153 
L 594 3053 
L 172 3053 
L 172 3500 
L 594 3500 
L 594 4494 
L 1172 4494 
z
" transform="scale(0.015625)"/>
       <path id="DejaVuSans-b3" d="M 1638 3500 
Q 1925 3444 2083 3273 
Q 2241 3103 2241 2847 
Q 2241 2459 1944 2250 
Q 1647 2041 1094 2041 
Q 916 2041 720 2073 
Q 525 2106 306 2169 
L 306 2547 
Q 469 2463 655 2422 
Q 841 2381 1050 2381 
Q 1391 2381 1578 2504 
Q 1766 2628 1766 2847 
Q 1766 3078 1592 3197 
Q 1419 3316 1081 3316 
L 813 3316 
L 813 3653 
L 1106 3653 
Q 1400 3653 1551 3751 
Q 1703 3850 1703 4038 
Q 1703 4219 1547 4314 
Q 1391 4409 1094 4409 
Q 969 4409 809 4381 
Q 650 4353 397 4281 
L 397 4641 
Q 625 4694 825 4722 
Q 1025 4750 1197 4750 
Q 1647 4750 1911 4565 
Q 2175 4381 2175 4072 
Q 2175 3856 2034 3706 
Q 1894 3556 1638 3500 
z
" transform="scale(0.015625)"/>
       <path id="DejaVuSans-2f" d="M 1625 4666 
L 2156 4666 
L 531 -594 
L 0 -594 
L 1625 4666 
z
" transform="scale(0.015625)"/>
      </defs>
      <use xlink:href="#DejaVuSans-44"/>
      <use xlink:href="#DejaVuSans-e9" x="77.001953"/>
      <use xlink:href="#DejaVuSans-62" x="138.525391"/>
      <use xlink:href="#DejaVuSans-69" x="202.001953"/>
      <use xlink:href="#DejaVuSans-74" x="229.785156"/>
      <use xlink:href="#DejaVuSans-20" x="268.994141"/>
      <use xlink:href="#DejaVuSans-28" x="300.78125"/>
      <use xlink:href="#DejaVuSans-6d" x="339.794922"/>
      <use xlink:href="#DejaVuSans-b3" x="437.207031"/>
      <use xlink:href="#DejaVuSans-2f" x="477.294922"/>
      <use xlink:href="#DejaVuSans-73" x="510.986328"/>
      <use xlink:href="#DejaVuSans-29" x="563.085938"/>
     </g>
    </g>
   </g>
   <g id="line2d_33">
    <path d="M 40.427969 258.741092 
L 51.664686 258.635048 
L 57.283044 258.366815 
L 61.496813 257.91183 
L 64.305992 257.410824 
L 67.115171 256.694122 
L 69.92435 255.710218 
L 72.73353 254.410382 
L 75.542709 252.752879 
L 78.351888 250.706248 
L 81.161067 248.251031 
L 83.970246 245.379825 
L 86.779426 242.095906 
L 89.588605 238.411004 
L 92.397784 234.342831 
L 95.206963 229.912865 
L 98.016142 225.144653 
L 102.229911 217.411801 
L 106.44368 209.056767 
L 110.657449 200.163147 
L 114.871217 190.814123 
L 120.489576 177.783668 
L 127.512524 160.863452 
L 148.581368 109.566446 
L 154.199726 96.683176 
L 158.413495 87.476936 
L 162.627264 78.754287 
L 166.841033 70.599432 
L 171.054801 63.098017 
L 173.863981 58.503005 
L 176.67316 54.26259 
L 179.482339 50.401066 
L 182.291518 46.939804 
L 185.100697 43.894909 
L 187.909877 41.274427 
L 190.719056 39.075619 
L 193.528235 37.283018 
L 196.337414 35.867936 
L 199.146593 34.789853 
L 201.955773 33.999616 
L 204.764952 33.443877 
L 208.978721 32.935721 
L 213.192489 32.682389 
L 220.215437 32.535245 
L 234.261333 32.543559 
L 241.284281 32.717365 
L 245.49805 33.005349 
L 248.307229 33.340602 
L 251.116409 33.841608 
L 253.925588 34.55831 
L 256.734767 35.542214 
L 259.543946 36.84205 
L 262.353125 38.499553 
L 265.162305 40.546184 
L 267.971484 43.001401 
L 270.780663 45.872607 
L 273.589842 49.156526 
L 276.399021 52.841428 
L 279.208201 56.909601 
L 282.01738 61.339567 
L 284.826559 66.107779 
L 289.040328 73.840631 
L 293.254097 82.195665 
L 297.467865 91.089285 
L 301.681634 100.438309 
L 307.299993 113.468764 
L 314.322941 130.38898 
L 335.391785 181.685986 
L 341.010143 194.569256 
L 345.223912 203.775496 
L 349.437681 212.498145 
L 353.651449 220.653 
L 357.865218 228.154415 
L 360.674397 232.749427 
L 363.483577 236.989842 
L 366.292756 240.851366 
L 369.101935 244.312628 
L 371.911114 247.357523 
L 374.720293 249.978005 
L 377.529473 252.176813 
L 380.338652 253.969414 
L 383.147831 255.384496 
L 385.95701 256.462579 
L 388.766189 257.252816 
L 391.575368 257.808555 
L 395.789137 258.316711 
L 400.002906 258.570043 
L 407.025854 258.717598 
L 425.285519 258.749988 
L 600.859219 258.75 
L 600.859219 258.75 
" clip-path="url(#p6c878ecf07)" style="fill: none; stroke: #c0392b; stroke-width: 2.5; stroke-linecap: square"/>
   </g>
   <g id="patch_3">
    <path d="M 40.427969 258.75 
L 40.427969 21.2 
" style="fill: none; stroke: #000000; stroke-width: 0.8; stroke-linejoin: miter; stroke-linecap: square"/>
   </g>
   <g id="patch_4">
    <path d="M 600.859219 258.75 
L 600.859219 21.2 
" style="fill: none; stroke: #000000; stroke-width: 0.8; stroke-linejoin: miter; stroke-linecap: square"/>
   </g>
   <g id="patch_5">
    <path d="M 40.427969 258.75 
L 600.859219 258.75 
" style="fill: none; stroke: #000000; stroke-width: 0.8; stroke-linejoin: miter; stroke-linecap: square"/>
   </g>
   <g id="patch_6">
    <path d="M 40.427969 21.2 
L 600.859219 21.2 
" style="fill: none; stroke: #000000; stroke-width: 0.8; stroke-linejoin: miter; stroke-linecap: square"/>
   </g>
   <g id="text_19">
    <!-- Transformation pluie-débit — Bassin versant urbain (20 ha, $C=0{,}55$) -->
    <g transform="translate(147.793594 15.2) scale(0.1 -0.1)">
     <defs>
      <path id="DejaVuSans-72" d="M 2631 2963 
Q 2534 3019 2420 3045 
Q 2306 3072 2169 3072 
Q 1681 3072 1420 2755 
Q 1159 2438 1159 1844 
L 1159 0 
L 581 0 
L 581 3500 
L 1159 3500 
L 1159 2956 
Q 1341 3275 1631 3429 
Q 1922 3584 2338 3584 
Q 2397 3584 2469 3576 
Q 2541 3569 2628 3553 
L 2631 2963 
z
" transform="scale(0.015625)"/>
      <path id="DejaVuSans-61" d="M 2194 1759 
Q 1497 1759 1228 1600 
Q 959 1441 959 1056 
Q 959 750 1161 570 
Q 1363 391 1709 391 
Q 2188 391 2477 730 
Q 2766 1069 2766 1631 
L 2766 1759 
L 2194 1759 
z
M 3341 1997 
L 3341 0 
L 2766 0 
L 2766 531 
Q 2569 213 2275 61 
Q 1981 -91 1556 -91 
Q 1019 -91 701 211 
Q 384 513 384 1019 
Q 384 1609 779 1909 
Q 1175 2209 1959 2209 
L 2766 2209 
L 2766 2266 
Q 2766 2663 2505 2880 
Q 2244 3097 1772 3097 
Q 1472 3097 1187 3025 
Q 903 2953 641 2809 
L 641 3341 
Q 956 3463 1253 3523 
Q 1550 3584 1831 3584 
Q 2591 3584 2966 3190 
Q 3341 2797 3341 1997 
z
" transform="scale(0.015625)"/>
      <path id="DejaVuSans-66" d="M 2375 4863 
L 2375 4384 
L 1825 4384 
Q 1516 4384 1395 4259 
Q 1275 4134 1275 3809 
L 1275 3500 
L 2222 3500 
L 2222 3053 
L 1275 3053 
L 1275 0 
L 697 0 
L 697 3053 
L 147 3053 
L 147 3500 
L 697 3500 
L 697 3744 
Q 697 4328 969 4595 
Q 1241 4863 1831 4863 
L 2375 4863 
z
" transform="scale(0.015625)"/>
      <path id="DejaVuSans-6f" d="M 1959 3097 
Q 1497 3097 1228 2736 
Q 959 2375 959 1747 
Q 959 1119 1226 758 
Q 1494 397 1959 397 
Q 2419 397 2687 759 
Q 2956 1122 2956 1747 
Q 2956 2369 2687 2733 
Q 2419 3097 1959 3097 
z
M 1959 3584 
Q 2709 3584 3137 3096 
Q 3566 2609 3566 1747 
Q 3566 888 3137 398 
Q 2709 -91 1959 -91 
Q 1206 -91 779 398 
Q 353 888 353 1747 
Q 353 2609 779 3096 
Q 1206 3584 1959 3584 
z
" transform="scale(0.015625)"/>
      <path id="DejaVuSans-6c" d="M 603 4863 
L 1178 4863 
L 1178 0 
L 603 0 
L 603 4863 
z
" transform="scale(0.015625)"/>
      <path id="DejaVuSans-75" d="M 544 1381 
L 544 3500 
L 1119 3500 
L 1119 1403 
Q 1119 906 1312 657 
Q 1506 409 1894 409 
Q 2359 409 2629 706 
Q 2900 1003 2900 1516 
L 2900 3500 
L 3475 3500 
L 3475 0 
L 2900 0 
L 2900 538 
Q 2691 219 2414 64 
Q 2138 -91 1772 -91 
Q 1169 -91 856 284 
Q 544 659 544 1381 
z
M 1991 3584 
L 1991 3584 
z
" transform="scale(0.015625)"/>
      <path id="DejaVuSans-2d" d="M 313 2009 
L 1997 2009 
L 1997 1497 
L 313 1497 
L 313 2009 
z
" transform="scale(0.015625)"/>
      <path id="DejaVuSans-64" d="M 2906 2969 
L 2906 4863 
L 3481 4863 
L 3481 0 
L 2906 0 
L 2906 525 
Q 2725 213 2448 61 
Q 2172 -91 1784 -91 
Q 1150 -91 751 415 
Q 353 922 353 1747 
Q 353 2572 751 3078 
Q 1150 3584 1784 3584 
Q 2172 3584 2448 3432 
Q 2725 3281 2906 2969 
z
M 947 1747 
Q 947 1113 1208 752 
Q 1469 391 1925 391 
Q 2381 391 2643 752 
Q 2906 1113 2906 1747 
Q 2906 2381 2643 2742 
Q 2381 3103 1925 3103 
Q 1469 3103 1208 2742 
Q 947 2381 947 1747 
z
" transform="scale(0.015625)"/>
      <path id="DejaVuSansDisplay-2014" d="M 313 1978 
L 6088 1978 
L 6088 1528 
L 313 1528 
L 313 1978 
z
" transform="scale(0.015625)"/>
      <path id="DejaVuSans-42" d="M 1259 2228 
L 1259 519 
L 2272 519 
Q 2781 519 3026 730 
Q 3272 941 3272 1375 
Q 3272 1813 3026 2020 
Q 2781 2228 2272 2228 
L 1259 2228 
z
M 1259 4147 
L 1259 2741 
L 2194 2741 
Q 2656 2741 2882 2914 
Q 3109 3088 3109 3444 
Q 3109 3797 2882 3972 
Q 2656 4147 2194 4147 
L 1259 4147 
z
M 628 4666 
L 2241 4666 
Q 2963 4666 3353 4366 
Q 3744 4066 3744 3513 
Q 3744 3084 3544 2831 
Q 3344 2578 2956 2516 
Q 3422 2416 3680 2098 
Q 3938 1781 3938 1306 
Q 3938 681 3513 340 
Q 3088 0 2303 0 
L 628 0 
L 628 4666 
z
" transform="scale(0.015625)"/>
      <path id="DejaVuSans-76" d="M 191 3500 
L 800 3500 
L 1894 563 
L 2988 3500 
L 3597 3500 
L 2284 0 
L 1503 0 
L 191 3500 
z
" transform="scale(0.015625)"/>
      <path id="DejaVuSans-68" d="M 3513 2113 
L 3513 0 
L 2938 0 
L 2938 2094 
Q 2938 2591 2744 2837 
Q 2550 3084 2163 3084 
Q 1697 3084 1428 2787 
Q 1159 2491 1159 1978 
L 1159 0 
L 581 0 
L 581 4863 
L 1159 4863 
L 1159 2956 
Q 1366 3272 1645 3428 
Q 1925 3584 2291 3584 
Q 2894 3584 3203 3211 
Q 3513 2838 3513 2113 
z
" transform="scale(0.015625)"/>
      <path id="DejaVuSans-2c" d="M 750 794 
L 1409 794 
L 1409 256 
L 897 -744 
L 494 -744 
L 750 256 
L 750 794 
z
" transform="scale(0.015625)"/>
      <path id="DejaVuSans-Oblique-43" d="M 4447 4306 
L 4319 3641 
Q 4019 3944 3683 4091 
Q 3347 4238 2956 4238 
Q 2422 4238 2017 3981 
Q 1613 3725 1319 3200 
Q 1131 2863 1032 2486 
Q 934 2109 934 1728 
Q 934 1091 1264 756 
Q 1594 422 2222 422 
Q 2656 422 3056 561 
Q 3456 700 3834 978 
L 3688 231 
Q 3316 72 2936 -9 
Q 2556 -91 2175 -91 
Q 1278 -91 773 396 
Q 269 884 269 1753 
Q 269 2309 461 2846 
Q 653 3384 1013 3828 
Q 1394 4300 1883 4525 
Q 2372 4750 3022 4750 
Q 3422 4750 3780 4639 
Q 4138 4528 4447 4306 
z
" transform="scale(0.015625)"/>
      <path id="DejaVuSans-3d" d="M 678 2906 
L 4684 2906 
L 4684 2381 
L 678 2381 
L 678 2906 
z
M 678 1631 
L 4684 1631 
L 4684 1100 
L 678 1100 
L 678 1631 
z
" transform="scale(0.015625)"/>
     </defs>
     <use xlink:href="#DejaVuSans-54" transform="translate(0 0.015625)"/>
     <use xlink:href="#DejaVuSans-72" transform="translate(61.083984 0.015625)"/>
     <use xlink:href="#DejaVuSans-61" transform="translate(102.197266 0.015625)"/>
     <use xlink:href="#DejaVuSans-6e" transform="translate(163.476562 0.015625)"/>
     <use xlink:href="#DejaVuSans-73" transform="translate(226.855469 0.015625)"/>
     <use xlink:href="#DejaVuSans-66" transform="translate(278.955078 0.015625)"/>
     <use xlink:href="#DejaVuSans-6f" transform="translate(314.160156 0.015625)"/>
     <use xlink:href="#DejaVuSans-72" transform="translate(375.341797 0.015625)"/>
     <use xlink:href="#DejaVuSans-6d" transform="translate(416.455078 0.015625)"/>
     <use xlink:href="#DejaVuSans-61" transform="translate(513.867188 0.015625)"/>
     <use xlink:href="#DejaVuSans-74" transform="translate(575.146484 0.015625)"/>
     <use xlink:href="#DejaVuSans-69" transform="translate(614.355469 0.015625)"/>
     <use xlink:href="#DejaVuSans-6f" transform="translate(642.138672 0.015625)"/>
     <use xlink:href="#DejaVuSans-6e" transform="translate(703.320312 0.015625)"/>
     <use xlink:href="#DejaVuSans-20" transform="translate(766.699219 0.015625)"/>
     <use xlink:href="#DejaVuSans-70" transform="translate(798.486328 0.015625)"/>
     <use xlink:href="#DejaVuSans-6c" transform="translate(861.962891 0.015625)"/>
     <use xlink:href="#DejaVuSans-75" transform="translate(889.746094 0.015625)"/>
     <use xlink:href="#DejaVuSans-69" transform="translate(953.125 0.015625)"/>
     <use xlink:href="#DejaVuSans-65" transform="translate(980.908203 0.015625)"/>
     <use xlink:href="#DejaVuSans-2d" transform="translate(1042.431641 0.015625)"/>
     <use xlink:href="#DejaVuSans-64" transform="translate(1078.515625 0.015625)"/>
     <use xlink:href="#DejaVuSans-e9" transform="translate(1141.992188 0.015625)"/>
     <use xlink:href="#DejaVuSans-62" transform="translate(1203.515625 0.015625)"/>
     <use xlink:href="#DejaVuSans-69" transform="translate(1266.992188 0.015625)"/>
     <use xlink:href="#DejaVuSans-74" transform="translate(1294.775391 0.015625)"/>
     <use xlink:href="#DejaVuSans-20" transform="translate(1333.984375 0.015625)"/>
     <use xlink:href="#DejaVuSansDisplay-2014" transform="translate(1365.771484 0.015625)"/>
     <use xlink:href="#DejaVuSans-20" transform="translate(1465.771484 0.015625)"/>
     <use xlink:href="#DejaVuSans-42" transform="translate(1497.558594 0.015625)"/>
     <use xlink:href="#DejaVuSans-61" transform="translate(1566.162109 0.015625)"/>
     <use xlink:href="#DejaVuSans-73" transform="translate(1627.441406 0.015625)"/>
     <use xlink:href="#DejaVuSans-73" transform="translate(1679.541016 0.015625)"/>
     <use xlink:href="#DejaVuSans-69" transform="translate(1731.640625 0.015625)"/>
     <use xlink:href="#DejaVuSans-6e" transform="translate(1759.423828 0.015625)"/>
     <use xlink:href="#DejaVuSans-20" transform="translate(1822.802734 0.015625)"/>
     <use xlink:href="#DejaVuSans-76" transform="translate(1854.589844 0.015625)"/>
     <use xlink:href="#DejaVuSans-65" transform="translate(1913.769531 0.015625)"/>
     <use xlink:href="#DejaVuSans-72" transform="translate(1975.292969 0.015625)"/>
     <use xlink:href="#DejaVuSans-73" transform="translate(2016.40625 0.015625)"/>
     <use xlink:href="#DejaVuSans-61" transform="translate(2068.505859 0.015625)"/>
     <use xlink:href="#DejaVuSans-6e" transform="translate(2129.785156 0.015625)"/>
     <use xlink:href="#DejaVuSans-74" transform="translate(2193.164062 0.015625)"/>
     <use xlink:href="#DejaVuSans-20" transform="translate(2232.373047 0.015625)"/>
     <use xlink:href="#DejaVuSans-75" transform="translate(2264.160156 0.015625)"/>
     <use xlink:href="#DejaVuSans-72" transform="translate(2327.539062 0.015625)"/>
     <use xlink:href="#DejaVuSans-62" transform="translate(2368.652344 0.015625)"/>
     <use xlink:href="#DejaVuSans-61" transform="translate(2432.128906 0.015625)"/>
     <use xlink:href="#DejaVuSans-69" transform="translate(2493.408203 0.015625)"/>
     <use xlink:href="#DejaVuSans-6e" transform="translate(2521.191406 0.015625)"/>
     <use xlink:href="#DejaVuSans-20" transform="translate(2584.570312 0.015625)"/>
     <use xlink:href="#DejaVuSans-28" transform="translate(2616.357422 0.015625)"/>
     <use xlink:href="#DejaVuSans-32" transform="translate(2655.371094 0.015625)"/>
     <use xlink:href="#DejaVuSans-30" transform="translate(2718.994141 0.015625)"/>
     <use xlink:href="#DejaVuSans-20" transform="translate(2782.617188 0.015625)"/>
     <use xlink:href="#DejaVuSans-68" transform="translate(2814.404297 0.015625)"/>
     <use xlink:href="#DejaVuSans-61" transform="translate(2877.783203 0.015625)"/>
     <use xlink:href="#DejaVuSans-2c" transform="translate(2939.0625 0.015625)"/>
     <use xlink:href="#DejaVuSans-20" transform="translate(2970.849609 0.015625)"/>
     <use xlink:href="#DejaVuSans-Oblique-43" transform="translate(3002.636719 0.015625)"/>
     <use xlink:href="#DejaVuSans-3d" transform="translate(3091.943359 0.015625)"/>
     <use xlink:href="#DejaVuSans-30" transform="translate(3195.214844 0.015625)"/>
     <use xlink:href="#DejaVuSans-2c" transform="translate(3258.837891 0.015625)"/>
     <use xlink:href="#DejaVuSans-35" transform="translate(3290.625 0.015625)"/>
     <use xlink:href="#DejaVuSans-35" transform="translate(3354.248047 0.015625)"/>
     <use xlink:href="#DejaVuSans-29" transform="translate(3417.871094 0.015625)"/>
    </g>
   </g>
   <g id="legend_1">
    <g id="patch_7">
     <path d="M 440.555859 65.429219 
L 594.909219 65.429219 
Q 596.609219 65.429219 596.609219 63.729219 
L 596.609219 27.15 
Q 596.609219 25.45 594.909219 25.45 
L 440.555859 25.45 
Q 438.855859 25.45 438.855859 27.15 
L 438.855859 63.729219 
Q 438.855859 65.429219 440.555859 65.429219 
z
" style="fill: #ffffff; opacity: 0.8; stroke: #cccccc; stroke-linejoin: miter"/>
    </g>
    <g id="line2d_34">
     <path d="M 442.255859 32.333672 
L 450.755859 32.333672 
L 459.255859 32.333672 
" style="fill: none; stroke: #c0392b; stroke-width: 2.5; stroke-linecap: square"/>
    </g>
    <g id="text_20">
     <!-- Hydrogramme exutoire (m³/s) -->
     <g transform="translate(466.055859 35.308672) scale(0.085 -0.085)">
      <defs>
       <path id="DejaVuSans-48" d="M 628 4666 
L 1259 4666 
L 1259 2753 
L 3553 2753 
L 3553 4666 
L 4184 4666 
L 4184 0 
L 3553 0 
L 3553 2222 
L 1259 2222 
L 1259 0 
L 628 0 
L 628 4666 
z
" transform="scale(0.015625)"/>
       <path id="DejaVuSans-79" d="M 2059 -325 
Q 1816 -950 1584 -1140 
Q 1353 -1331 966 -1331 
L 506 -1331 
L 506 -850 
L 844 -850 
Q 1081 -850 1212 -737 
Q 1344 -625 1503 -206 
L 1606 56 
L 191 3500 
L 800 3500 
L 1894 763 
L 2988 3500 
L 3597 3500 
L 2059 -325 
z
" transform="scale(0.015625)"/>
       <path id="DejaVuSans-67" d="M 2906 1791 
Q 2906 2416 2648 2759 
Q 2391 3103 1925 3103 
Q 1463 3103 1205 2759 
Q 947 2416 947 1791 
Q 947 1169 1205 825 
Q 1463 481 1925 481 
Q 2391 481 2648 825 
Q 2906 1169 2906 1791 
z
M 3481 434 
Q 3481 -459 3084 -895 
Q 2688 -1331 1869 -1331 
Q 1566 -1331 1297 -1286 
Q 1028 -1241 775 -1147 
L 775 -588 
Q 1028 -725 1275 -790 
Q 1522 -856 1778 -856 
Q 2344 -856 2625 -561 
Q 2906 -266 2906 331 
L 2906 616 
Q 2728 306 2450 153 
Q 2172 0 1784 0 
Q 1141 0 747 490 
Q 353 981 353 1791 
Q 353 2603 747 3093 
Q 1141 3584 1784 3584 
Q 2172 3584 2450 3431 
Q 2728 3278 2906 2969 
L 2906 3500 
L 3481 3500 
L 3481 434 
z
" transform="scale(0.015625)"/>
       <path id="DejaVuSans-78" d="M 3513 3500 
L 2247 1797 
L 3578 0 
L 2900 0 
L 1881 1375 
L 863 0 
L 184 0 
L 1544 1831 
L 300 3500 
L 978 3500 
L 1906 2253 
L 2834 3500 
L 3513 3500 
z
" transform="scale(0.015625)"/>
      </defs>
      <use xlink:href="#DejaVuSans-48"/>
      <use xlink:href="#DejaVuSans-79" x="75.195312"/>
      <use xlink:href="#DejaVuSans-64" x="134.375"/>
      <use xlink:href="#DejaVuSans-72" x="197.851562"/>
      <use xlink:href="#DejaVuSans-6f" x="236.714844"/>
      <use xlink:href="#DejaVuSans-67" x="297.896484"/>
      <use xlink:href="#DejaVuSans-72" x="361.373047"/>
      <use xlink:href="#DejaVuSans-61" x="402.486328"/>
      <use xlink:href="#DejaVuSans-6d" x="463.765625"/>
      <use xlink:href="#DejaVuSans-6d" x="561.177734"/>
      <use xlink:href="#DejaVuSans-65" x="658.589844"/>
      <use xlink:href="#DejaVuSans-20" x="720.113281"/>
      <use xlink:href="#DejaVuSans-65" x="751.900391"/>
      <use xlink:href="#DejaVuSans-78" x="811.673828"/>
      <use xlink:href="#DejaVuSans-75" x="870.853516"/>
      <use xlink:href="#DejaVuSans-74" x="934.232422"/>
      <use xlink:href="#DejaVuSans-6f" x="973.441406"/>
      <use xlink:href="#DejaVuSans-69" x="1034.623047"/>
      <use xlink:href="#DejaVuSans-72" x="1062.40625"/>
      <use xlink:href="#DejaVuSans-65" x="1101.269531"/>
      <use xlink:href="#DejaVuSans-20" x="1162.792969"/>
      <use xlink:href="#DejaVuSans-28" x="1194.580078"/>
      <use xlink:href="#DejaVuSans-6d" x="1233.59375"/>
      <use xlink:href="#DejaVuSans-b3" x="1331.005859"/>
      <use xlink:href="#DejaVuSans-2f" x="1371.09375"/>
      <use xlink:href="#DejaVuSans-73" x="1404.785156"/>
      <use xlink:href="#DejaVuSans-29" x="1456.884766"/>
     </g>
    </g>
    <g id="patch_8">
     <path d="M 442.255859 47.785078 
L 459.255859 47.785078 
L 459.255859 41.835078 
L 442.255859 41.835078 
z
" style="fill: #1f4e79; fill-opacity: 0.25; stroke: #1f4e79; stroke-opacity: 0.25; stroke-linejoin: miter"/>
    </g>
    <g id="text_21">
     <!-- Pluie brute (mm/h) -->
     <g transform="translate(466.055859 47.785078) scale(0.085 -0.085)">
      <defs>
       <path id="DejaVuSans-50" d="M 1259 4147 
L 1259 2394 
L 2053 2394 
Q 2494 2394 2734 2622 
Q 2975 2850 2975 3272 
Q 2975 3691 2734 3919 
Q 2494 4147 2053 4147 
L 1259 4147 
z
M 628 4666 
L 2053 4666 
Q 2838 4666 3239 4311 
Q 3641 3956 3641 3272 
Q 3641 2581 3239 2228 
Q 2838 1875 2053 1875 
L 1259 1875 
L 1259 0 
L 628 0 
L 628 4666 
z
" transform="scale(0.015625)"/>
      </defs>
      <use xlink:href="#DejaVuSans-50"/>
      <use xlink:href="#DejaVuSans-6c" x="60.302734"/>
      <use xlink:href="#DejaVuSans-75" x="88.085938"/>
      <use xlink:href="#DejaVuSans-69" x="151.464844"/>
      <use xlink:href="#DejaVuSans-65" x="179.248047"/>
      <use xlink:href="#DejaVuSans-20" x="240.771484"/>
      <use xlink:href="#DejaVuSans-62" x="272.558594"/>
      <use xlink:href="#DejaVuSans-72" x="336.035156"/>
      <use xlink:href="#DejaVuSans-75" x="377.148438"/>
      <use xlink:href="#DejaVuSans-74" x="440.527344"/>
      <use xlink:href="#DejaVuSans-65" x="479.736328"/>
      <use xlink:href="#DejaVuSans-20" x="541.259766"/>
      <use xlink:href="#DejaVuSans-28" x="573.046875"/>
      <use xlink:href="#DejaVuSans-6d" x="612.060547"/>
      <use xlink:href="#DejaVuSans-6d" x="709.472656"/>
      <use xlink:href="#DejaVuSans-2f" x="806.884766"/>
      <use xlink:href="#DejaVuSans-68" x="840.576172"/>
      <use xlink:href="#DejaVuSans-29" x="903.955078"/>
     </g>
    </g>
    <g id="patch_9">
     <path d="M 442.255859 60.261484 
L 459.255859 60.261484 
L 459.255859 54.311484 
L 442.255859 54.311484 
z
" style="fill: #2e8b57; fill-opacity: 0.4; stroke: #2e8b57; stroke-opacity: 0.4; stroke-linejoin: miter"/>
    </g>
    <g id="text_22">
     <!-- Pluie nette ($C \times i$) -->
     <g transform="translate(466.055859 60.261484) scale(0.085 -0.085)">
      <defs>
       <path id="DejaVuSans-d7" d="M 4488 3438 
L 3059 2003 
L 4488 575 
L 4116 197 
L 2681 1631 
L 1247 197 
L 878 575 
L 2303 2003 
L 878 3438 
L 1247 3816 
L 2681 2381 
L 4116 3816 
L 4488 3438 
z
" transform="scale(0.015625)"/>
       <path id="DejaVuSans-Oblique-69" d="M 1172 4863 
L 1747 4863 
L 1606 4134 
L 1031 4134 
L 1172 4863 
z
M 909 3500 
L 1484 3500 
L 800 0 
L 225 0 
L 909 3500 
z
" transform="scale(0.015625)"/>
      </defs>
      <use xlink:href="#DejaVuSans-50" transform="translate(0 0.015625)"/>
      <use xlink:href="#DejaVuSans-6c" transform="translate(60.302734 0.015625)"/>
      <use xlink:href="#DejaVuSans-75" transform="translate(88.085938 0.015625)"/>
      <use xlink:href="#DejaVuSans-69" transform="translate(151.464844 0.015625)"/>
      <use xlink:href="#DejaVuSans-65" transform="translate(179.248047 0.015625)"/>
      <use xlink:href="#DejaVuSans-20" transform="translate(240.771484 0.015625)"/>
      <use xlink:href="#DejaVuSans-6e" transform="translate(272.558594 0.015625)"/>
      <use xlink:href="#DejaVuSans-65" transform="translate(335.9375 0.015625)"/>
      <use xlink:href="#DejaVuSans-74" transform="translate(397.460938 0.015625)"/>
      <use xlink:href="#DejaVuSans-74" transform="translate(436.669922 0.015625)"/>
      <use xlink:href="#DejaVuSans-65" transform="translate(475.878906 0.015625)"/>
      <use xlink:href="#DejaVuSans-20" transform="translate(537.402344 0.015625)"/>
      <use xlink:href="#DejaVuSans-28" transform="translate(569.189453 0.015625)"/>
      <use xlink:href="#DejaVuSans-Oblique-43" transform="translate(608.203125 0.015625)"/>
      <use xlink:href="#DejaVuSans-d7" transform="translate(697.509766 0.015625)"/>
      <use xlink:href="#DejaVuSans-Oblique-69" transform="translate(800.78125 0.015625)"/>
      <use xlink:href="#DejaVuSans-29" transform="translate(828.564453 0.015625)"/>
     </g>
    </g>
   </g>
  </g>
  <g id="axes_2">
   <g id="PolyCollection_1">
    <defs>
     <path id="mf2e7fa382b" d="M 40.427969 -272.686719 
L 40.427969 -272.686719 
L 41.832558 -272.686719 
L 43.237148 -272.686719 
L 44.641738 -272.686719 
L 46.046327 -272.686719 
L 47.450917 -272.686719 
L 48.855506 -272.686719 
L 50.260096 -272.686719 
L 51.664686 -272.686719 
L 53.069275 -272.686719 
L 54.473865 -272.686719 
L 55.878454 -272.686719 
L 57.283044 -272.686719 
L 58.687634 -272.686719 
L 60.092223 -272.686719 
L 61.496813 -272.686719 
L 62.901402 -272.686719 
L 64.305992 -272.686719 
L 65.710582 -272.686719 
L 67.115171 -272.686719 
L 68.519761 -272.686719 
L 69.92435 -272.686719 
L 71.32894 -272.686719 
L 72.73353 -272.686719 
L 74.138119 -272.686719 
L 75.542709 -272.686719 
L 76.947298 -272.686719 
L 78.351888 -272.686719 
L 79.756478 -272.686719 
L 81.161067 -272.686719 
L 82.565657 -272.686719 
L 83.970246 -272.686719 
L 85.374836 -272.686719 
L 86.779426 -272.686719 
L 88.184015 -272.686719 
L 89.588605 -272.686719 
L 90.993194 -272.686719 
L 92.397784 -272.686719 
L 93.802374 -272.686719 
L 95.206963 -272.686719 
L 96.611553 -272.686719 
L 98.016142 -272.686719 
L 99.420732 -272.686719 
L 100.825322 -272.686719 
L 102.229911 -272.686719 
L 103.634501 -272.686719 
L 105.03909 -272.686719 
L 106.44368 -272.686719 
L 107.84827 -272.686719 
L 109.252859 -272.686719 
L 110.657449 -272.686719 
L 112.062038 -272.686719 
L 113.466628 -272.686719 
L 114.871217 -272.686719 
L 116.275807 -272.686719 
L 117.680397 -272.686719 
L 119.084986 -272.686719 
L 120.489576 -272.686719 
L 121.894165 -272.686719 
L 123.298755 -272.686719 
L 124.703345 -272.686719 
L 126.107934 -272.686719 
L 127.512524 -272.686719 
L 128.917113 -272.686719 
L 130.321703 -272.686719 
L 131.726293 -272.686719 
L 133.130882 -272.686719 
L 134.535472 -272.686719 
L 135.940061 -272.686719 
L 137.344651 -272.686719 
L 138.749241 -272.686719 
L 140.15383 -272.686719 
L 141.55842 -272.686719 
L 142.963009 -272.686719 
L 144.367599 -272.686719 
L 145.772189 -272.686719 
L 147.176778 -272.686719 
L 148.581368 -272.686719 
L 149.985957 -272.686719 
L 151.390547 -272.686719 
L 152.795137 -272.686719 
L 154.199726 -272.686719 
L 155.604316 -272.686719 
L 157.008905 -272.686719 
L 158.413495 -272.686719 
L 159.818085 -272.686719 
L 161.222674 -272.686719 
L 162.627264 -272.686719 
L 164.031853 -272.686719 
L 165.436443 -272.686719 
L 166.841033 -272.686719 
L 168.245622 -272.686719 
L 169.650212 -272.686719 
L 171.054801 -272.686719 
L 172.459391 -272.686719 
L 173.863981 -272.686719 
L 175.26857 -272.686719 
L 176.67316 -272.686719 
L 178.077749 -272.686719 
L 179.482339 -272.686719 
L 180.886929 -272.686719 
L 182.291518 -272.686719 
L 183.696108 -272.686719 
L 185.100697 -272.686719 
L 186.505287 -272.686719 
L 187.909877 -272.686719 
L 189.314466 -272.686719 
L 190.719056 -272.686719 
L 192.123645 -272.686719 
L 193.528235 -272.686719 
L 194.932825 -272.686719 
L 196.337414 -272.686719 
L 197.742004 -272.686719 
L 199.146593 -272.686719 
L 200.551183 -272.686719 
L 201.955773 -272.686719 
L 203.360362 -272.686719 
L 204.764952 -272.686719 
L 206.169541 -272.686719 
L 207.574131 -272.686719 
L 208.978721 -272.686719 
L 210.38331 -272.686719 
L 211.7879 -272.686719 
L 213.192489 -272.686719 
L 214.597079 -272.686719 
L 216.001669 -272.686719 
L 217.406258 -272.686719 
L 218.810848 -272.686719 
L 220.215437 -272.686719 
L 221.620027 -272.686719 
L 223.024617 -272.686719 
L 224.429206 -272.686719 
L 225.833796 -272.686719 
L 227.238385 -272.686719 
L 228.642975 -272.686719 
L 230.047565 -272.686719 
L 231.452154 -272.686719 
L 232.856744 -272.686719 
L 234.261333 -272.686719 
L 235.665923 -272.686719 
L 237.070513 -272.686719 
L 238.475102 -272.686719 
L 239.879692 -272.686719 
L 241.284281 -272.686719 
L 242.688871 -272.686719 
L 244.093461 -272.686719 
L 245.49805 -272.686719 
L 246.90264 -272.686719 
L 248.307229 -272.686719 
L 249.711819 -272.686719 
L 251.116409 -272.686719 
L 252.520998 -272.686719 
L 253.925588 -272.686719 
L 255.330177 -272.686719 
L 256.734767 -272.686719 
L 258.139357 -272.686719 
L 259.543946 -272.686719 
L 260.948536 -272.686719 
L 262.353125 -272.686719 
L 263.757715 -272.686719 
L 265.162305 -272.686719 
L 266.566894 -272.686719 
L 267.971484 -272.686719 
L 269.376073 -272.686719 
L 270.780663 -272.686719 
L 272.185253 -272.686719 
L 273.589842 -272.686719 
L 274.994432 -272.686719 
L 276.399021 -272.686719 
L 277.803611 -272.686719 
L 279.208201 -272.686719 
L 280.61279 -272.686719 
L 282.01738 -272.686719 
L 283.421969 -272.686719 
L 284.826559 -272.686719 
L 286.231149 -272.686719 
L 287.635738 -272.686719 
L 289.040328 -272.686719 
L 290.444917 -272.686719 
L 291.849507 -272.686719 
L 293.254097 -272.686719 
L 294.658686 -272.686719 
L 296.063276 -272.686719 
L 297.467865 -272.686719 
L 298.872455 -272.686719 
L 300.277045 -272.686719 
L 301.681634 -272.686719 
L 303.086224 -272.686719 
L 304.490813 -272.686719 
L 305.895403 -272.686719 
L 307.299993 -272.686719 
L 308.704582 -272.686719 
L 310.109172 -272.686719 
L 311.513761 -272.686719 
L 312.918351 -272.686719 
L 314.322941 -272.686719 
L 315.72753 -272.686719 
L 317.13212 -272.686719 
L 318.536709 -272.686719 
L 319.941299 -272.686719 
L 321.345889 -272.686719 
L 322.750478 -272.686719 
L 324.155068 -272.686719 
L 325.559657 -272.686719 
L 326.964247 -272.686719 
L 328.368837 -272.686719 
L 329.773426 -272.686719 
L 331.178016 -272.686719 
L 332.582605 -272.686719 
L 333.987195 -272.686719 
L 335.391785 -272.686719 
L 336.796374 -272.686719 
L 338.200964 -272.686719 
L 339.605553 -272.686719 
L 341.010143 -272.686719 
L 342.414733 -272.686719 
L 343.819322 -272.686719 
L 345.223912 -272.686719 
L 346.628501 -272.686719 
L 348.033091 -272.686719 
L 349.437681 -272.686719 
L 350.84227 -272.686719 
L 352.24686 -272.686719 
L 353.651449 -272.686719 
L 355.056039 -272.686719 
L 356.460629 -272.686719 
L 357.865218 -272.686719 
L 359.269808 -272.686719 
L 360.674397 -272.686719 
L 362.078987 -272.686719 
L 363.483577 -272.686719 
L 364.888166 -272.686719 
L 366.292756 -272.686719 
L 367.697345 -272.686719 
L 369.101935 -272.686719 
L 370.506525 -272.686719 
L 371.911114 -272.686719 
L 373.315704 -272.686719 
L 374.720293 -272.686719 
L 376.124883 -272.686719 
L 377.529473 -272.686719 
L 378.934062 -272.686719 
L 380.338652 -272.686719 
L 381.743241 -272.686719 
L 383.147831 -272.686719 
L 384.552421 -272.686719 
L 385.95701 -272.686719 
L 387.3616 -272.686719 
L 388.766189 -272.686719 
L 390.170779 -272.686719 
L 391.575368 -272.686719 
L 392.979958 -272.686719 
L 394.384548 -272.686719 
L 395.789137 -272.686719 
L 397.193727 -272.686719 
L 398.598316 -272.686719 
L 400.002906 -272.686719 
L 401.407496 -272.686719 
L 402.812085 -272.686719 
L 404.216675 -272.686719 
L 405.621264 -272.686719 
L 407.025854 -272.686719 
L 408.430444 -272.686719 
L 409.835033 -272.686719 
L 411.239623 -272.686719 
L 412.644212 -272.686719 
L 414.048802 -272.686719 
L 415.453392 -272.686719 
L 416.857981 -272.686719 
L 418.262571 -272.686719 
L 419.66716 -272.686719 
L 421.07175 -272.686719 
L 422.47634 -272.686719 
L 423.880929 -272.686719 
L 425.285519 -272.686719 
L 426.690108 -272.686719 
L 428.094698 -272.686719 
L 429.499288 -272.686719 
L 430.903877 -272.686719 
L 432.308467 -272.686719 
L 433.713056 -272.686719 
L 435.117646 -272.686719 
L 436.522236 -272.686719 
L 437.926825 -272.686719 
L 439.331415 -272.686719 
L 440.736004 -272.686719 
L 442.140594 -272.686719 
L 443.545184 -272.686719 
L 444.949773 -272.686719 
L 446.354363 -272.686719 
L 447.758952 -272.686719 
L 449.163542 -272.686719 
L 450.568132 -272.686719 
L 451.972721 -272.686719 
L 453.377311 -272.686719 
L 454.7819 -272.686719 
L 456.18649 -272.686719 
L 457.59108 -272.686719 
L 458.995669 -272.686719 
L 460.400259 -272.686719 
L 461.804848 -272.686719 
L 463.209438 -272.686719 
L 464.614028 -272.686719 
L 466.018617 -272.686719 
L 467.423207 -272.686719 
L 468.827796 -272.686719 
L 470.232386 -272.686719 
L 471.636976 -272.686719 
L 473.041565 -272.686719 
L 474.446155 -272.686719 
L 475.850744 -272.686719 
L 477.255334 -272.686719 
L 478.659924 -272.686719 
L 480.064513 -272.686719 
L 481.469103 -272.686719 
L 482.873692 -272.686719 
L 484.278282 -272.686719 
L 485.682872 -272.686719 
L 487.087461 -272.686719 
L 488.492051 -272.686719 
L 489.89664 -272.686719 
L 491.30123 -272.686719 
L 492.70582 -272.686719 
L 494.110409 -272.686719 
L 495.514999 -272.686719 
L 496.919588 -272.686719 
L 498.324178 -272.686719 
L 499.728768 -272.686719 
L 501.133357 -272.686719 
L 502.537947 -272.686719 
L 503.942536 -272.686719 
L 505.347126 -272.686719 
L 506.751716 -272.686719 
L 508.156305 -272.686719 
L 509.560895 -272.686719 
L 510.965484 -272.686719 
L 512.370074 -272.686719 
L 513.774664 -272.686719 
L 515.179253 -272.686719 
L 516.583843 -272.686719 
L 517.988432 -272.686719 
L 519.393022 -272.686719 
L 520.797612 -272.686719 
L 522.202201 -272.686719 
L 523.606791 -272.686719 
L 525.01138 -272.686719 
L 526.41597 -272.686719 
L 527.82056 -272.686719 
L 529.225149 -272.686719 
L 530.629739 -272.686719 
L 532.034328 -272.686719 
L 533.438918 -272.686719 
L 534.843508 -272.686719 
L 536.248097 -272.686719 
L 537.652687 -272.686719 
L 539.057276 -272.686719 
L 540.461866 -272.686719 
L 541.866456 -272.686719 
L 543.271045 -272.686719 
L 544.675635 -272.686719 
L 546.080224 -272.686719 
L 547.484814 -272.686719 
L 548.889404 -272.686719 
L 550.293993 -272.686719 
L 551.698583 -272.686719 
L 553.103172 -272.686719 
L 554.507762 -272.686719 
L 555.912352 -272.686719 
L 557.316941 -272.686719 
L 558.721531 -272.686719 
L 560.12612 -272.686719 
L 561.53071 -272.686719 
L 562.9353 -272.686719 
L 564.339889 -272.686719 
L 565.744479 -272.686719 
L 567.149068 -272.686719 
L 568.553658 -272.686719 
L 569.958248 -272.686719 
L 571.362837 -272.686719 
L 572.767427 -272.686719 
L 574.172016 -272.686719 
L 575.576606 -272.686719 
L 576.981196 -272.686719 
L 578.385785 -272.686719 
L 579.790375 -272.686719 
L 581.194964 -272.686719 
L 582.599554 -272.686719 
L 584.004144 -272.686719 
L 585.408733 -272.686719 
L 586.813323 -272.686719 
L 588.217912 -272.686719 
L 589.622502 -272.686719 
L 591.027092 -272.686719 
L 592.431681 -272.686719 
L 593.836271 -272.686719 
L 595.24086 -272.686719 
L 596.64545 -272.686719 
L 598.05004 -272.686719 
L 599.454629 -272.686719 
L 600.859219 -272.686719 
L 600.859219 -272.686719 
L 600.859219 -272.686719 
L 599.454629 -272.686719 
L 598.05004 -272.686719 
L 596.64545 -272.686719 
L 595.24086 -272.686719 
L 593.836271 -272.686719 
L 592.431681 -272.686719 
L 591.027092 -272.686719 
L 589.622502 -272.686719 
L 588.217912 -272.686719 
L 586.813323 -272.686719 
L 585.408733 -272.686719 
L 584.004144 -272.686719 
L 582.599554 -272.686719 
L 581.194964 -272.686719 
L 579.790375 -272.686719 
L 578.385785 -272.686719 
L 576.981196 -272.686719 
L 575.576606 -272.686719 
L 574.172016 -272.686719 
L 572.767427 -272.686719 
L 571.362837 -272.686719 
L 569.958248 -272.686719 
L 568.553658 -272.686719 
L 567.149068 -272.686719 
L 565.744479 -272.686719 
L 564.339889 -272.686719 
L 562.9353 -272.686719 
L 561.53071 -272.686719 
L 560.12612 -272.686719 
L 558.721531 -272.686719 
L 557.316941 -272.686719 
L 555.912352 -272.686719 
L 554.507762 -272.686719 
L 553.103172 -272.686719 
L 551.698583 -272.686719 
L 550.293993 -272.686719 
L 548.889404 -272.686719 
L 547.484814 -272.686719 
L 546.080224 -272.686719 
L 544.675635 -272.686719 
L 543.271045 -272.686719 
L 541.866456 -272.686719 
L 540.461866 -272.686719 
L 539.057276 -272.686719 
L 537.652687 -272.686719 
L 536.248097 -272.686719 
L 534.843508 -272.686719 
L 533.438918 -272.686719 
L 532.034328 -272.686719 
L 530.629739 -272.686719 
L 529.225149 -272.686719 
L 527.82056 -272.686719 
L 526.41597 -272.686719 
L 525.01138 -272.686719 
L 523.606791 -272.686719 
L 522.202201 -272.686719 
L 520.797612 -272.686719 
L 519.393022 -272.686719 
L 517.988432 -272.686719 
L 516.583843 -272.686719 
L 515.179253 -272.686719 
L 513.774664 -272.686719 
L 512.370074 -272.686719 
L 510.965484 -272.686719 
L 509.560895 -272.686719 
L 508.156305 -272.686719 
L 506.751716 -272.686719 
L 505.347126 -272.686719 
L 503.942536 -272.686719 
L 502.537947 -272.686719 
L 501.133357 -272.686719 
L 499.728768 -272.686719 
L 498.324178 -272.686719 
L 496.919588 -272.686719 
L 495.514999 -272.686719 
L 494.110409 -272.686719 
L 492.70582 -272.686719 
L 491.30123 -272.686719 
L 489.89664 -272.686719 
L 488.492051 -272.686719 
L 487.087461 -272.686719 
L 485.682872 -272.686719 
L 484.278282 -272.686719 
L 482.873692 -272.686719 
L 481.469103 -272.686719 
L 480.064513 -272.686719 
L 478.659924 -272.686719 
L 477.255334 -272.686719 
L 475.850744 -272.686719 
L 474.446155 -272.686719 
L 473.041565 -272.686719 
L 471.636976 -272.686719 
L 470.232386 -272.686719 
L 468.827796 -272.686719 
L 467.423207 -272.686719 
L 466.018617 -272.686719 
L 464.614028 -272.686719 
L 463.209438 -272.686719 
L 461.804848 -272.686719 
L 460.400259 -272.686719 
L 458.995669 -272.686719 
L 457.59108 -272.686719 
L 456.18649 -272.686719 
L 454.7819 -272.686719 
L 453.377311 -272.686719 
L 451.972721 -272.686719 
L 450.568132 -272.686719 
L 449.163542 -272.686719 
L 447.758952 -272.686719 
L 446.354363 -272.686719 
L 444.949773 -272.686719 
L 443.545184 -272.686719 
L 442.140594 -272.686719 
L 440.736004 -272.686719 
L 439.331415 -272.686719 
L 437.926825 -272.686719 
L 436.522236 -272.686719 
L 435.117646 -272.686719 
L 433.713056 -272.686719 
L 432.308467 -272.686719 
L 430.903877 -272.686719 
L 429.499288 -272.686719 
L 428.094698 -272.686719 
L 426.690108 -272.686719 
L 425.285519 -272.686719 
L 423.880929 -272.686719 
L 422.47634 -272.686719 
L 421.07175 -272.686719 
L 419.66716 -272.686719 
L 418.262571 -272.686719 
L 416.857981 -272.686719 
L 415.453392 -272.686719 
L 414.048802 -272.686719 
L 412.644212 -272.686719 
L 411.239623 -272.686719 
L 409.835033 -272.686719 
L 408.430444 -272.686719 
L 407.025854 -272.686719 
L 405.621264 -272.686719 
L 404.216675 -272.686719 
L 402.812085 -272.686719 
L 401.407496 -272.686719 
L 400.002906 -272.686719 
L 398.598316 -272.686719 
L 397.193727 -272.686719 
L 395.789137 -272.686719 
L 394.384548 -272.686719 
L 392.979958 -272.686719 
L 391.575368 -272.686719 
L 390.170779 -272.686719 
L 388.766189 -272.686719 
L 387.3616 -272.686719 
L 385.95701 -272.686719 
L 384.552421 -272.686719 
L 383.147831 -272.686719 
L 381.743241 -272.686719 
L 380.338652 -272.686719 
L 378.934062 -272.686719 
L 377.529473 -272.686719 
L 376.124883 -272.686719 
L 374.720293 -272.686719 
L 373.315704 -272.686719 
L 371.911114 -272.686719 
L 370.506525 -272.686719 
L 369.101935 -272.686719 
L 367.697345 -272.686719 
L 366.292756 -272.686719 
L 364.888166 -272.686719 
L 363.483577 -272.686719 
L 362.078987 -272.686719 
L 360.674397 -272.686719 
L 359.269808 -272.686719 
L 357.865218 -272.686719 
L 356.460629 -272.686719 
L 355.056039 -272.686719 
L 353.651449 -272.686719 
L 352.24686 -272.686719 
L 350.84227 -272.686719 
L 349.437681 -272.686719 
L 348.033091 -272.686719 
L 346.628501 -272.686719 
L 345.223912 -272.686719 
L 343.819322 -272.686719 
L 342.414733 -272.686719 
L 341.010143 -272.686719 
L 339.605553 -272.686719 
L 338.200964 -272.686719 
L 336.796374 -272.686719 
L 335.391785 -272.686719 
L 333.987195 -272.686719 
L 332.582605 -272.686719 
L 331.178016 -272.686719 
L 329.773426 -272.686719 
L 328.368837 -272.686719 
L 326.964247 -272.686719 
L 325.559657 -272.686719 
L 324.155068 -272.686719 
L 322.750478 -272.686719 
L 321.345889 -272.686719 
L 319.941299 -272.686719 
L 318.536709 -272.686719 
L 317.13212 -272.686719 
L 315.72753 -272.686719 
L 314.322941 -272.686719 
L 312.918351 -272.686719 
L 311.513761 -272.686719 
L 310.109172 -272.686719 
L 308.704582 -272.686719 
L 307.299993 -272.686719 
L 305.895403 -272.686719 
L 304.490813 -272.686719 
L 303.086224 -272.686719 
L 301.681634 -272.686719 
L 300.277045 -272.686719 
L 298.872455 -272.686719 
L 297.467865 -272.686719 
L 296.063276 -272.686719 
L 294.658686 -272.686719 
L 293.254097 -272.686719 
L 291.849507 -272.686719 
L 290.444917 -272.686719 
L 289.040328 -272.686719 
L 287.635738 -272.686719 
L 286.231149 -272.686719 
L 284.826559 -272.686719 
L 283.421969 -272.686719 
L 282.01738 -272.686719 
L 280.61279 -272.686719 
L 279.208201 -272.686719 
L 277.803611 -272.686719 
L 276.399021 -272.686719 
L 274.994432 -272.686719 
L 273.589842 -272.686719 
L 272.185253 -272.686719 
L 270.780663 -272.686719 
L 269.376073 -272.686719 
L 267.971484 -272.686719 
L 266.566894 -272.686719 
L 265.162305 -272.686719 
L 263.757715 -272.686719 
L 262.353125 -272.686719 
L 260.948536 -272.686719 
L 259.543946 -272.686719 
L 258.139357 -0.116341 
L 256.734767 -0.116341 
L 255.330177 -0.116341 
L 253.925588 -0.116341 
L 252.520998 -0.116341 
L 251.116409 -0.116341 
L 249.711819 -0.116341 
L 248.307229 -0.116341 
L 246.90264 -0.116341 
L 245.49805 -0.116341 
L 244.093461 -0.116341 
L 242.688871 -0.116341 
L 241.284281 -0.116341 
L 239.879692 -0.116341 
L 238.475102 -0.116341 
L 237.070513 -0.116341 
L 235.665923 -0.116341 
L 234.261333 -0.116341 
L 232.856744 -0.116341 
L 231.452154 -0.116341 
L 230.047565 -0.116341 
L 228.642975 -0.116341 
L 227.238385 -0.116341 
L 225.833796 -0.116341 
L 224.429206 -0.116341 
L 223.024617 -0.116341 
L 221.620027 -0.116341 
L 220.215437 -0.116341 
L 218.810848 -0.116341 
L 217.406258 -0.116341 
L 216.001669 -0.116341 
L 214.597079 -0.116341 
L 213.192489 -0.116341 
L 211.7879 -0.116341 
L 210.38331 -0.116341 
L 208.978721 -0.116341 
L 207.574131 -0.116341 
L 206.169541 -0.116341 
L 204.764952 -0.116341 
L 203.360362 -0.116341 
L 201.955773 -0.116341 
L 200.551183 -0.116341 
L 199.146593 -0.116341 
L 197.742004 -0.116341 
L 196.337414 -0.116341 
L 194.932825 -0.116341 
L 193.528235 -0.116341 
L 192.123645 -0.116341 
L 190.719056 -0.116341 
L 189.314466 -0.116341 
L 187.909877 -0.116341 
L 186.505287 -0.116341 
L 185.100697 -0.116341 
L 183.696108 -0.116341 
L 182.291518 -0.116341 
L 180.886929 -0.116341 
L 179.482339 -0.116341 
L 178.077749 -0.116341 
L 176.67316 -0.116341 
L 175.26857 -0.116341 
L 173.863981 -0.116341 
L 172.459391 -0.116341 
L 171.054801 -0.116341 
L 169.650212 -0.116341 
L 168.245622 -0.116341 
L 166.841033 -0.116341 
L 165.436443 -0.116341 
L 164.031853 -0.116341 
L 162.627264 -0.116341 
L 161.222674 -0.116341 
L 159.818085 -0.116341 
L 158.413495 -0.116341 
L 157.008905 -0.116341 
L 155.604316 -0.116341 
L 154.199726 -0.116341 
L 152.795137 -0.116341 
L 151.390547 -0.116341 
L 149.985957 -0.116341 
L 148.581368 -0.116341 
L 147.176778 -0.116341 
L 145.772189 -0.116341 
L 144.367599 -0.116341 
L 142.963009 -0.116341 
L 141.55842 -0.116341 
L 140.15383 -0.116341 
L 138.749241 -0.116341 
L 137.344651 -0.116341 
L 135.940061 -0.116341 
L 134.535472 -0.116341 
L 133.130882 -0.116341 
L 131.726293 -0.116341 
L 130.321703 -0.116341 
L 128.917113 -0.116341 
L 127.512524 -0.116341 
L 126.107934 -0.116341 
L 124.703345 -0.116341 
L 123.298755 -0.116341 
L 121.894165 -0.116341 
L 120.489576 -0.116341 
L 119.084986 -0.116341 
L 117.680397 -0.116341 
L 116.275807 -0.116341 
L 114.871217 -0.116341 
L 113.466628 -0.116341 
L 112.062038 -0.116341 
L 110.657449 -0.116341 
L 109.252859 -0.116341 
L 107.84827 -0.116341 
L 106.44368 -0.116341 
L 105.03909 -0.116341 
L 103.634501 -0.116341 
L 102.229911 -0.116341 
L 100.825322 -0.116341 
L 99.420732 -0.116341 
L 98.016142 -0.116341 
L 96.611553 -0.116341 
L 95.206963 -0.116341 
L 93.802374 -0.116341 
L 92.397784 -0.116341 
L 90.993194 -0.116341 
L 89.588605 -0.116341 
L 88.184015 -0.116341 
L 86.779426 -0.116341 
L 85.374836 -0.116341 
L 83.970246 -0.116341 
L 82.565657 -0.116341 
L 81.161067 -0.116341 
L 79.756478 -0.116341 
L 78.351888 -0.116341 
L 76.947298 -0.116341 
L 75.542709 -0.116341 
L 74.138119 -0.116341 
L 72.73353 -0.116341 
L 71.32894 -272.686719 
L 69.92435 -272.686719 
L 68.519761 -272.686719 
L 67.115171 -272.686719 
L 65.710582 -272.686719 
L 64.305992 -272.686719 
L 62.901402 -272.686719 
L 61.496813 -272.686719 
L 60.092223 -272.686719 
L 58.687634 -272.686719 
L 57.283044 -272.686719 
L 55.878454 -272.686719 
L 54.473865 -272.686719 
L 53.069275 -272.686719 
L 51.664686 -272.686719 
L 50.260096 -272.686719 
L 48.855506 -272.686719 
L 47.450917 -272.686719 
L 46.046327 -272.686719 
L 44.641738 -272.686719 
L 43.237148 -272.686719 
L 41.832558 -272.686719 
L 40.427969 -272.686719 
z
" style="stroke: #1f4e79; stroke-opacity: 0.25"/>
    </defs>
    <g clip-path="url(#p6c878ecf07)">
     <use xlink:href="#mf2e7fa382b" x="0" y="293.886719" style="fill: #1f4e79; fill-opacity: 0.25; stroke: #1f4e79; stroke-opacity: 0.25"/>
    </g>
   </g>
   <g id="PolyCollection_2">
    <defs>
     <path id="m665ef5be0c" d="M 40.427969 -272.686719 
L 40.427969 -272.686719 
L 41.832558 -272.686719 
L 43.237148 -272.686719 
L 44.641738 -272.686719 
L 46.046327 -272.686719 
L 47.450917 -272.686719 
L 48.855506 -272.686719 
L 50.260096 -272.686719 
L 51.664686 -272.686719 
L 53.069275 -272.686719 
L 54.473865 -272.686719 
L 55.878454 -272.686719 
L 57.283044 -272.686719 
L 58.687634 -272.686719 
L 60.092223 -272.686719 
L 61.496813 -272.686719 
L 62.901402 -272.686719 
L 64.305992 -272.686719 
L 65.710582 -272.686719 
L 67.115171 -272.686719 
L 68.519761 -272.686719 
L 69.92435 -272.686719 
L 71.32894 -272.686719 
L 72.73353 -272.686719 
L 74.138119 -272.686719 
L 75.542709 -272.686719 
L 76.947298 -272.686719 
L 78.351888 -272.686719 
L 79.756478 -272.686719 
L 81.161067 -272.686719 
L 82.565657 -272.686719 
L 83.970246 -272.686719 
L 85.374836 -272.686719 
L 86.779426 -272.686719 
L 88.184015 -272.686719 
L 89.588605 -272.686719 
L 90.993194 -272.686719 
L 92.397784 -272.686719 
L 93.802374 -272.686719 
L 95.206963 -272.686719 
L 96.611553 -272.686719 
L 98.016142 -272.686719 
L 99.420732 -272.686719 
L 100.825322 -272.686719 
L 102.229911 -272.686719 
L 103.634501 -272.686719 
L 105.03909 -272.686719 
L 106.44368 -272.686719 
L 107.84827 -272.686719 
L 109.252859 -272.686719 
L 110.657449 -272.686719 
L 112.062038 -272.686719 
L 113.466628 -272.686719 
L 114.871217 -272.686719 
L 116.275807 -272.686719 
L 117.680397 -272.686719 
L 119.084986 -272.686719 
L 120.489576 -272.686719 
L 121.894165 -272.686719 
L 123.298755 -272.686719 
L 124.703345 -272.686719 
L 126.107934 -272.686719 
L 127.512524 -272.686719 
L 128.917113 -272.686719 
L 130.321703 -272.686719 
L 131.726293 -272.686719 
L 133.130882 -272.686719 
L 134.535472 -272.686719 
L 135.940061 -272.686719 
L 137.344651 -272.686719 
L 138.749241 -272.686719 
L 140.15383 -272.686719 
L 141.55842 -272.686719 
L 142.963009 -272.686719 
L 144.367599 -272.686719 
L 145.772189 -272.686719 
L 147.176778 -272.686719 
L 148.581368 -272.686719 
L 149.985957 -272.686719 
L 151.390547 -272.686719 
L 152.795137 -272.686719 
L 154.199726 -272.686719 
L 155.604316 -272.686719 
L 157.008905 -272.686719 
L 158.413495 -272.686719 
L 159.818085 -272.686719 
L 161.222674 -272.686719 
L 162.627264 -272.686719 
L 164.031853 -272.686719 
L 165.436443 -272.686719 
L 166.841033 -272.686719 
L 168.245622 -272.686719 
L 169.650212 -272.686719 
L 171.054801 -272.686719 
L 172.459391 -272.686719 
L 173.863981 -272.686719 
L 175.26857 -272.686719 
L 176.67316 -272.686719 
L 178.077749 -272.686719 
L 179.482339 -272.686719 
L 180.886929 -272.686719 
L 182.291518 -272.686719 
L 183.696108 -272.686719 
L 185.100697 -272.686719 
L 186.505287 -272.686719 
L 187.909877 -272.686719 
L 189.314466 -272.686719 
L 190.719056 -272.686719 
L 192.123645 -272.686719 
L 193.528235 -272.686719 
L 194.932825 -272.686719 
L 196.337414 -272.686719 
L 197.742004 -272.686719 
L 199.146593 -272.686719 
L 200.551183 -272.686719 
L 201.955773 -272.686719 
L 203.360362 -272.686719 
L 204.764952 -272.686719 
L 206.169541 -272.686719 
L 207.574131 -272.686719 
L 208.978721 -272.686719 
L 210.38331 -272.686719 
L 211.7879 -272.686719 
L 213.192489 -272.686719 
L 214.597079 -272.686719 
L 216.001669 -272.686719 
L 217.406258 -272.686719 
L 218.810848 -272.686719 
L 220.215437 -272.686719 
L 221.620027 -272.686719 
L 223.024617 -272.686719 
L 224.429206 -272.686719 
L 225.833796 -272.686719 
L 227.238385 -272.686719 
L 228.642975 -272.686719 
L 230.047565 -272.686719 
L 231.452154 -272.686719 
L 232.856744 -272.686719 
L 234.261333 -272.686719 
L 235.665923 -272.686719 
L 237.070513 -272.686719 
L 238.475102 -272.686719 
L 239.879692 -272.686719 
L 241.284281 -272.686719 
L 242.688871 -272.686719 
L 244.093461 -272.686719 
L 245.49805 -272.686719 
L 246.90264 -272.686719 
L 248.307229 -272.686719 
L 249.711819 -272.686719 
L 251.116409 -272.686719 
L 252.520998 -272.686719 
L 253.925588 -272.686719 
L 255.330177 -272.686719 
L 256.734767 -272.686719 
L 258.139357 -272.686719 
L 259.543946 -272.686719 
L 260.948536 -272.686719 
L 262.353125 -272.686719 
L 263.757715 -272.686719 
L 265.162305 -272.686719 
L 266.566894 -272.686719 
L 267.971484 -272.686719 
L 269.376073 -272.686719 
L 270.780663 -272.686719 
L 272.185253 -272.686719 
L 273.589842 -272.686719 
L 274.994432 -272.686719 
L 276.399021 -272.686719 
L 277.803611 -272.686719 
L 279.208201 -272.686719 
L 280.61279 -272.686719 
L 282.01738 -272.686719 
L 283.421969 -272.686719 
L 284.826559 -272.686719 
L 286.231149 -272.686719 
L 287.635738 -272.686719 
L 289.040328 -272.686719 
L 290.444917 -272.686719 
L 291.849507 -272.686719 
L 293.254097 -272.686719 
L 294.658686 -272.686719 
L 296.063276 -272.686719 
L 297.467865 -272.686719 
L 298.872455 -272.686719 
L 300.277045 -272.686719 
L 301.681634 -272.686719 
L 303.086224 -272.686719 
L 304.490813 -272.686719 
L 305.895403 -272.686719 
L 307.299993 -272.686719 
L 308.704582 -272.686719 
L 310.109172 -272.686719 
L 311.513761 -272.686719 
L 312.918351 -272.686719 
L 314.322941 -272.686719 
L 315.72753 -272.686719 
L 317.13212 -272.686719 
L 318.536709 -272.686719 
L 319.941299 -272.686719 
L 321.345889 -272.686719 
L 322.750478 -272.686719 
L 324.155068 -272.686719 
L 325.559657 -272.686719 
L 326.964247 -272.686719 
L 328.368837 -272.686719 
L 329.773426 -272.686719 
L 331.178016 -272.686719 
L 332.582605 -272.686719 
L 333.987195 -272.686719 
L 335.391785 -272.686719 
L 336.796374 -272.686719 
L 338.200964 -272.686719 
L 339.605553 -272.686719 
L 341.010143 -272.686719 
L 342.414733 -272.686719 
L 343.819322 -272.686719 
L 345.223912 -272.686719 
L 346.628501 -272.686719 
L 348.033091 -272.686719 
L 349.437681 -272.686719 
L 350.84227 -272.686719 
L 352.24686 -272.686719 
L 353.651449 -272.686719 
L 355.056039 -272.686719 
L 356.460629 -272.686719 
L 357.865218 -272.686719 
L 359.269808 -272.686719 
L 360.674397 -272.686719 
L 362.078987 -272.686719 
L 363.483577 -272.686719 
L 364.888166 -272.686719 
L 366.292756 -272.686719 
L 367.697345 -272.686719 
L 369.101935 -272.686719 
L 370.506525 -272.686719 
L 371.911114 -272.686719 
L 373.315704 -272.686719 
L 374.720293 -272.686719 
L 376.124883 -272.686719 
L 377.529473 -272.686719 
L 378.934062 -272.686719 
L 380.338652 -272.686719 
L 381.743241 -272.686719 
L 383.147831 -272.686719 
L 384.552421 -272.686719 
L 385.95701 -272.686719 
L 387.3616 -272.686719 
L 388.766189 -272.686719 
L 390.170779 -272.686719 
L 391.575368 -272.686719 
L 392.979958 -272.686719 
L 394.384548 -272.686719 
L 395.789137 -272.686719 
L 397.193727 -272.686719 
L 398.598316 -272.686719 
L 400.002906 -272.686719 
L 401.407496 -272.686719 
L 402.812085 -272.686719 
L 404.216675 -272.686719 
L 405.621264 -272.686719 
L 407.025854 -272.686719 
L 408.430444 -272.686719 
L 409.835033 -272.686719 
L 411.239623 -272.686719 
L 412.644212 -272.686719 
L 414.048802 -272.686719 
L 415.453392 -272.686719 
L 416.857981 -272.686719 
L 418.262571 -272.686719 
L 419.66716 -272.686719 
L 421.07175 -272.686719 
L 422.47634 -272.686719 
L 423.880929 -272.686719 
L 425.285519 -272.686719 
L 426.690108 -272.686719 
L 428.094698 -272.686719 
L 429.499288 -272.686719 
L 430.903877 -272.686719 
L 432.308467 -272.686719 
L 433.713056 -272.686719 
L 435.117646 -272.686719 
L 436.522236 -272.686719 
L 437.926825 -272.686719 
L 439.331415 -272.686719 
L 440.736004 -272.686719 
L 442.140594 -272.686719 
L 443.545184 -272.686719 
L 444.949773 -272.686719 
L 446.354363 -272.686719 
L 447.758952 -272.686719 
L 449.163542 -272.686719 
L 450.568132 -272.686719 
L 451.972721 -272.686719 
L 453.377311 -272.686719 
L 454.7819 -272.686719 
L 456.18649 -272.686719 
L 457.59108 -272.686719 
L 458.995669 -272.686719 
L 460.400259 -272.686719 
L 461.804848 -272.686719 
L 463.209438 -272.686719 
L 464.614028 -272.686719 
L 466.018617 -272.686719 
L 467.423207 -272.686719 
L 468.827796 -272.686719 
L 470.232386 -272.686719 
L 471.636976 -272.686719 
L 473.041565 -272.686719 
L 474.446155 -272.686719 
L 475.850744 -272.686719 
L 477.255334 -272.686719 
L 478.659924 -272.686719 
L 480.064513 -272.686719 
L 481.469103 -272.686719 
L 482.873692 -272.686719 
L 484.278282 -272.686719 
L 485.682872 -272.686719 
L 487.087461 -272.686719 
L 488.492051 -272.686719 
L 489.89664 -272.686719 
L 491.30123 -272.686719 
L 492.70582 -272.686719 
L 494.110409 -272.686719 
L 495.514999 -272.686719 
L 496.919588 -272.686719 
L 498.324178 -272.686719 
L 499.728768 -272.686719 
L 501.133357 -272.686719 
L 502.537947 -272.686719 
L 503.942536 -272.686719 
L 505.347126 -272.686719 
L 506.751716 -272.686719 
L 508.156305 -272.686719 
L 509.560895 -272.686719 
L 510.965484 -272.686719 
L 512.370074 -272.686719 
L 513.774664 -272.686719 
L 515.179253 -272.686719 
L 516.583843 -272.686719 
L 517.988432 -272.686719 
L 519.393022 -272.686719 
L 520.797612 -272.686719 
L 522.202201 -272.686719 
L 523.606791 -272.686719 
L 525.01138 -272.686719 
L 526.41597 -272.686719 
L 527.82056 -272.686719 
L 529.225149 -272.686719 
L 530.629739 -272.686719 
L 532.034328 -272.686719 
L 533.438918 -272.686719 
L 534.843508 -272.686719 
L 536.248097 -272.686719 
L 537.652687 -272.686719 
L 539.057276 -272.686719 
L 540.461866 -272.686719 
L 541.866456 -272.686719 
L 543.271045 -272.686719 
L 544.675635 -272.686719 
L 546.080224 -272.686719 
L 547.484814 -272.686719 
L 548.889404 -272.686719 
L 550.293993 -272.686719 
L 551.698583 -272.686719 
L 553.103172 -272.686719 
L 554.507762 -272.686719 
L 555.912352 -272.686719 
L 557.316941 -272.686719 
L 558.721531 -272.686719 
L 560.12612 -272.686719 
L 561.53071 -272.686719 
L 562.9353 -272.686719 
L 564.339889 -272.686719 
L 565.744479 -272.686719 
L 567.149068 -272.686719 
L 568.553658 -272.686719 
L 569.958248 -272.686719 
L 571.362837 -272.686719 
L 572.767427 -272.686719 
L 574.172016 -272.686719 
L 575.576606 -272.686719 
L 576.981196 -272.686719 
L 578.385785 -272.686719 
L 579.790375 -272.686719 
L 581.194964 -272.686719 
L 582.599554 -272.686719 
L 584.004144 -272.686719 
L 585.408733 -272.686719 
L 586.813323 -272.686719 
L 588.217912 -272.686719 
L 589.622502 -272.686719 
L 591.027092 -272.686719 
L 592.431681 -272.686719 
L 593.836271 -272.686719 
L 595.24086 -272.686719 
L 596.64545 -272.686719 
L 598.05004 -272.686719 
L 599.454629 -272.686719 
L 600.859219 -272.686719 
L 600.859219 -272.686719 
L 600.859219 -272.686719 
L 599.454629 -272.686719 
L 598.05004 -272.686719 
L 596.64545 -272.686719 
L 595.24086 -272.686719 
L 593.836271 -272.686719 
L 592.431681 -272.686719 
L 591.027092 -272.686719 
L 589.622502 -272.686719 
L 588.217912 -272.686719 
L 586.813323 -272.686719 
L 585.408733 -272.686719 
L 584.004144 -272.686719 
L 582.599554 -272.686719 
L 581.194964 -272.686719 
L 579.790375 -272.686719 
L 578.385785 -272.686719 
L 576.981196 -272.686719 
L 575.576606 -272.686719 
L 574.172016 -272.686719 
L 572.767427 -272.686719 
L 571.362837 -272.686719 
L 569.958248 -272.686719 
L 568.553658 -272.686719 
L 567.149068 -272.686719 
L 565.744479 -272.686719 
L 564.339889 -272.686719 
L 562.9353 -272.686719 
L 561.53071 -272.686719 
L 560.12612 -272.686719 
L 558.721531 -272.686719 
L 557.316941 -272.686719 
L 555.912352 -272.686719 
L 554.507762 -272.686719 
L 553.103172 -272.686719 
L 551.698583 -272.686719 
L 550.293993 -272.686719 
L 548.889404 -272.686719 
L 547.484814 -272.686719 
L 546.080224 -272.686719 
L 544.675635 -272.686719 
L 543.271045 -272.686719 
L 541.866456 -272.686719 
L 540.461866 -272.686719 
L 539.057276 -272.686719 
L 537.652687 -272.686719 
L 536.248097 -272.686719 
L 534.843508 -272.686719 
L 533.438918 -272.686719 
L 532.034328 -272.686719 
L 530.629739 -272.686719 
L 529.225149 -272.686719 
L 527.82056 -272.686719 
L 526.41597 -272.686719 
L 525.01138 -272.686719 
L 523.606791 -272.686719 
L 522.202201 -272.686719 
L 520.797612 -272.686719 
L 519.393022 -272.686719 
L 517.988432 -272.686719 
L 516.583843 -272.686719 
L 515.179253 -272.686719 
L 513.774664 -272.686719 
L 512.370074 -272.686719 
L 510.965484 -272.686719 
L 509.560895 -272.686719 
L 508.156305 -272.686719 
L 506.751716 -272.686719 
L 505.347126 -272.686719 
L 503.942536 -272.686719 
L 502.537947 -272.686719 
L 501.133357 -272.686719 
L 499.728768 -272.686719 
L 498.324178 -272.686719 
L 496.919588 -272.686719 
L 495.514999 -272.686719 
L 494.110409 -272.686719 
L 492.70582 -272.686719 
L 491.30123 -272.686719 
L 489.89664 -272.686719 
L 488.492051 -272.686719 
L 487.087461 -272.686719 
L 485.682872 -272.686719 
L 484.278282 -272.686719 
L 482.873692 -272.686719 
L 481.469103 -272.686719 
L 480.064513 -272.686719 
L 478.659924 -272.686719 
L 477.255334 -272.686719 
L 475.850744 -272.686719 
L 474.446155 -272.686719 
L 473.041565 -272.686719 
L 471.636976 -272.686719 
L 470.232386 -272.686719 
L 468.827796 -272.686719 
L 467.423207 -272.686719 
L 466.018617 -272.686719 
L 464.614028 -272.686719 
L 463.209438 -272.686719 
L 461.804848 -272.686719 
L 460.400259 -272.686719 
L 458.995669 -272.686719 
L 457.59108 -272.686719 
L 456.18649 -272.686719 
L 454.7819 -272.686719 
L 453.377311 -272.686719 
L 451.972721 -272.686719 
L 450.568132 -272.686719 
L 449.163542 -272.686719 
L 447.758952 -272.686719 
L 446.354363 -272.686719 
L 444.949773 -272.686719 
L 443.545184 -272.686719 
L 442.140594 -272.686719 
L 440.736004 -272.686719 
L 439.331415 -272.686719 
L 437.926825 -272.686719 
L 436.522236 -272.686719 
L 435.117646 -272.686719 
L 433.713056 -272.686719 
L 432.308467 -272.686719 
L 430.903877 -272.686719 
L 429.499288 -272.686719 
L 428.094698 -272.686719 
L 426.690108 -272.686719 
L 425.285519 -272.686719 
L 423.880929 -272.686719 
L 422.47634 -272.686719 
L 421.07175 -272.686719 
L 419.66716 -272.686719 
L 418.262571 -272.686719 
L 416.857981 -272.686719 
L 415.453392 -272.686719 
L 414.048802 -272.686719 
L 412.644212 -272.686719 
L 411.239623 -272.686719 
L 409.835033 -272.686719 
L 408.430444 -272.686719 
L 407.025854 -272.686719 
L 405.621264 -272.686719 
L 404.216675 -272.686719 
L 402.812085 -272.686719 
L 401.407496 -272.686719 
L 400.002906 -272.686719 
L 398.598316 -272.686719 
L 397.193727 -272.686719 
L 395.789137 -272.686719 
L 394.384548 -272.686719 
L 392.979958 -272.686719 
L 391.575368 -272.686719 
L 390.170779 -272.686719 
L 388.766189 -272.686719 
L 387.3616 -272.686719 
L 385.95701 -272.686719 
L 384.552421 -272.686719 
L 383.147831 -272.686719 
L 381.743241 -272.686719 
L 380.338652 -272.686719 
L 378.934062 -272.686719 
L 377.529473 -272.686719 
L 376.124883 -272.686719 
L 374.720293 -272.686719 
L 373.315704 -272.686719 
L 371.911114 -272.686719 
L 370.506525 -272.686719 
L 369.101935 -272.686719 
L 367.697345 -272.686719 
L 366.292756 -272.686719 
L 364.888166 -272.686719 
L 363.483577 -272.686719 
L 362.078987 -272.686719 
L 360.674397 -272.686719 
L 359.269808 -272.686719 
L 357.865218 -272.686719 
L 356.460629 -272.686719 
L 355.056039 -272.686719 
L 353.651449 -272.686719 
L 352.24686 -272.686719 
L 350.84227 -272.686719 
L 349.437681 -272.686719 
L 348.033091 -272.686719 
L 346.628501 -272.686719 
L 345.223912 -272.686719 
L 343.819322 -272.686719 
L 342.414733 -272.686719 
L 341.010143 -272.686719 
L 339.605553 -272.686719 
L 338.200964 -272.686719 
L 336.796374 -272.686719 
L 335.391785 -272.686719 
L 333.987195 -272.686719 
L 332.582605 -272.686719 
L 331.178016 -272.686719 
L 329.773426 -272.686719 
L 328.368837 -272.686719 
L 326.964247 -272.686719 
L 325.559657 -272.686719 
L 324.155068 -272.686719 
L 322.750478 -272.686719 
L 321.345889 -272.686719 
L 319.941299 -272.686719 
L 318.536709 -272.686719 
L 317.13212 -272.686719 
L 315.72753 -272.686719 
L 314.322941 -272.686719 
L 312.918351 -272.686719 
L 311.513761 -272.686719 
L 310.109172 -272.686719 
L 308.704582 -272.686719 
L 307.299993 -272.686719 
L 305.895403 -272.686719 
L 304.490813 -272.686719 
L 303.086224 -272.686719 
L 301.681634 -272.686719 
L 300.277045 -272.686719 
L 298.872455 -272.686719 
L 297.467865 -272.686719 
L 296.063276 -272.686719 
L 294.658686 -272.686719 
L 293.254097 -272.686719 
L 291.849507 -272.686719 
L 290.444917 -272.686719 
L 289.040328 -272.686719 
L 287.635738 -272.686719 
L 286.231149 -272.686719 
L 284.826559 -272.686719 
L 283.421969 -272.686719 
L 282.01738 -272.686719 
L 280.61279 -272.686719 
L 279.208201 -272.686719 
L 277.803611 -272.686719 
L 276.399021 -272.686719 
L 274.994432 -272.686719 
L 273.589842 -272.686719 
L 272.185253 -272.686719 
L 270.780663 -272.686719 
L 269.376073 -272.686719 
L 267.971484 -272.686719 
L 266.566894 -272.686719 
L 265.162305 -272.686719 
L 263.757715 -272.686719 
L 262.353125 -272.686719 
L 260.948536 -272.686719 
L 259.543946 -272.686719 
L 258.139357 -122.773011 
L 256.734767 -122.773011 
L 255.330177 -122.773011 
L 253.925588 -122.773011 
L 252.520998 -122.773011 
L 251.116409 -122.773011 
L 249.711819 -122.773011 
L 248.307229 -122.773011 
L 246.90264 -122.773011 
L 245.49805 -122.773011 
L 244.093461 -122.773011 
L 242.688871 -122.773011 
L 241.284281 -122.773011 
L 239.879692 -122.773011 
L 238.475102 -122.773011 
L 237.070513 -122.773011 
L 235.665923 -122.773011 
L 234.261333 -122.773011 
L 232.856744 -122.773011 
L 231.452154 -122.773011 
L 230.047565 -122.773011 
L 228.642975 -122.773011 
L 227.238385 -122.773011 
L 225.833796 -122.773011 
L 224.429206 -122.773011 
L 223.024617 -122.773011 
L 221.620027 -122.773011 
L 220.215437 -122.773011 
L 218.810848 -122.773011 
L 217.406258 -122.773011 
L 216.001669 -122.773011 
L 214.597079 -122.773011 
L 213.192489 -122.773011 
L 211.7879 -122.773011 
L 210.38331 -122.773011 
L 208.978721 -122.773011 
L 207.574131 -122.773011 
L 206.169541 -122.773011 
L 204.764952 -122.773011 
L 203.360362 -122.773011 
L 201.955773 -122.773011 
L 200.551183 -122.773011 
L 199.146593 -122.773011 
L 197.742004 -122.773011 
L 196.337414 -122.773011 
L 194.932825 -122.773011 
L 193.528235 -122.773011 
L 192.123645 -122.773011 
L 190.719056 -122.773011 
L 189.314466 -122.773011 
L 187.909877 -122.773011 
L 186.505287 -122.773011 
L 185.100697 -122.773011 
L 183.696108 -122.773011 
L 182.291518 -122.773011 
L 180.886929 -122.773011 
L 179.482339 -122.773011 
L 178.077749 -122.773011 
L 176.67316 -122.773011 
L 175.26857 -122.773011 
L 173.863981 -122.773011 
L 172.459391 -122.773011 
L 171.054801 -122.773011 
L 169.650212 -122.773011 
L 168.245622 -122.773011 
L 166.841033 -122.773011 
L 165.436443 -122.773011 
L 164.031853 -122.773011 
L 162.627264 -122.773011 
L 161.222674 -122.773011 
L 159.818085 -122.773011 
L 158.413495 -122.773011 
L 157.008905 -122.773011 
L 155.604316 -122.773011 
L 154.199726 -122.773011 
L 152.795137 -122.773011 
L 151.390547 -122.773011 
L 149.985957 -122.773011 
L 148.581368 -122.773011 
L 147.176778 -122.773011 
L 145.772189 -122.773011 
L 144.367599 -122.773011 
L 142.963009 -122.773011 
L 141.55842 -122.773011 
L 140.15383 -122.773011 
L 138.749241 -122.773011 
L 137.344651 -122.773011 
L 135.940061 -122.773011 
L 134.535472 -122.773011 
L 133.130882 -122.773011 
L 131.726293 -122.773011 
L 130.321703 -122.773011 
L 128.917113 -122.773011 
L 127.512524 -122.773011 
L 126.107934 -122.773011 
L 124.703345 -122.773011 
L 123.298755 -122.773011 
L 121.894165 -122.773011 
L 120.489576 -122.773011 
L 119.084986 -122.773011 
L 117.680397 -122.773011 
L 116.275807 -122.773011 
L 114.871217 -122.773011 
L 113.466628 -122.773011 
L 112.062038 -122.773011 
L 110.657449 -122.773011 
L 109.252859 -122.773011 
L 107.84827 -122.773011 
L 106.44368 -122.773011 
L 105.03909 -122.773011 
L 103.634501 -122.773011 
L 102.229911 -122.773011 
L 100.825322 -122.773011 
L 99.420732 -122.773011 
L 98.016142 -122.773011 
L 96.611553 -122.773011 
L 95.206963 -122.773011 
L 93.802374 -122.773011 
L 92.397784 -122.773011 
L 90.993194 -122.773011 
L 89.588605 -122.773011 
L 88.184015 -122.773011 
L 86.779426 -122.773011 
L 85.374836 -122.773011 
L 83.970246 -122.773011 
L 82.565657 -122.773011 
L 81.161067 -122.773011 
L 79.756478 -122.773011 
L 78.351888 -122.773011 
L 76.947298 -122.773011 
L 75.542709 -122.773011 
L 74.138119 -122.773011 
L 72.73353 -122.773011 
L 71.32894 -272.686719 
L 69.92435 -272.686719 
L 68.519761 -272.686719 
L 67.115171 -272.686719 
L 65.710582 -272.686719 
L 64.305992 -272.686719 
L 62.901402 -272.686719 
L 61.496813 -272.686719 
L 60.092223 -272.686719 
L 58.687634 -272.686719 
L 57.283044 -272.686719 
L 55.878454 -272.686719 
L 54.473865 -272.686719 
L 53.069275 -272.686719 
L 51.664686 -272.686719 
L 50.260096 -272.686719 
L 48.855506 -272.686719 
L 47.450917 -272.686719 
L 46.046327 -272.686719 
L 44.641738 -272.686719 
L 43.237148 -272.686719 
L 41.832558 -272.686719 
L 40.427969 -272.686719 
z
" style="stroke: #2e8b57; stroke-opacity: 0.4"/>
    </defs>
    <g clip-path="url(#p6c878ecf07)">
     <use xlink:href="#m665ef5be0c" x="0" y="293.886719" style="fill: #2e8b57; fill-opacity: 0.4; stroke: #2e8b57; stroke-opacity: 0.4"/>
    </g>
   </g>
   <g id="matplotlib.axis_3">
    <g id="ytick_7">
     <g id="line2d_35">
      <defs>
       <path id="m8ed91b1719" d="M 0 0 
L 3.5 0 
" style="stroke: #000000; stroke-width: 0.8"/>
      </defs>
      <g>
       <use xlink:href="#m8ed91b1719" x="600.859219" y="21.2" style="stroke: #000000; stroke-width: 0.8"/>
      </g>
     </g>
     <g id="text_23">
      <!-- 0 -->
      <g style="fill: #1f4e79" transform="translate(607.859219 24.429336) scale(0.085 -0.085)">
       <use xlink:href="#DejaVuSans-30"/>
      </g>
     </g>
    </g>
    <g id="ytick_8">
     <g id="line2d_36">
      <g>
       <use xlink:href="#m8ed91b1719" x="600.859219" y="50.89375" style="stroke: #000000; stroke-width: 0.8"/>
      </g>
     </g>
     <g id="text_24">
      <!-- 10 -->
      <g style="fill: #1f4e79" transform="translate(607.859219 54.123086) scale(0.085 -0.085)">
       <use xlink:href="#DejaVuSans-31"/>
       <use xlink:href="#DejaVuSans-30" x="63.623047"/>
      </g>
     </g>
    </g>
    <g id="ytick_9">
     <g id="line2d_37">
      <g>
       <use xlink:href="#m8ed91b1719" x="600.859219" y="80.5875" style="stroke: #000000; stroke-width: 0.8"/>
      </g>
     </g>
     <g id="text_25">
      <!-- 20 -->
      <g style="fill: #1f4e79" transform="translate(607.859219 83.816836) scale(0.085 -0.085)">
       <use xlink:href="#DejaVuSans-32"/>
       <use xlink:href="#DejaVuSans-30" x="63.623047"/>
      </g>
     </g>
    </g>
    <g id="ytick_10">
     <g id="line2d_38">
      <g>
       <use xlink:href="#m8ed91b1719" x="600.859219" y="110.28125" style="stroke: #000000; stroke-width: 0.8"/>
      </g>
     </g>
     <g id="text_26">
      <!-- 30 -->
      <g style="fill: #1f4e79" transform="translate(607.859219 113.510586) scale(0.085 -0.085)">
       <use xlink:href="#DejaVuSans-33"/>
       <use xlink:href="#DejaVuSans-30" x="63.623047"/>
      </g>
     </g>
    </g>
    <g id="ytick_11">
     <g id="line2d_39">
      <g>
       <use xlink:href="#m8ed91b1719" x="600.859219" y="139.975" style="stroke: #000000; stroke-width: 0.8"/>
      </g>
     </g>
     <g id="text_27">
      <!-- 40 -->
      <g style="fill: #1f4e79" transform="translate(607.859219 143.204336) scale(0.085 -0.085)">
       <use xlink:href="#DejaVuSans-34"/>
       <use xlink:href="#DejaVuSans-30" x="63.623047"/>
      </g>
     </g>
    </g>
    <g id="ytick_12">
     <g id="line2d_40">
      <g>
       <use xlink:href="#m8ed91b1719" x="600.859219" y="169.66875" style="stroke: #000000; stroke-width: 0.8"/>
      </g>
     </g>
     <g id="text_28">
      <!-- 50 -->
      <g style="fill: #1f4e79" transform="translate(607.859219 172.898086) scale(0.085 -0.085)">
       <use xlink:href="#DejaVuSans-35"/>
       <use xlink:href="#DejaVuSans-30" x="63.623047"/>
      </g>
     </g>
    </g>
    <g id="ytick_13">
     <g id="line2d_41">
      <g>
       <use xlink:href="#m8ed91b1719" x="600.859219" y="199.3625" style="stroke: #000000; stroke-width: 0.8"/>
      </g>
     </g>
     <g id="text_29">
      <!-- 60 -->
      <g style="fill: #1f4e79" transform="translate(607.859219 202.591836) scale(0.085 -0.085)">
       <use xlink:href="#DejaVuSans-36"/>
       <use xlink:href="#DejaVuSans-30" x="63.623047"/>
      </g>
     </g>
    </g>
    <g id="ytick_14">
     <g id="line2d_42">
      <g>
       <use xlink:href="#m8ed91b1719" x="600.859219" y="229.05625" style="stroke: #000000; stroke-width: 0.8"/>
      </g>
     </g>
     <g id="text_30">
      <!-- 70 -->
      <g style="fill: #1f4e79" transform="translate(607.859219 232.285586) scale(0.085 -0.085)">
       <use xlink:href="#DejaVuSans-37"/>
       <use xlink:href="#DejaVuSans-30" x="63.623047"/>
      </g>
     </g>
    </g>
    <g id="ytick_15">
     <g id="line2d_43">
      <g>
       <use xlink:href="#m8ed91b1719" x="600.859219" y="258.75" style="stroke: #000000; stroke-width: 0.8"/>
      </g>
     </g>
     <g id="text_31">
      <!-- 80 -->
      <g style="fill: #1f4e79" transform="translate(607.859219 261.979336) scale(0.085 -0.085)">
       <use xlink:href="#DejaVuSans-38"/>
       <use xlink:href="#DejaVuSans-30" x="63.623047"/>
      </g>
     </g>
    </g>
    <g id="text_32">
     <!-- Intensité (mm/h) -->
     <g style="fill: #1f4e79" transform="translate(629.514062 177.742656) rotate(-90) scale(0.09 -0.09)">
      <defs>
       <path id="DejaVuSans-49" d="M 628 4666 
L 1259 4666 
L 1259 0 
L 628 0 
L 628 4666 
z
" transform="scale(0.015625)"/>
      </defs>
      <use xlink:href="#DejaVuSans-49"/>
      <use xlink:href="#DejaVuSans-6e" x="29.492188"/>
      <use xlink:href="#DejaVuSans-74" x="92.871094"/>
      <use xlink:href="#DejaVuSans-65" x="132.080078"/>
      <use xlink:href="#DejaVuSans-6e" x="193.603516"/>
      <use xlink:href="#DejaVuSans-73" x="256.982422"/>
      <use xlink:href="#DejaVuSans-69" x="309.082031"/>
      <use xlink:href="#DejaVuSans-74" x="336.865234"/>
      <use xlink:href="#DejaVuSans-e9" x="376.074219"/>
      <use xlink:href="#DejaVuSans-20" x="437.597656"/>
      <use xlink:href="#DejaVuSans-28" x="469.384766"/>
      <use xlink:href="#DejaVuSans-6d" x="508.398438"/>
      <use xlink:href="#DejaVuSans-6d" x="605.810547"/>
      <use xlink:href="#DejaVuSans-2f" x="703.222656"/>
      <use xlink:href="#DejaVuSans-68" x="736.914062"/>
      <use xlink:href="#DejaVuSans-29" x="800.292969"/>
     </g>
    </g>
   </g>
   <g id="line2d_44">
    <path d="M 40.427969 21.2 
L 71.32894 21.2 
L 72.73353 293.770377 
L 258.139357 293.770377 
L 259.543946 21.2 
L 600.859219 21.2 
L 600.859219 21.2 
" clip-path="url(#p6c878ecf07)" style="fill: none; stroke: #1f4e79; stroke-width: 1.5; stroke-linecap: square"/>
   </g>
   <g id="line2d_45">
    <path d="M 40.427969 21.2 
L 71.32894 21.2 
L 72.73353 171.113708 
L 258.139357 171.113708 
L 259.543946 21.2 
L 600.859219 21.2 
L 600.859219 21.2 
" clip-path="url(#p6c878ecf07)" style="fill: none; stroke: #2e8b57; stroke-width: 1.5; stroke-linecap: square"/>
   </g>
   <g id="patch_10">
    <path d="M 40.427969 258.75 
L 40.427969 21.2 
" style="fill: none; stroke: #000000; stroke-width: 0.8; stroke-linejoin: miter; stroke-linecap: square"/>
   </g>
   <g id="patch_11">
    <path d="M 600.859219 258.75 
L 600.859219 21.2 
" style="fill: none; stroke: #000000; stroke-width: 0.8; stroke-linejoin: miter; stroke-linecap: square"/>
   </g>
   <g id="patch_12">
    <path d="M 40.427969 258.75 
L 600.859219 258.75 
" style="fill: none; stroke: #000000; stroke-width: 0.8; stroke-linejoin: miter; stroke-linecap: square"/>
   </g>
   <g id="patch_13">
    <path d="M 40.427969 21.2 
L 600.859219 21.2 
" style="fill: none; stroke: #000000; stroke-width: 0.8; stroke-linejoin: miter; stroke-linecap: square"/>
   </g>
  </g>
 </g>
 <defs>
  <clipPath id="p6c878ecf07">
   <rect x="40.427969" y="21.2" width="560.43125" height="237.55"/>
  </clipPath>
 </defs>
</svg>
